<?xml version="1.0" standalone="no"?>
<!DOCTYPE svg PUBLIC "-//W3C//DTD SVG 1.1//EN"
"http://www.w3.org/Graphics/SVG/1.1/DTD/svg11.dtd">
<!-- Creator: fig2dev Version 3.2 Patchlevel 5 -->
<!-- CreationDate: Mon Sep 17 14:58:49 2018 -->
<!-- Magnification: 1.050 -->
<svg xmlns="http://www.w3.org/2000/svg" width="5.7in" height="2.0in" viewBox="1475 4865 6898 2434">
<g style="stroke-width:.025in; stroke:black; fill:none">
<!-- Line: box -->
<rect x="7156" y="4948" width="1133" height="921" rx="0" 
style="stroke:#7e7e7e;stroke-width:8;
stroke-linejoin:miter; stroke-linecap:butt;
fill:#7e7e7e;
"/>
<!-- Line: box -->
<rect x="4322" y="4948" width="1133" height="921" rx="0" 
style="stroke:#7e7e7e;stroke-width:8;
stroke-linejoin:miter; stroke-linecap:butt;
fill:#7e7e7e;
"/>
<!-- Line: box -->
<rect x="2904" y="4948" width="1133" height="921" rx="0" 
style="stroke:#7e7e7e;stroke-width:8;
stroke-linejoin:miter; stroke-linecap:butt;
fill:#7e7e7e;
"/>
<!-- Line: box -->
<rect x="1487" y="6365" width="1133" height="921" rx="0" 
style="stroke:#7e7e7e;stroke-width:8;
stroke-linejoin:miter; stroke-linecap:butt;
fill:#7e7e7e;
"/>
<!-- Line -->
<polyline points="7228,5798
7128,5972
" style="stroke:#000000;stroke-width:8;
stroke-linejoin:miter; stroke-linecap:butt;
"/>
<!-- Line -->
<polyline points="2125,6295
2125,6120
" style="stroke:#000000;stroke-width:8;
stroke-linejoin:miter; stroke-linecap:butt;
"/>
<!-- Line -->
<polyline points="2692,6295
2976,5798
" style="stroke:#000000;stroke-width:8;
stroke-linejoin:miter; stroke-linecap:butt;
"/>
<!-- Line -->
<polyline points="4110,5338
4393,5338
" style="stroke:#000000;stroke-width:8;
stroke-linejoin:miter; stroke-linecap:butt;
"/>
<!-- Line -->
<polyline points="5527,5338
5529,5338
5534,5338
5545,5338
5560,5338
5581,5338
5608,5338
5640,5338
5677,5338
5718,5338
5761,5338
5806,5338
5853,5338
5898,5338
5942,5338
5985,5338
6026,5338
6066,5338
6102,5338
6138,5338
6172,5338
6204,5338
6235,5338
6264,5338
6293,5338
6322,5338
6349,5338
6377,5338
6410,5338
6443,5338
6476,5338
6509,5338
6543,5338
6577,5338
6612,5338
6646,5338
6681,5338
6716,5338
6749,5338
6783,5338
6816,5338
6848,5338
6878,5338
6908,5338
6936,5338
6962,5338
6986,5338
7009,5338
7032,5338
7050,5338
7069,5338
7228,5338
" style="stroke:#000000;stroke-width:8;
stroke-linejoin:bevel; stroke-linecap:butt;
"/>
<!-- Text -->
<text xml:space="preserve" x="2834" y="6047" stroke="#000000" fill="#000000" font-family="Times" font-style="normal" font-weight="normal" font-size="76" text-anchor="middle">U/D</text>
<!-- Line: box -->
<rect x="7227" y="4877" width="1133" height="920" rx="0" 
style="stroke:#000000;stroke-width:8;
stroke-linejoin:miter; stroke-linecap:butt;
fill:#ffffff;
"/>
<!-- Line: box -->
<rect x="4392" y="4877" width="1133" height="920" rx="0" 
style="stroke:#000000;stroke-width:8;
stroke-linejoin:miter; stroke-linecap:butt;
fill:#ffffff;
"/>
<!-- Line: box -->
<rect x="2976" y="4877" width="1133" height="920" rx="0" 
style="stroke:#000000;stroke-width:8;
stroke-linejoin:miter; stroke-linecap:butt;
fill:#ffffff;
"/>
<!-- Line: box -->
<rect x="1559" y="6295" width="1133" height="920" rx="0" 
style="stroke:#000000;stroke-width:8;
stroke-linejoin:miter; stroke-linecap:butt;
fill:#ffffff;
"/>
<!-- Text -->
<text xml:space="preserve" x="7800" y="5295" stroke="#000000" fill="#000000" font-family="Times" font-style="normal" font-weight="bold" font-size="126" text-anchor="middle">Six-sided</text>
<!-- Text -->
<text xml:space="preserve" x="7800" y="5469" stroke="#000000" fill="#000000" font-family="Times" font-style="normal" font-weight="bold" font-size="126" text-anchor="middle">Room</text>
<!-- Text -->
<text xml:space="preserve" x="4965" y="5382" stroke="#000000" fill="#000000" font-family="Times" font-style="normal" font-weight="bold" font-size="126" text-anchor="middle">Circular Room</text>
<!-- Text -->
<text xml:space="preserve" x="3548" y="5162" stroke="#000000" fill="#000000" font-family="Times" font-style="normal" font-weight="bold" font-size="126" text-anchor="middle">Wooden Stairs</text>
<!-- Text -->
<text xml:space="preserve" x="3548" y="5572" stroke="#000000" fill="#000000" font-family="Times" font-style="italic" font-weight="normal" font-size="76" text-anchor="middle">Red Hair</text>
<!-- Text -->
<text xml:space="preserve" x="2131" y="6712" stroke="#000000" fill="#000000" font-family="Times" font-style="normal" font-weight="bold" font-size="126" text-anchor="middle">Wooden Stairs</text>
<!-- Text -->
<text xml:space="preserve" x="2131" y="6887" stroke="#000000" fill="#000000" font-family="Times" font-style="normal" font-weight="bold" font-size="126" text-anchor="middle">(3)</text>
</g>
</svg>
