<?xml version="1.0" standalone="no"?>
<!DOCTYPE svg PUBLIC "-//W3C//DTD SVG 1.1//EN"
"http://www.w3.org/Graphics/SVG/1.1/DTD/svg11.dtd">
<!-- Creator: fig2dev Version 3.2 Patchlevel 5 -->
<!-- CreationDate: Thu Sep 13 11:24:06 2018 -->
<!-- Magnification: 1.050 -->
<svg xmlns="http://www.w3.org/2000/svg" width="12.8in" height="12.2in" viewBox="1002 2100 15403 14615">
<g style="stroke-width:.025in; stroke:black; fill:none">
<!-- Line: box -->
<rect x="13771" y="13523" width="1133" height="920" rx="0" 
style="stroke:#7e7e7e;stroke-width:8;
stroke-linejoin:miter; stroke-linecap:butt;
fill:#7e7e7e;
"/>
<!-- Line: box -->
<rect x="13771" y="10688" width="1133" height="920" rx="0" 
style="stroke:#7e7e7e;stroke-width:8;
stroke-linejoin:miter; stroke-linecap:butt;
fill:#7e7e7e;
"/>
<!-- Line: box -->
<rect x="1015" y="7854" width="1133" height="920" rx="0" 
style="stroke:#7e7e7e;stroke-width:8;
stroke-linejoin:miter; stroke-linecap:butt;
fill:#7e7e7e;
"/>
<!-- Line: box -->
<rect x="2432" y="2184" width="1133" height="920" rx="0" 
style="stroke:#7e7e7e;stroke-width:8;
stroke-linejoin:miter; stroke-linecap:butt;
fill:#7e7e7e;
"/>
<!-- Line: box -->
<rect x="2432" y="5019" width="1133" height="920" rx="0" 
style="stroke:#7e7e7e;stroke-width:8;
stroke-linejoin:miter; stroke-linecap:butt;
fill:#7e7e7e;
"/>
<!-- Line: box -->
<rect x="2432" y="6436" width="1133" height="920" rx="0" 
style="stroke:#7e7e7e;stroke-width:8;
stroke-linejoin:miter; stroke-linecap:butt;
fill:#7e7e7e;
"/>
<!-- Line: box -->
<rect x="13771" y="2184" width="1133" height="920" rx="0" 
style="stroke:#7e7e7e;stroke-width:8;
stroke-linejoin:miter; stroke-linecap:butt;
fill:#7e7e7e;
"/>
<!-- Line: box -->
<rect x="12353" y="2184" width="1133" height="920" rx="0" 
style="stroke:#7e7e7e;stroke-width:8;
stroke-linejoin:miter; stroke-linecap:butt;
fill:#7e7e7e;
"/>
<!-- Line: box -->
<rect x="10936" y="2184" width="1133" height="920" rx="0" 
style="stroke:#7e7e7e;stroke-width:8;
stroke-linejoin:miter; stroke-linecap:butt;
fill:#7e7e7e;
"/>
<!-- Line: box -->
<rect x="15188" y="5019" width="1133" height="920" rx="0" 
style="stroke:#7e7e7e;stroke-width:8;
stroke-linejoin:miter; stroke-linecap:butt;
fill:#7e7e7e;
"/>
<!-- Line: box -->
<rect x="13771" y="5019" width="1133" height="920" rx="0" 
style="stroke:#7e7e7e;stroke-width:8;
stroke-linejoin:miter; stroke-linecap:butt;
fill:#7e7e7e;
"/>
<!-- Line: box -->
<rect x="13771" y="7854" width="1133" height="920" rx="0" 
style="stroke:#7e7e7e;stroke-width:8;
stroke-linejoin:miter; stroke-linecap:butt;
fill:#7e7e7e;
"/>
<!-- Line: box -->
<rect x="10936" y="10688" width="1133" height="920" rx="0" 
style="stroke:#7e7e7e;stroke-width:8;
stroke-linejoin:miter; stroke-linecap:butt;
fill:#7e7e7e;
"/>
<!-- Line: box -->
<rect x="10936" y="7854" width="1133" height="920" rx="0" 
style="stroke:#7e7e7e;stroke-width:8;
stroke-linejoin:miter; stroke-linecap:butt;
fill:#7e7e7e;
"/>
<!-- Line: box -->
<rect x="10936" y="5019" width="1133" height="920" rx="0" 
style="stroke:#7e7e7e;stroke-width:8;
stroke-linejoin:miter; stroke-linecap:butt;
fill:#7e7e7e;
"/>
<!-- Line: box -->
<rect x="5267" y="2184" width="1133" height="920" rx="0" 
style="stroke:#7e7e7e;stroke-width:8;
stroke-linejoin:miter; stroke-linecap:butt;
fill:#7e7e7e;
"/>
<!-- Line: box -->
<rect x="5267" y="10688" width="1133" height="920" rx="0" 
style="stroke:#7e7e7e;stroke-width:8;
stroke-linejoin:miter; stroke-linecap:butt;
fill:#7e7e7e;
"/>
<!-- Line: box -->
<rect x="10936" y="3602" width="1133" height="920" rx="0" 
style="stroke:#7e7e7e;stroke-width:8;
stroke-linejoin:miter; stroke-linecap:butt;
fill:#7e7e7e;
"/>
<!-- Line: box -->
<rect x="8101" y="6436" width="1133" height="920" rx="0" 
style="stroke:#7e7e7e;stroke-width:8;
stroke-linejoin:miter; stroke-linecap:butt;
fill:#7e7e7e;
"/>
<!-- Line: box -->
<rect x="8101" y="7854" width="1133" height="920" rx="0" 
style="stroke:#7e7e7e;stroke-width:8;
stroke-linejoin:miter; stroke-linecap:butt;
fill:#7e7e7e;
"/>
<!-- Line: box -->
<rect x="8101" y="14940" width="1133" height="920" rx="0" 
style="stroke:#7e7e7e;stroke-width:8;
stroke-linejoin:miter; stroke-linecap:butt;
fill:#7e7e7e;
"/>
<!-- Line: box -->
<rect x="9519" y="14940" width="1133" height="920" rx="0" 
style="stroke:#7e7e7e;stroke-width:8;
stroke-linejoin:miter; stroke-linecap:butt;
fill:#7e7e7e;
"/>
<!-- Line: box -->
<rect x="8101" y="12106" width="1133" height="920" rx="0" 
style="stroke:#7e7e7e;stroke-width:8;
stroke-linejoin:miter; stroke-linecap:butt;
fill:#7e7e7e;
"/>
<!-- Line: box -->
<rect x="5267" y="13523" width="1133" height="920" rx="0" 
style="stroke:#7e7e7e;stroke-width:8;
stroke-linejoin:miter; stroke-linecap:butt;
fill:#7e7e7e;
"/>
<!-- Line: box -->
<rect x="8101" y="13523" width="1133" height="920" rx="0" 
style="stroke:#7e7e7e;stroke-width:8;
stroke-linejoin:miter; stroke-linecap:butt;
fill:#7e7e7e;
"/>
<!-- Line: box -->
<rect x="10936" y="13523" width="1133" height="920" rx="0" 
style="stroke:#7e7e7e;stroke-width:8;
stroke-linejoin:miter; stroke-linecap:butt;
fill:#7e7e7e;
"/>
<!-- Line: box -->
<rect x="8101" y="10688" width="1133" height="920" rx="0" 
style="stroke:#7e7e7e;stroke-width:8;
stroke-linejoin:miter; stroke-linecap:butt;
fill:#7e7e7e;
"/>
<!-- Line: box -->
<rect x="8101" y="2184" width="1133" height="920" rx="0" 
style="stroke:#7e7e7e;stroke-width:8;
stroke-linejoin:miter; stroke-linecap:butt;
fill:#7e7e7e;
"/>
<!-- Line: box -->
<rect x="8101" y="5019" width="1133" height="920" rx="0" 
style="stroke:#7e7e7e;stroke-width:8;
stroke-linejoin:miter; stroke-linecap:butt;
fill:#7e7e7e;
"/>
<!-- Line: box -->
<rect x="5267" y="5019" width="1133" height="920" rx="0" 
style="stroke:#7e7e7e;stroke-width:8;
stroke-linejoin:miter; stroke-linecap:butt;
fill:#7e7e7e;
"/>
<!-- Line: box -->
<rect x="2432" y="7854" width="1133" height="920" rx="0" 
style="stroke:#7e7e7e;stroke-width:8;
stroke-linejoin:miter; stroke-linecap:butt;
fill:#7e7e7e;
"/>
<!-- Line: box -->
<rect x="5267" y="7854" width="1133" height="920" rx="0" 
style="stroke:#7e7e7e;stroke-width:8;
stroke-linejoin:miter; stroke-linecap:butt;
fill:#7e7e7e;
"/>
<!-- Line: box -->
<rect x="2432" y="10688" width="1133" height="920" rx="0" 
style="stroke:#7e7e7e;stroke-width:8;
stroke-linejoin:miter; stroke-linecap:butt;
fill:#7e7e7e;
"/>
<!-- Line: box -->
<rect x="2432" y="13523" width="1133" height="920" rx="0" 
style="stroke:#7e7e7e;stroke-width:8;
stroke-linejoin:miter; stroke-linecap:butt;
fill:#7e7e7e;
"/>
<!-- Line -->
<polyline points="3070,13451
3070,13449
3070,13444
3070,13435
3070,13421
3070,13401
3070,13376
3070,13344
3070,13308
3070,13268
3070,13224
3070,13177
3070,13130
3070,13082
3070,13035
3070,12988
3070,12942
3070,12899
3070,12857
3070,12817
3070,12780
3070,12744
3070,12709
3070,12677
3070,12644
3070,12614
3070,12583
3070,12554
3070,12524
3070,12495
3070,12461
3070,12428
3070,12393
3070,12359
3070,12324
3070,12288
3070,12253
3070,12217
3070,12181
3070,12144
3070,12109
3070,12074
3070,12039
3070,12005
3070,11971
3070,11940
3070,11909
3070,11880
3070,11851
3070,11825
3070,11800
3070,11777
3070,11755
3070,11734
3070,11716
3070,11539
" style="stroke:#000000;stroke-width:8;
stroke-linejoin:bevel; stroke-linecap:butt;
"/>
<!-- Line -->
<polyline points="3637,10617
3638,10616
3641,10612
3648,10605
3656,10595
3669,10581
3686,10562
3707,10539
3731,10512
3759,10480
3790,10446
3823,10408
3859,10368
3896,10326
3933,10284
3970,10242
4008,10200
4045,10159
4080,10118
4115,10079
4149,10043
4180,10006
4211,9972
4240,9939
4268,9907
4296,9877
4322,9847
4347,9819
4371,9792
4395,9764
4418,9738
4441,9712
4465,9687
4488,9660
4514,9631
4540,9602
4566,9572
4593,9543
4619,9512
4646,9482
4674,9451
4701,9420
4729,9390
4756,9358
4784,9327
4812,9296
4839,9265
4867,9234
4893,9205
4919,9174
4945,9146
4971,9118
4995,9090
5018,9064
5040,9039
5062,9015
5082,8992
5102,8970
5120,8950
5138,8930
5153,8912
5169,8895
5183,8878
5338,8704
" style="stroke:#000000;stroke-width:8;
stroke-linejoin:bevel; stroke-linecap:butt;
"/>
<!-- Line -->
<polyline points="5338,8243
5336,8243
5331,8243
5320,8243
5306,8243
5285,8243
5257,8243
5225,8243
5188,8243
5147,8243
5104,8243
5059,8243
5013,8243
4967,8243
4923,8243
4880,8243
4839,8243
4800,8243
4763,8243
4727,8243
4693,8243
4661,8243
4630,8243
4601,8243
4572,8243
4543,8243
4516,8243
4488,8243
4455,8243
4423,8243
4389,8243
4356,8243
4322,8243
4288,8243
4254,8243
4219,8243
4184,8243
4150,8243
4116,8243
4082,8243
4049,8243
4017,8243
3987,8243
3958,8243
3929,8243
3903,8243
3879,8243
3856,8243
3834,8243
3815,8243
3796,8243
3637,8243
" style="stroke:#000000;stroke-width:8;
stroke-linejoin:bevel; stroke-linecap:butt;
"/>
<!-- Line -->
<polyline points="5338,5869
5337,5870
5334,5875
5328,5881
5319,5891
5307,5905
5290,5924
5269,5947
5245,5974
5216,6006
5186,6040
5152,6078
5117,6118
5080,6160
5042,6202
5005,6244
4967,6286
4931,6327
4895,6368
4860,6407
4827,6444
4795,6480
4765,6514
4735,6548
4707,6579
4680,6609
4654,6639
4628,6667
4604,6695
4580,6722
4557,6748
4534,6774
4511,6800
4488,6826
4461,6855
4435,6885
4409,6914
4383,6943
4356,6974
4329,7004
4302,7035
4275,7066
4246,7097
4219,7128
4192,7160
4163,7190
4136,7222
4109,7252
4082,7281
4056,7312
4030,7340
4005,7369
3981,7396
3958,7422
3935,7447
3913,7471
3893,7495
3874,7517
3856,7537
3838,7556
3822,7574
3806,7591
3793,7608
3637,7782
" style="stroke:#000000;stroke-width:8;
stroke-linejoin:bevel; stroke-linecap:butt;
"/>
<!-- Line -->
<polyline points="6472,5408
6474,5408
6479,5408
6490,5408
6504,5408
6525,5408
6553,5408
6585,5408
6622,5408
6663,5408
6706,5408
6751,5408
6797,5408
6843,5408
6887,5408
6930,5408
6971,5408
7011,5408
7047,5408
7083,5408
7117,5408
7149,5408
7180,5408
7209,5408
7238,5408
7267,5408
7294,5408
7322,5408
7355,5408
7387,5408
7420,5408
7454,5408
7487,5408
7522,5408
7556,5408
7591,5408
7626,5408
7659,5408
7694,5408
7728,5408
7760,5408
7792,5408
7822,5408
7851,5408
7880,5408
7906,5408
7930,5408
7953,5408
7975,5408
7995,5408
8013,5408
8172,5408
" style="stroke:#000000;stroke-width:8;
stroke-linejoin:bevel; stroke-linecap:butt;
"/>
<!-- Line -->
<polyline points="5905,7782
5905,7780
5905,7775
5905,7765
5905,7752
5905,7732
5905,7707
5905,7675
5905,7638
5905,7598
5905,7554
5905,7508
5905,7461
5905,7413
5905,7365
5905,7319
5905,7273
5905,7230
5905,7188
5905,7148
5905,7110
5905,7075
5905,7040
5905,7007
5905,6975
5905,6944
5905,6914
5905,6885
5905,6855
5905,6826
5905,6792
5905,6759
5905,6724
5905,6689
5905,6655
5905,6619
5905,6583
5905,6548
5905,6512
5905,6475
5905,6439
5905,6405
5905,6370
5905,6335
5905,6302
5905,6270
5905,6240
5905,6211
5905,6182
5905,6156
5905,6131
5905,6108
5905,6086
5905,6065
5905,6047
5905,5869
" style="stroke:#000000;stroke-width:8;
stroke-linejoin:bevel; stroke-linecap:butt;
"/>
<!-- Line -->
<polyline points="6472,7782
6473,7781
6476,7777
6482,7771
6491,7760
6503,7746
6520,7728
6541,7704
6565,7677
6594,7646
6624,7611
6658,7573
6693,7533
6730,7491
6768,7449
6805,7407
6843,7365
6879,7324
6915,7283
6950,7245
6983,7208
7015,7171
7045,7138
7075,7104
7103,7072
7130,7042
7156,7013
7182,6984
7206,6957
7230,6930
7253,6903
7276,6877
7299,6852
7322,6826
7349,6796
7374,6767
7400,6738
7427,6708
7454,6678
7481,6647
7508,6617
7535,6585
7563,6555
7591,6523
7618,6492
7646,6461
7673,6430
7700,6400
7728,6370
7754,6340
7779,6311
7804,6283
7828,6256
7851,6229
7875,6204
7896,6180
7916,6157
7935,6135
7953,6115
7971,6095
7987,6077
8003,6060
8016,6044
8172,5869
" style="stroke:#000000;stroke-width:8;
stroke-linejoin:bevel; stroke-linecap:butt;
"/>
<!-- Line -->
<polyline points="8740,4948
8740,4945
8740,4940
8740,4931
8740,4917
8740,4897
8740,4872
8740,4840
8740,4804
8740,4764
8740,4720
8740,4674
8740,4626
8740,4578
8740,4531
8740,4485
8740,4438
8740,4395
8740,4353
8740,4313
8740,4276
8740,4240
8740,4205
8740,4173
8740,4140
8740,4110
8740,4079
8740,4050
8740,4020
8740,3991
8740,3958
8740,3924
8740,3889
8740,3855
8740,3820
8740,3784
8740,3749
8740,3713
8740,3677
8740,3640
8740,3605
8740,3570
8740,3535
8740,3501
8740,3467
8740,3436
8740,3405
8740,3376
8740,3348
8740,3321
8740,3296
8740,3273
8740,3251
8740,3230
8740,3212
8740,3035
" style="stroke:#000000;stroke-width:8;
stroke-linejoin:bevel; stroke-linecap:butt;
"/>
<!-- Line -->
<polyline points="8740,10617
8740,10615
8740,10609
8740,10600
8740,10586
8740,10566
8740,10541
8740,10510
8740,10473
8740,10433
8740,10389
8740,10343
8740,10296
8740,10247
8740,10200
8740,10154
8740,10108
8740,10065
8740,10023
8740,9983
8740,9945
8740,9909
8740,9875
8740,9842
8740,9809
8740,9779
8740,9749
8740,9719
8740,9690
8740,9660
8740,9627
8740,9593
8740,9559
8740,9524
8740,9489
8740,9454
8740,9418
8740,9382
8740,9346
8740,9310
8740,9274
8740,9239
8740,9205
8740,9170
8740,9137
8740,9105
8740,9075
8740,9045
8740,9017
8740,8991
8740,8965
8740,8942
8740,8920
8740,8899
8740,8881
8740,8704
" style="stroke:#000000;stroke-width:8;
stroke-linejoin:bevel; stroke-linecap:butt;
"/>
<!-- Line -->
<polyline points="6472,8704
6473,8705
6476,8709
6482,8716
6491,8726
6503,8740
6520,8759
6541,8782
6565,8809
6594,8840
6624,8875
6658,8913
6693,8953
6730,8995
6768,9037
6805,9079
6843,9121
6879,9162
6915,9203
6950,9241
6983,9278
7015,9315
7045,9349
7075,9382
7103,9414
7130,9444
7156,9474
7182,9502
7206,9529
7230,9556
7253,9583
7276,9609
7299,9634
7322,9660
7349,9690
7374,9719
7400,9749
7427,9778
7454,9808
7481,9839
7508,9869
7535,9901
7563,9931
7591,9963
7618,9994
7646,10025
7673,10056
7700,10087
7728,10116
7754,10146
7779,10175
7804,10203
7828,10230
7851,10257
7875,10282
7896,10306
7916,10329
7935,10351
7953,10371
7971,10391
7987,10409
8003,10426
8016,10443
8172,10617
" style="stroke:#000000;stroke-width:8;
stroke-linejoin:bevel; stroke-linecap:butt;
"/>
<!-- Line -->
<polyline points="9307,11539
9308,11540
9311,11544
9317,11550
9325,11561
9338,11574
9355,11593
9376,11616
9400,11644
9428,11675
9459,11710
9492,11748
9528,11787
9565,11829
9603,11871
9639,11913
9677,11955
9714,11996
9750,12037
9784,12076
9818,12113
9849,12150
9880,12183
9909,12217
9938,12248
9965,12279
9991,12308
10016,12337
10040,12364
10065,12391
10088,12417
10111,12444
10134,12469
10157,12495
10183,12524
10209,12554
10236,12583
10262,12613
10288,12643
10316,12674
10343,12704
10370,12735
10398,12766
10426,12797
10453,12829
10481,12859
10509,12891
10536,12921
10562,12951
10588,12981
10615,13009
10640,13038
10664,13065
10687,13091
10709,13117
10731,13141
10751,13164
10771,13186
10789,13206
10807,13226
10923,13357
" style="stroke:#000000;stroke-width:8;
stroke-linejoin:bevel; stroke-linecap:butt;
"/>
<!-- Arrowhead on XXXpoint 10807 13226 - 11017 13463-->
<polygon points="10898 13377
11005 13450
10944 13335
10898 13377

" style="stroke:#000000;stroke-width:8;
fill:#000000;"/>
<!-- Line -->
<polyline points="11007,13912
11005,13912
11000,13912
10990,13912
10975,13912
10954,13912
10927,13912
10894,13912
10857,13912
10816,13912
10773,13912
10728,13912
10682,13912
10637,13912
10593,13912
10550,13912
10509,13912
10469,13912
10432,13912
10396,13912
10363,13912
10330,13912
10300,13912
10270,13912
10241,13912
10213,13912
10185,13912
10157,13912
10124,13912
10092,13912
10058,13912
10026,13912
9991,13912
9958,13912
9923,13912
9888,13912
9854,13912
9819,13912
9785,13912
9752,13912
9718,13912
9687,13912
9656,13912
9627,13912
9598,13912
9572,13912
9548,13912
9525,13912
9503,13912
9484,13912
9465,13912
9307,13912
" style="stroke:#000000;stroke-width:8;
stroke-linejoin:bevel; stroke-linecap:butt;
"/>
<!-- Line -->
<polyline points="8172,13912
8170,13912
8164,13912
8154,13912
8139,13912
8118,13912
8091,13912
8058,13912
8022,13912
7981,13912
7938,13912
7892,13912
7847,13912
7801,13912
7757,13912
7714,13912
7673,13912
7634,13912
7596,13912
7562,13912
7528,13912
7496,13912
7465,13912
7435,13912
7406,13912
7378,13912
7350,13912
7322,13912
7290,13912
7257,13912
7224,13912
7191,13912
7156,13912
7123,13912
7088,13912
7054,13912
7019,13912
6984,13912
6951,13912
6917,13912
6883,13912
6852,13912
6822,13912
6792,13912
6764,13912
6738,13912
6713,13912
6690,13912
6668,13912
6649,13912
6630,13912
6472,13912
" style="stroke:#000000;stroke-width:8;
stroke-linejoin:bevel; stroke-linecap:butt;
"/>
<!-- Line -->
<polyline points="6472,13451
6473,13450
6476,13446
6482,13440
6491,13429
6503,13416
6520,13397
6541,13374
6565,13346
6594,13315
6624,13280
6658,13243
6693,13203
6730,13161
6768,13119
6805,13077
6843,13035
6879,12994
6915,12953
6950,12914
6983,12877
7015,12840
7045,12807
7075,12773
7103,12742
7130,12711
7156,12682
7182,12654
7206,12626
7230,12599
7253,12573
7276,12546
7299,12521
7322,12495
7349,12466
7374,12436
7400,12407
7427,12377
7454,12347
7481,12317
7508,12286
7535,12255
7563,12224
7591,12193
7618,12161
7646,12131
7673,12099
7700,12069
7728,12039
7754,12009
7779,11981
7804,11952
7828,11925
7851,11899
7875,11874
7896,11849
7916,11826
7935,11804
7953,11784
7971,11764
8088,11632
" style="stroke:#000000;stroke-width:8;
stroke-linejoin:bevel; stroke-linecap:butt;
"/>
<!-- Arrowhead on XXXpoint 7971 11764 - 8181 11526-->
<polygon points="8110 11653
8170 11539
8062 11612
8110 11653

" style="stroke:#000000;stroke-width:8;
fill:#000000;"/>
<!-- Line -->
<polyline points="8740,13451
8740,13081
" style="stroke:#000000;stroke-width:8;
stroke-linejoin:miter; stroke-linecap:butt;
"/>
<!-- Arrowhead on XXXpoint 8740 13451 - 8740 12940-->
<polygon points="8771 13083
8740 12957
8708 13083
8771 13083

" style="stroke:#000000;stroke-width:8;
fill:#000000;"/>
<!-- Line -->
<polyline points="9307,12956
9309,12958
9312,12962
9318,12970
9329,12981
9342,12998
9361,13020
9384,13047
9411,13079
9440,13114
9474,13153
9508,13195
9544,13238
9581,13283
9617,13329
9653,13373
9688,13417
9721,13459
9753,13500
9783,13540
9811,13577
9837,13613
9862,13648
9884,13681
9905,13713
9925,13743
9943,13773
9960,13801
9975,13829
9989,13858
10003,13885
10015,13912
10030,13946
10044,13980
10055,14014
10068,14049
10078,14083
10088,14119
10097,14155
10106,14191
10114,14226
10120,14263
10127,14299
10133,14333
10137,14368
10141,14403
10145,14436
10149,14468
10151,14498
10153,14528
10154,14556
10155,14582
10156,14607
10156,14630
10156,14743
" style="stroke:#000000;stroke-width:8;
stroke-linejoin:bevel; stroke-linecap:butt;
"/>
<!-- Arrowhead on XXXpoint 10156 14630 - 10157 14883-->
<polygon points="10124 14741
10157 14867
10187 14740
10124 14741

" style="stroke:#000000;stroke-width:8;
fill:#000000;"/>
<!-- Line -->
<polyline points="10157,15791
10157,15794
10157,15799
10156,15809
10155,15826
10153,15848
10151,15878
10149,15912
10144,15951
10140,15994
10136,16039
10130,16087
10123,16134
10116,16180
10109,16224
10100,16267
10091,16307
10080,16345
10070,16380
10058,16411
10046,16440
10032,16468
10017,16492
10001,16514
9983,16535
9964,16554
9943,16572
9921,16587
9900,16601
9878,16614
9855,16625
9829,16636
9803,16646
9776,16656
9748,16664
9717,16672
9687,16679
9654,16685
9622,16690
9588,16695
9553,16699
9519,16701
9484,16702
9448,16703
9413,16702
9378,16701
9343,16699
9309,16695
9275,16690
9243,16685
9210,16679
9180,16672
9149,16664
9121,16656
9093,16646
9067,16636
9042,16625
9019,16614
8997,16601
8976,16587
8952,16571
8930,16552
8909,16531
8889,16510
8871,16487
8854,16462
8839,16437
8825,16411
8812,16384
8801,16356
8790,16327
8781,16298
8772,16268
8766,16240
8760,16211
8754,16181
8750,16154
8747,16127
8745,16100
8743,16075
8742,16051
8741,16028
8740,15916
" style="stroke:#000000;stroke-width:8;
stroke-linejoin:bevel; stroke-linecap:butt;
"/>
<!-- Arrowhead on XXXpoint 8741 16028 - 8739 15775-->
<polygon points="8770 15917
8739 15792
8707 15918
8770 15917

" style="stroke:#000000;stroke-width:8;
fill:#000000;"/>
<!-- Line -->
<polyline points="8740,14869
8740,14498
" style="stroke:#000000;stroke-width:8;
stroke-linejoin:miter; stroke-linecap:butt;
"/>
<!-- Arrowhead on XXXpoint 8740 14869 - 8740 14358-->
<polygon points="8771 14500
8740 14374
8708 14500
8771 14500

" style="stroke:#000000;stroke-width:8;
fill:#000000;"/>
<!-- Line -->
<polyline points="8172,7782
8171,7781
8167,7777
8161,7771
8153,7760
8140,7746
8123,7728
8102,7704
8078,7677
8050,7646
8019,7611
7986,7573
7950,7533
7913,7491
7877,7449
7839,7407
7801,7365
7765,7324
7730,7283
7695,7245
7661,7208
7630,7171
7598,7138
7569,7104
7542,7072
7514,7042
7488,7013
7463,6984
7439,6957
7415,6930
7392,6903
7369,6877
7345,6852
7322,6826
7296,6796
7270,6767
7244,6738
7217,6708
7191,6678
7164,6647
7137,6617
7109,6585
7081,6555
7054,6523
7026,6492
6998,6461
6971,6430
6943,6400
6917,6370
6891,6340
6865,6311
6839,6283
6815,6256
6792,6229
6770,6204
6748,6180
6728,6157
6708,6135
6690,6115
6672,6095
6657,6077
6641,6060
6627,6044
6472,5869
" style="stroke:#000000;stroke-width:8;
stroke-linejoin:bevel; stroke-linecap:butt;
"/>
<!-- Line -->
<polyline points="6472,8243
6474,8243
6479,8243
6490,8243
6504,8243
6525,8243
6553,8243
6585,8243
6622,8243
6663,8243
6706,8243
6751,8243
6797,8243
6843,8243
6887,8243
6930,8243
6971,8243
7011,8243
7047,8243
7083,8243
7117,8243
7149,8243
7180,8243
7209,8243
7238,8243
7267,8243
7294,8243
7322,8243
7355,8243
7387,8243
7420,8243
7454,8243
7487,8243
7522,8243
7556,8243
7591,8243
7626,8243
7659,8243
7694,8243
7728,8243
7760,8243
7792,8243
7822,8243
7851,8243
7880,8243
7906,8243
7930,8243
7953,8243
7975,8243
7995,8243
8013,8243
8172,8243
" style="stroke:#000000;stroke-width:8;
stroke-linejoin:bevel; stroke-linecap:butt;
"/>
<!-- Line -->
<polyline points="8740,7782
8740,7287
" style="stroke:#000000;stroke-width:8;
stroke-linejoin:miter; stroke-linecap:butt;
"/>
<!-- Line -->
<polyline points="9307,6365
9308,6364
9311,6360
9317,6353
9325,6343
9338,6329
9355,6310
9376,6287
9400,6260
9428,6228
9459,6194
9492,6156
9528,6116
9565,6074
9603,6032
9639,5990
9677,5948
9714,5907
9750,5866
9784,5827
9818,5791
9849,5754
9880,5720
9909,5687
9938,5655
9965,5625
9991,5595
10016,5567
10040,5540
10065,5512
10088,5486
10111,5460
10134,5435
10157,5408
10183,5379
10209,5350
10236,5320
10262,5291
10288,5260
10316,5230
10343,5200
10370,5168
10398,5138
10426,5106
10453,5075
10481,5044
10509,5013
10536,4982
10562,4953
10588,4922
10615,4894
10640,4866
10664,4838
10687,4812
10709,4787
10731,4763
10751,4740
10771,4718
10789,4698
10807,4678
10823,4660
10838,4643
10852,4626
11007,4452
" style="stroke:#000000;stroke-width:8;
stroke-linejoin:bevel; stroke-linecap:butt;
"/>
<!-- Line -->
<polyline points="5338,11078
5336,11078
5331,11078
5320,11078
5306,11078
5285,11078
5257,11078
5225,11078
5188,11078
5147,11078
5104,11078
5059,11078
5013,11078
4967,11078
4923,11078
4880,11078
4839,11078
4800,11078
4763,11078
4727,11078
4693,11078
4661,11078
4630,11078
4601,11078
4572,11078
4543,11078
4516,11078
4488,11078
4455,11078
4423,11078
4389,11078
4356,11078
4322,11078
4288,11078
4254,11078
4219,11078
4184,11078
4150,11078
4116,11078
4082,11078
4049,11078
4017,11078
3987,11078
3958,11078
3929,11078
3903,11078
3879,11078
3856,11078
3834,11078
3815,11078
3796,11078
3637,11078
" style="stroke:#000000;stroke-width:8;
stroke-linejoin:bevel; stroke-linecap:butt;
"/>
<!-- Line -->
<polyline points="6472,10617
6473,10616
6476,10612
6482,10605
6491,10595
6503,10581
6520,10562
6541,10539
6565,10512
6594,10480
6624,10446
6658,10408
6693,10368
6730,10326
6768,10284
6805,10242
6843,10200
6879,10159
6915,10118
6950,10079
6983,10043
7015,10006
7045,9972
7075,9939
7103,9907
7130,9877
7156,9847
7182,9819
7206,9792
7230,9764
7253,9738
7276,9712
7299,9687
7322,9660
7349,9631
7374,9602
7400,9572
7427,9543
7454,9512
7481,9482
7508,9451
7535,9420
7563,9390
7591,9358
7618,9327
7646,9296
7673,9265
7700,9234
7728,9205
7754,9174
7779,9146
7804,9118
7828,9090
7851,9064
7875,9039
7896,9015
7916,8992
7935,8970
7953,8950
7971,8930
7987,8912
8003,8895
8016,8878
8172,8704
" style="stroke:#000000;stroke-width:8;
stroke-linejoin:bevel; stroke-linecap:butt;
"/>
<!-- Line -->
<polyline points="6472,11078
6474,11078
6479,11078
6490,11078
6504,11078
6525,11078
6553,11078
6585,11078
6622,11078
6663,11078
6706,11078
6751,11078
6797,11078
6843,11078
6887,11078
6930,11078
6971,11078
7011,11078
7047,11078
7083,11078
7117,11078
7149,11078
7180,11078
7209,11078
7238,11078
7267,11078
7294,11078
7322,11078
7355,11078
7387,11078
7420,11078
7454,11078
7487,11078
7522,11078
7556,11078
7591,11078
7626,11078
7659,11078
7694,11078
7728,11078
7760,11078
7792,11078
7822,11078
7851,11078
7880,11078
7906,11078
7930,11078
7953,11078
7975,11078
7995,11078
8013,11078
8172,11078
" style="stroke:#000000;stroke-width:8;
stroke-linejoin:bevel; stroke-linecap:butt;
"/>
<!-- Line -->
<polyline points="5338,10617
5337,10616
5334,10612
5328,10605
5319,10595
5307,10581
5290,10562
5269,10539
5245,10512
5216,10480
5186,10446
5152,10408
5117,10368
5080,10326
5042,10284
5005,10242
4967,10200
4931,10159
4895,10118
4860,10079
4827,10043
4795,10006
4765,9972
4735,9939
4707,9907
4680,9877
4654,9847
4628,9819
4604,9792
4580,9764
4557,9738
4534,9712
4511,9687
4488,9660
4461,9631
4435,9602
4409,9572
4383,9543
4356,9512
4329,9482
4302,9451
4275,9420
4246,9390
4219,9358
4192,9327
4163,9296
4136,9265
4109,9234
4082,9205
4056,9174
4030,9146
4005,9118
3981,9090
3958,9064
3935,9039
3913,9015
3893,8992
3874,8970
3856,8950
3838,8930
3822,8912
3806,8895
3793,8878
3637,8704
" style="stroke:#000000;stroke-width:8;
stroke-linejoin:bevel; stroke-linecap:butt;
"/>
<!-- Line -->
<polyline points="5905,8704
5905,8706
5905,8711
5905,8721
5905,8734
5905,8754
5905,8780
5905,8811
5905,8848
5905,8888
5905,8932
5905,8978
5905,9025
5905,9074
5905,9121
5905,9167
5905,9213
5905,9256
5905,9298
5905,9338
5905,9376
5905,9412
5905,9446
5905,9479
5905,9511
5905,9542
5905,9572
5905,9602
5905,9631
5905,9660
5905,9694
5905,9728
5905,9762
5905,9797
5905,9832
5905,9867
5905,9903
5905,9939
5905,9974
5905,10011
5905,10047
5905,10081
5905,10116
5905,10151
5905,10184
5905,10216
5905,10246
5905,10276
5905,10304
5905,10330
5905,10355
5905,10379
5905,10401
5905,10422
5905,10439
5905,10617
" style="stroke:#000000;stroke-width:8;
stroke-linejoin:bevel; stroke-linecap:butt;
"/>
<!-- Line -->
<polyline points="6472,3035
6473,3036
6476,3040
6482,3046
6491,3057
6503,3070
6520,3089
6541,3112
6565,3140
6594,3171
6624,3206
6658,3244
6693,3283
6730,3325
6768,3367
6805,3409
6843,3451
6879,3492
6915,3533
6950,3572
6983,3609
7015,3646
7045,3679
7075,3713
7103,3744
7130,3775
7156,3804
7182,3833
7206,3860
7230,3887
7253,3913
7276,3940
7299,3965
7322,3991
7349,4020
7374,4050
7400,4079
7427,4109
7454,4139
7481,4170
7508,4200
7535,4232
7563,4262
7591,4293
7618,4325
7646,4355
7673,4387
7700,4417
7728,4447
7754,4477
7779,4506
7804,4534
7828,4561
7851,4587
7875,4613
7896,4637
7916,4660
7935,4682
7953,4702
7971,4722
7987,4740
8003,4756
8016,4773
8172,4948
" style="stroke:#000000;stroke-width:8;
stroke-linejoin:bevel; stroke-linecap:butt;
"/>
<!-- Line -->
<polyline points="5905,4948
5905,4945
5905,4940
5905,4931
5905,4917
5905,4897
5905,4872
5905,4840
5905,4804
5905,4764
5905,4720
5905,4674
5905,4626
5905,4578
5905,4531
5905,4485
5905,4438
5905,4395
5905,4353
5905,4313
5905,4276
5905,4240
5905,4205
5905,4173
5905,4140
5905,4110
5905,4079
5905,4050
5905,4020
5905,3991
5905,3958
5905,3924
5905,3889
5905,3855
5905,3820
5905,3784
5905,3749
5905,3713
5905,3677
5905,3640
5905,3605
5905,3570
5905,3535
5905,3501
5905,3467
5905,3436
5905,3405
5905,3376
5905,3348
5905,3321
5905,3296
5905,3273
5905,3251
5905,3230
5905,3212
5905,3035
" style="stroke:#000000;stroke-width:8;
stroke-linejoin:bevel; stroke-linecap:butt;
"/>
<!-- Line -->
<polyline points="11007,5408
11005,5408
11000,5408
10990,5408
10975,5408
10954,5408
10927,5408
10894,5408
10857,5408
10816,5408
10773,5408
10728,5408
10682,5408
10637,5408
10593,5408
10550,5408
10509,5408
10469,5408
10432,5408
10396,5408
10363,5408
10330,5408
10300,5408
10270,5408
10241,5408
10213,5408
10185,5408
10157,5408
10124,5408
10092,5408
10058,5408
10026,5408
9991,5408
9958,5408
9923,5408
9888,5408
9854,5408
9819,5408
9785,5408
9752,5408
9718,5408
9687,5408
9656,5408
9627,5408
9598,5408
9572,5408
9548,5408
9525,5408
9503,5408
9484,5408
9465,5408
9307,5408
" style="stroke:#000000;stroke-width:8;
stroke-linejoin:bevel; stroke-linecap:butt;
"/>
<!-- Line -->
<polyline points="9307,7782
9308,7781
9311,7777
9317,7771
9325,7760
9338,7746
9355,7728
9376,7704
9400,7677
9428,7646
9459,7611
9492,7573
9528,7533
9565,7491
9603,7449
9639,7407
9677,7365
9714,7324
9750,7283
9784,7245
9818,7208
9849,7171
9880,7138
9909,7104
9938,7072
9965,7042
9991,7013
10016,6984
10040,6957
10065,6930
10088,6903
10111,6877
10134,6852
10157,6826
10183,6796
10209,6767
10236,6738
10262,6708
10288,6678
10316,6647
10343,6617
10370,6585
10398,6555
10426,6523
10453,6492
10481,6461
10509,6430
10536,6400
10562,6370
10588,6340
10615,6311
10640,6283
10664,6256
10687,6229
10709,6204
10731,6180
10751,6157
10771,6135
10789,6115
10807,6095
10823,6077
10838,6060
10852,6044
11007,5869
" style="stroke:#000000;stroke-width:8;
stroke-linejoin:bevel; stroke-linecap:butt;
"/>
<!-- Line -->
<polyline points="11007,8704
11006,8705
11003,8709
10997,8716
10988,8726
10976,8740
10959,8759
10938,8782
10914,8809
10886,8840
10855,8875
10822,8913
10786,8953
10749,8995
10711,9037
10675,9079
10637,9121
10600,9162
10564,9203
10530,9241
10496,9278
10465,9315
10434,9349
10405,9382
10376,9414
10349,9444
10323,9474
10298,9502
10274,9529
10249,9556
10226,9583
10203,9609
10180,9634
10157,9660
10131,9690
10104,9719
10078,9749
10052,9778
10026,9808
9998,9839
9971,9869
9944,9901
9916,9931
9888,9963
9861,9994
9833,10025
9805,10056
9778,10087
9752,10116
9725,10146
9699,10175
9674,10203
9650,10230
9627,10257
9605,10282
9583,10306
9563,10329
9543,10351
9525,10371
9507,10391
9491,10409
9476,10426
9462,10443
9307,10617
" style="stroke:#000000;stroke-width:8;
stroke-linejoin:bevel; stroke-linecap:butt;
"/>
<!-- Line -->
<polyline points="11007,8243
11005,8243
11000,8243
10990,8243
10975,8243
10954,8243
10927,8243
10894,8243
10857,8243
10816,8243
10773,8243
10728,8243
10682,8243
10637,8243
10593,8243
10550,8243
10509,8243
10469,8243
10432,8243
10396,8243
10363,8243
10330,8243
10300,8243
10270,8243
10241,8243
10213,8243
10185,8243
10157,8243
10124,8243
10092,8243
10058,8243
10026,8243
9991,8243
9958,8243
9923,8243
9888,8243
9854,8243
9819,8243
9785,8243
9752,8243
9718,8243
9687,8243
9656,8243
9627,8243
9598,8243
9572,8243
9548,8243
9525,8243
9503,8243
9484,8243
9465,8243
9307,8243
" style="stroke:#000000;stroke-width:8;
stroke-linejoin:bevel; stroke-linecap:butt;
"/>
<!-- Line -->
<polyline points="11007,7782
11006,7781
11003,7777
10997,7771
10988,7760
10976,7746
10959,7728
10938,7704
10914,7677
10886,7646
10855,7611
10822,7573
10786,7533
10749,7491
10711,7449
10675,7407
10637,7365
10600,7324
10564,7283
10530,7245
10496,7208
10465,7171
10434,7138
10405,7104
10376,7072
10349,7042
10323,7013
10298,6984
10274,6957
10249,6930
10226,6903
10203,6877
10180,6852
10157,6826
10131,6796
10104,6767
10078,6738
10052,6708
10026,6678
9998,6647
9971,6617
9944,6585
9916,6555
9888,6523
9861,6492
9833,6461
9805,6430
9778,6400
9752,6370
9725,6340
9699,6311
9674,6283
9650,6256
9627,6229
9605,6204
9583,6180
9563,6157
9543,6135
9525,6115
9507,6095
9491,6077
9476,6060
9462,6044
9307,5869
" style="stroke:#000000;stroke-width:8;
stroke-linejoin:bevel; stroke-linecap:butt;
"/>
<!-- Line -->
<polyline points="11574,5869
11574,5871
11574,5877
11574,5886
11574,5900
11574,5920
11574,5945
11574,5976
11574,6013
11574,6053
11574,6097
11574,6143
11574,6191
11574,6239
11574,6286
11574,6332
11574,6379
11574,6422
11574,6464
11574,6503
11574,6541
11574,6577
11574,6612
11574,6644
11574,6677
11574,6707
11574,6738
11574,6767
11574,6796
11574,6826
11574,6859
11574,6893
11574,6928
11574,6962
11574,6997
11574,7033
11574,7068
11574,7104
11574,7140
11574,7176
11574,7212
11574,7247
11574,7281
11574,7316
11574,7350
11574,7381
11574,7412
11574,7441
11574,7469
11574,7496
11574,7521
11574,7544
11574,7566
11574,7587
11574,7605
11574,7782
" style="stroke:#000000;stroke-width:8;
stroke-linejoin:bevel; stroke-linecap:butt;
"/>
<!-- Line -->
<polyline points="11007,11078
11005,11078
11000,11078
10990,11078
10975,11078
10954,11078
10927,11078
10894,11078
10857,11078
10816,11078
10773,11078
10728,11078
10682,11078
10637,11078
10593,11078
10550,11078
10509,11078
10469,11078
10432,11078
10396,11078
10363,11078
10330,11078
10300,11078
10270,11078
10241,11078
10213,11078
10185,11078
10157,11078
10124,11078
10092,11078
10058,11078
10026,11078
9991,11078
9958,11078
9923,11078
9888,11078
9854,11078
9819,11078
9785,11078
9752,11078
9718,11078
9687,11078
9656,11078
9627,11078
9598,11078
9572,11078
9548,11078
9525,11078
9503,11078
9484,11078
9465,11078
9307,11078
" style="stroke:#000000;stroke-width:8;
stroke-linejoin:bevel; stroke-linecap:butt;
"/>
<!-- Line -->
<polyline points="11007,10617
11006,10616
11003,10612
10997,10605
10988,10595
10976,10581
10959,10562
10938,10539
10914,10512
10886,10480
10855,10446
10822,10408
10786,10368
10749,10326
10711,10284
10675,10242
10637,10200
10600,10159
10564,10118
10530,10079
10496,10043
10465,10006
10434,9972
10405,9939
10376,9907
10349,9877
10323,9847
10298,9819
10274,9792
10249,9764
10226,9738
10203,9712
10180,9687
10157,9660
10131,9631
10104,9602
10078,9572
10052,9543
10026,9512
9998,9482
9971,9451
9944,9420
9916,9390
9888,9358
9861,9327
9833,9296
9805,9265
9778,9234
9752,9205
9725,9174
9699,9146
9674,9118
9650,9090
9627,9064
9605,9039
9583,9015
9563,8992
9543,8970
9525,8950
9507,8930
9491,8912
9476,8895
9462,8878
9307,8704
" style="stroke:#000000;stroke-width:8;
stroke-linejoin:bevel; stroke-linecap:butt;
"/>
<!-- Line -->
<polyline points="11574,8704
11574,8706
11574,8711
11574,8721
11574,8734
11574,8754
11574,8780
11574,8811
11574,8848
11574,8888
11574,8932
11574,8978
11574,9025
11574,9074
11574,9121
11574,9167
11574,9213
11574,9256
11574,9298
11574,9338
11574,9376
11574,9412
11574,9446
11574,9479
11574,9511
11574,9542
11574,9572
11574,9602
11574,9631
11574,9660
11574,9694
11574,9728
11574,9762
11574,9797
11574,9832
11574,9867
11574,9903
11574,9939
11574,9974
11574,10011
11574,10047
11574,10081
11574,10116
11574,10151
11574,10184
11574,10216
11574,10246
11574,10276
11574,10304
11574,10330
11574,10355
11574,10379
11574,10401
11574,10422
11574,10439
11574,10617
" style="stroke:#000000;stroke-width:8;
stroke-linejoin:bevel; stroke-linecap:butt;
"/>
<!-- Line -->
<polyline points="13842,7782
13841,7781
13838,7777
13832,7771
13823,7760
13811,7746
13794,7728
13773,7704
13749,7677
13720,7646
13690,7611
13656,7573
13620,7533
13584,7491
13546,7449
13509,7407
13471,7365
13435,7324
13399,7283
13364,7245
13331,7208
13299,7171
13269,7138
13239,7104
13211,7072
13184,7042
13158,7013
13132,6984
13108,6957
13084,6930
13061,6903
13038,6877
13015,6852
12992,6826
12965,6796
12939,6767
12913,6738
12887,6708
12860,6678
12833,6647
12806,6617
12779,6585
12750,6555
12723,6523
12696,6492
12667,6461
12640,6430
12613,6400
12586,6370
12560,6340
12534,6311
12509,6283
12485,6256
12461,6229
12439,6204
12417,6180
12397,6157
12377,6135
12360,6115
12342,6095
12326,6077
12310,6060
12297,6044
12141,5869
" style="stroke:#000000;stroke-width:8;
stroke-linejoin:bevel; stroke-linecap:butt;
"/>
<!-- Line -->
<polyline points="12141,8243
12143,8243
12149,8243
12159,8243
12174,8243
12195,8243
12222,8243
12255,8243
12291,8243
12332,8243
12375,8243
12420,8243
12467,8243
12512,8243
12556,8243
12599,8243
12640,8243
12680,8243
12717,8243
12752,8243
12786,8243
12818,8243
12849,8243
12878,8243
12908,8243
12936,8243
12963,8243
12992,8243
13024,8243
13057,8243
13090,8243
13123,8243
13158,8243
13191,8243
13226,8243
13260,8243
13295,8243
13330,8243
13363,8243
13397,8243
13430,8243
13462,8243
13492,8243
13522,8243
13550,8243
13576,8243
13601,8243
13624,8243
13646,8243
13665,8243
13683,8243
13842,8243
" style="stroke:#000000;stroke-width:8;
stroke-linejoin:bevel; stroke-linecap:butt;
"/>
<!-- Line -->
<polyline points="13842,5869
13841,5870
13838,5875
13832,5881
13823,5891
13811,5905
13794,5924
13773,5947
13749,5974
13720,6006
13690,6040
13656,6078
13620,6118
13584,6160
13546,6202
13509,6244
13471,6286
13435,6327
13399,6368
13364,6407
13331,6444
13299,6480
13269,6514
13239,6548
13211,6579
13184,6609
13158,6639
13132,6667
13108,6695
13084,6722
13061,6748
13038,6774
13015,6800
12992,6826
12965,6855
12939,6885
12913,6914
12887,6943
12860,6974
12833,7004
12806,7035
12779,7066
12750,7097
12723,7128
12696,7160
12667,7190
12640,7222
12613,7252
12586,7281
12560,7312
12534,7340
12509,7369
12485,7396
12461,7422
12439,7447
12417,7471
12397,7495
12377,7517
12360,7537
12342,7556
12326,7574
12310,7591
12297,7608
12141,7782
" style="stroke:#000000;stroke-width:8;
stroke-linejoin:bevel; stroke-linecap:butt;
"/>
<!-- Line -->
<polyline points="13842,5408
13840,5408
13835,5408
13824,5408
13809,5408
13788,5408
13761,5408
13729,5408
13692,5408
13651,5408
13608,5408
13563,5408
13517,5408
13471,5408
13427,5408
13384,5408
13343,5408
13303,5408
13267,5408
13231,5408
13197,5408
13165,5408
13134,5408
13105,5408
13076,5408
13047,5408
13020,5408
12992,5408
12959,5408
12927,5408
12893,5408
12860,5408
12826,5408
12792,5408
12758,5408
12723,5408
12688,5408
12654,5408
12620,5408
12586,5408
12553,5408
12521,5408
12491,5408
12461,5408
12433,5408
12407,5408
12383,5408
12360,5408
12338,5408
12319,5408
12300,5408
12141,5408
" style="stroke:#000000;stroke-width:8;
stroke-linejoin:bevel; stroke-linecap:butt;
"/>
<!-- Line -->
<polyline points="14409,7782
14409,7780
14409,7775
14409,7765
14409,7752
14409,7732
14409,7707
14409,7675
14409,7638
14409,7598
14409,7554
14409,7508
14409,7461
14409,7413
14409,7365
14409,7319
14409,7273
14409,7230
14409,7188
14409,7148
14409,7110
14409,7075
14409,7040
14409,7007
14409,6975
14409,6944
14409,6914
14409,6885
14409,6855
14409,6826
14409,6792
14409,6759
14409,6724
14409,6689
14409,6655
14409,6619
14409,6583
14409,6548
14409,6512
14409,6475
14409,6439
14409,6405
14409,6370
14409,6335
14409,6302
14409,6270
14409,6240
14409,6211
14409,6182
14409,6156
14409,6131
14409,6108
14409,6086
14409,6065
14409,6047
14409,5869
" style="stroke:#000000;stroke-width:8;
stroke-linejoin:bevel; stroke-linecap:butt;
"/>
<!-- Line -->
<polyline points="14976,5408
15259,5408
" style="stroke:#000000;stroke-width:8;
stroke-linejoin:miter; stroke-linecap:butt;
"/>
<!-- Line -->
<polyline points="11007,3035
11006,3036
11003,3040
10997,3046
10988,3057
10976,3070
10959,3089
10938,3112
10914,3140
10886,3171
10855,3206
10822,3244
10786,3283
10749,3325
10711,3367
10675,3409
10637,3451
10600,3492
10564,3533
10530,3572
10496,3609
10465,3646
10434,3679
10405,3713
10376,3744
10349,3775
10323,3804
10298,3833
10274,3860
10249,3887
10226,3913
10203,3940
10180,3965
10157,3991
10131,4020
10104,4050
10078,4079
10052,4109
10026,4139
9998,4170
9971,4200
9944,4232
9916,4262
9888,4293
9861,4325
9833,4355
9805,4387
9778,4417
9752,4447
9725,4477
9699,4506
9674,4534
9650,4561
9627,4587
9605,4613
9583,4637
9563,4660
9543,4682
9525,4702
9507,4722
9491,4740
9476,4756
9462,4773
9307,4948
" style="stroke:#000000;stroke-width:8;
stroke-linejoin:bevel; stroke-linecap:butt;
"/>
<!-- Line -->
<polyline points="13842,4948
13841,4946
13838,4942
13832,4936
13823,4925
13811,4912
13794,4893
13773,4870
13749,4843
13720,4811
13690,4776
13656,4739
13620,4699
13584,4657
13546,4615
13509,4573
13471,4531
13435,4490
13399,4449
13364,4410
13331,4373
13299,4337
13269,4303
13239,4269
13211,4238
13184,4207
13158,4178
13132,4150
13108,4122
13084,4095
13061,4069
13038,4043
13015,4017
12992,3991
12965,3962
12939,3932
12913,3903
12887,3874
12860,3843
12833,3813
12806,3782
12779,3751
12750,3720
12723,3689
12696,3657
12667,3627
12640,3595
12613,3565
12586,3535
12560,3505
12534,3477
12509,3448
12485,3421
12461,3395
12439,3370
12417,3345
12397,3322
12377,3300
12360,3280
12342,3260
12326,3243
12310,3226
12297,3209
12141,3035
" style="stroke:#000000;stroke-width:8;
stroke-linejoin:bevel; stroke-linecap:butt;
"/>
<!-- Line -->
<polyline points="12141,2574
12425,2574
" style="stroke:#000000;stroke-width:8;
stroke-linejoin:miter; stroke-linecap:butt;
"/>
<!-- Line -->
<polyline points="13559,2574
13842,2574
" style="stroke:#000000;stroke-width:8;
stroke-linejoin:miter; stroke-linecap:butt;
"/>
<!-- Line -->
<polyline points="3070,7782
3070,7287
" style="stroke:#000000;stroke-width:8;
stroke-linejoin:miter; stroke-linecap:butt;
"/>
<!-- Line -->
<polyline points="3070,6365
3070,5994
" style="stroke:#000000;stroke-width:8;
stroke-linejoin:miter; stroke-linecap:butt;
"/>
<!-- Arrowhead on XXXpoint 3070 6365 - 3070 5854-->
<polygon points="3102 5996
3070 5870
3039 5996
3102 5996

" style="stroke:#000000;stroke-width:8;
fill:#000000;"/>
<!-- Line -->
<polyline points="3070,4948
3070,4944
3070,4939
3071,4929
3072,4912
3075,4890
3077,4860
3079,4826
3083,4787
3087,4744
3091,4699
3098,4651
3104,4604
3111,4558
3119,4514
3127,4471
3137,4431
3147,4393
3158,4359
3169,4327
3182,4298
3195,4270
3210,4246
3227,4224
3245,4203
3264,4184
3285,4166
3307,4151
3331,4135
3356,4121
3383,4108
3413,4095
3443,4083
3475,4072
3507,4060
3542,4050
3576,4039
3613,4030
3650,4019
3687,4010
3723,4001
3759,3991
3795,3982
3830,3972
3864,3963
3897,3952
3928,3943
3956,3932
3984,3922
4009,3910
4032,3899
4052,3887
4071,3875
4086,3861
4099,3847
4110,3832
4118,3815
4124,3796
4127,3775
4128,3754
4125,3731
4120,3707
4113,3681
4104,3655
4093,3628
4079,3601
4065,3571
4048,3542
4030,3512
4011,3484
3991,3455
3970,3425
3949,3398
3928,3371
3907,3344
3887,3319
3867,3295
3847,3272
3720,3128
" style="stroke:#000000;stroke-width:8;
stroke-linejoin:bevel; stroke-linecap:butt;
"/>
<!-- Arrowhead on XXXpoint 3847 3272 - 3627 3022-->
<polygon points="3744 3108
3638 3035
3697 3149
3744 3108

" style="stroke:#000000;stroke-width:8;
fill:#000000;"/>
<!-- Line -->
<polyline points="3070,3035
3070,3038
3070,3043
3069,3054
3068,3070
3066,3092
3064,3122
3062,3156
3058,3195
3054,3238
3049,3283
3043,3331
3037,3378
3029,3424
3022,3468
3014,3511
3004,3551
2994,3589
2983,3624
2972,3655
2959,3685
2945,3712
2931,3736
2914,3758
2896,3779
2877,3798
2856,3816
2834,3832
2810,3847
2785,3861
2758,3875
2728,3887
2698,3899
2666,3910
2634,3922
2599,3932
2564,3943
2528,3952
2491,3963
2454,3972
2417,3982
2382,3991
2346,4001
2310,4010
2277,4019
2244,4030
2213,4039
2184,4050
2157,4060
2132,4072
2109,4083
2089,4095
2070,4108
2055,4121
2041,4135
2031,4151
2023,4167
2016,4186
2014,4207
2013,4228
2015,4251
2020,4276
2028,4301
2036,4327
2048,4354
2061,4382
2076,4411
2093,4440
2111,4470
2130,4498
2150,4528
2171,4557
2192,4584
2213,4612
2234,4638
2254,4663
2274,4687
2293,4710
2419,4853
" style="stroke:#000000;stroke-width:8;
stroke-linejoin:bevel; stroke-linecap:butt;
"/>
<!-- Arrowhead on XXXpoint 2293 4710 - 2513 4959-->
<polygon points="2394 4872
2501 4946
2441 4831
2394 4872

" style="stroke:#000000;stroke-width:8;
fill:#000000;"/>
<!-- Line -->
<polyline points="2503,5869
2501,5871
2498,5876
2492,5883
2481,5895
2468,5911
2449,5933
2426,5961
2400,5992
2370,6028
2337,6067
2302,6109
2266,6152
2229,6197
2193,6242
2157,6286
2122,6330
2089,6372
2057,6413
2027,6453
2000,6491
1973,6527
1948,6561
1926,6595
1905,6626
1885,6657
1867,6686
1850,6714
1835,6743
1821,6771
1807,6798
1795,6826
1780,6859
1766,6893
1755,6928
1742,6962
1732,6997
1722,7033
1713,7068
1704,7104
1696,7140
1690,7176
1683,7212
1677,7247
1673,7281
1669,7316
1665,7350
1661,7381
1659,7412
1657,7441
1656,7469
1655,7496
1654,7521
1654,7544
1653,7656
" style="stroke:#000000;stroke-width:8;
stroke-linejoin:bevel; stroke-linecap:butt;
"/>
<!-- Arrowhead on XXXpoint 1654 7544 - 1652 7797-->
<polygon points="1620 7653
1652 7780
1683 7654
1620 7653

" style="stroke:#000000;stroke-width:8;
fill:#000000;"/>
<!-- Line -->
<polyline points="2220,8243
2503,8243
" style="stroke:#000000;stroke-width:8;
stroke-linejoin:miter; stroke-linecap:butt;
"/>
<!-- Line -->
<polyline points="14409,11539
14409,11541
14409,11546
14409,11555
14409,11569
14409,11589
14409,11614
14409,11646
14409,11682
14409,11722
14409,11766
14409,11813
14409,11860
14409,11908
14409,11955
14409,12002
14409,12048
14409,12091
14409,12133
14409,12173
14409,12211
14409,12246
14409,12281
14409,12313
14409,12346
14409,12376
14409,12407
14409,12436
14409,12466
14409,12495
14409,12529
14409,12562
14409,12597
14409,12632
14409,12666
14409,12702
14409,12738
14409,12773
14409,12809
14409,12846
14409,12881
14409,12916
14409,12951
14409,12985
14409,13019
14409,13050
14409,13081
14409,13110
14409,13139
14409,13165
14409,13190
14409,13213
14409,13235
14409,13256
14409,13274
14409,13451
" style="stroke:#000000;stroke-width:8;
stroke-linejoin:bevel; stroke-linecap:butt;
"/>
<!-- Text -->
<text xml:space="preserve" x="9732" y="13434" stroke="#000000" fill="#000000" font-family="Times" font-style="normal" font-weight="normal" font-size="76" text-anchor="middle">U/D</text>
<!-- Text -->
<text xml:space="preserve" x="8740" y="14621" stroke="#000000" fill="#000000" font-family="Times" font-style="normal" font-weight="normal" font-size="76" text-anchor="middle">U/D</text>
<!-- Text -->
<text xml:space="preserve" x="8740" y="7534" stroke="#000000" fill="#000000" font-family="Times" font-style="normal" font-weight="normal" font-size="76" text-anchor="middle">U/D</text>
<!-- Text -->
<text xml:space="preserve" x="9732" y="5887" stroke="#000000" fill="#000000" font-family="Times" font-style="normal" font-weight="normal" font-size="76" text-anchor="middle">U/D</text>
<!-- Text -->
<text xml:space="preserve" x="2078" y="6347" stroke="#000000" fill="#000000" font-family="Times" font-style="normal" font-weight="normal" font-size="76" text-anchor="middle">U/D</text>
<!-- Line: box -->
<rect x="13842" y="13451" width="1133" height="921" rx="0" 
style="stroke:#000000;stroke-width:8;
stroke-linejoin:miter; stroke-linecap:butt;
fill:#bdbdbd;
"/>
<!-- Line: box -->
<rect x="13842" y="10617" width="1133" height="921" rx="0" 
style="stroke:#000000;stroke-width:8;
stroke-linejoin:miter; stroke-linecap:butt;
fill:#ffffff;
"/>
<!-- Line: box -->
<rect x="1086" y="7782" width="1133" height="921" rx="0" 
style="stroke:#000000;stroke-width:8;
stroke-linejoin:miter; stroke-linecap:butt;
fill:#ffffff;
"/>
<!-- Line: box -->
<rect x="2503" y="2113" width="1133" height="921" rx="0" 
style="stroke:#000000;stroke-width:8;
stroke-linejoin:miter; stroke-linecap:butt;
fill:#bdbdbd;
"/>
<!-- Line: box -->
<rect x="2503" y="4948" width="1133" height="921" rx="0" 
style="stroke:#000000;stroke-width:8;
stroke-linejoin:miter; stroke-linecap:butt;
fill:#ffffff;
"/>
<!-- Line: box -->
<rect x="2503" y="6365" width="1133" height="921" rx="0" 
style="stroke:#000000;stroke-width:8;
stroke-linejoin:miter; stroke-linecap:butt;
fill:#ffffff;
"/>
<!-- Line: box -->
<rect x="13842" y="2113" width="1133" height="921" rx="0" 
style="stroke:#000000;stroke-width:8;
stroke-linejoin:miter; stroke-linecap:butt;
fill:#bdbdbd;
"/>
<!-- Line: box -->
<rect x="12425" y="2113" width="1133" height="921" rx="0" 
style="stroke:#000000;stroke-width:8;
stroke-linejoin:miter; stroke-linecap:butt;
fill:#ffffff;
"/>
<!-- Line: box -->
<rect x="11007" y="2113" width="1132" height="921" rx="0" 
style="stroke:#000000;stroke-width:8;
stroke-linejoin:miter; stroke-linecap:butt;
fill:#ffffff;
"/>
<!-- Line: box -->
<rect x="15259" y="4948" width="1133" height="921" rx="0" 
style="stroke:#000000;stroke-width:8;
stroke-linejoin:miter; stroke-linecap:butt;
fill:#ffffff;
"/>
<!-- Line: box -->
<rect x="13842" y="4948" width="1133" height="921" rx="0" 
style="stroke:#000000;stroke-width:8;
stroke-linejoin:miter; stroke-linecap:butt;
fill:#ffffff;
"/>
<!-- Line: box -->
<rect x="13842" y="7782" width="1133" height="921" rx="0" 
style="stroke:#000000;stroke-width:8;
stroke-linejoin:miter; stroke-linecap:butt;
fill:#bdbdbd;
"/>
<!-- Line: box -->
<rect x="11007" y="10617" width="1132" height="921" rx="0" 
style="stroke:#000000;stroke-width:8;
stroke-linejoin:miter; stroke-linecap:butt;
fill:#ffffff;
"/>
<!-- Line: box -->
<rect x="11007" y="7782" width="1132" height="921" rx="0" 
style="stroke:#000000;stroke-width:8;
stroke-linejoin:miter; stroke-linecap:butt;
fill:#ffffff;
"/>
<!-- Line: box -->
<rect x="11007" y="4948" width="1132" height="921" rx="0" 
style="stroke:#000000;stroke-width:8;
stroke-linejoin:miter; stroke-linecap:butt;
fill:#ffffff;
"/>
<!-- Line: box -->
<rect x="5337" y="2113" width="1133" height="921" rx="0" 
style="stroke:#000000;stroke-width:8;
stroke-linejoin:miter; stroke-linecap:butt;
fill:#ffffff;
"/>
<!-- Line: box -->
<rect x="5337" y="10617" width="1133" height="921" rx="0" 
style="stroke:#000000;stroke-width:8;
stroke-linejoin:miter; stroke-linecap:butt;
fill:#ffffff;
"/>
<!-- Line: box -->
<rect x="11007" y="3530" width="1132" height="921" rx="0" 
style="stroke:#000000;stroke-width:8;
stroke-linejoin:miter; stroke-linecap:butt;
fill:#ffffff;
"/>
<!-- Line: box -->
<rect x="8172" y="6365" width="1133" height="921" rx="0" 
style="stroke:#000000;stroke-width:8;
stroke-linejoin:miter; stroke-linecap:butt;
fill:#ffffff;
"/>
<!-- Line: box -->
<rect x="8172" y="7782" width="1133" height="921" rx="0" 
style="stroke:#000000;stroke-width:8;
stroke-linejoin:miter; stroke-linecap:butt;
fill:#ffffff;
"/>
<!-- Line: box -->
<rect x="8172" y="14869" width="1133" height="921" rx="0" 
style="stroke:#000000;stroke-width:8;
stroke-linejoin:miter; stroke-linecap:butt;
fill:#ffffff;
"/>
<!-- Line: box -->
<rect x="9590" y="14869" width="1132" height="921" rx="0" 
style="stroke:#000000;stroke-width:8;
stroke-linejoin:miter; stroke-linecap:butt;
fill:#ffffff;
"/>
<!-- Line: box -->
<rect x="8172" y="12034" width="1133" height="921" rx="0" 
style="stroke:#000000;stroke-width:8;
stroke-linejoin:miter; stroke-linecap:butt;
fill:#ffffff;
"/>
<!-- Line: box -->
<rect x="5337" y="13451" width="1133" height="921" rx="0" 
style="stroke:#000000;stroke-width:8;
stroke-linejoin:miter; stroke-linecap:butt;
fill:#ffffff;
"/>
<!-- Line: box -->
<rect x="8172" y="13451" width="1133" height="921" rx="0" 
style="stroke:#000000;stroke-width:8;
stroke-linejoin:miter; stroke-linecap:butt;
fill:#ffffff;
"/>
<!-- Line: box -->
<rect x="11007" y="13451" width="1132" height="921" rx="0" 
style="stroke:#000000;stroke-width:8;
stroke-linejoin:miter; stroke-linecap:butt;
fill:#ffffff;
"/>
<!-- Line: box -->
<rect x="8172" y="10617" width="1133" height="921" rx="0" 
style="stroke:#000000;stroke-width:8;
stroke-linejoin:miter; stroke-linecap:butt;
fill:#ffffff;
"/>
<!-- Line: box -->
<rect x="8172" y="2113" width="1133" height="921" rx="0" 
style="stroke:#000000;stroke-width:8;
stroke-linejoin:miter; stroke-linecap:butt;
fill:#bdbdbd;
"/>
<!-- Line: box -->
<rect x="8172" y="4948" width="1133" height="921" rx="0" 
style="stroke:#000000;stroke-width:8;
stroke-linejoin:miter; stroke-linecap:butt;
fill:#ffffff;
"/>
<!-- Line: box -->
<rect x="5337" y="4948" width="1133" height="921" rx="0" 
style="stroke:#000000;stroke-width:8;
stroke-linejoin:miter; stroke-linecap:butt;
fill:#ffffff;
"/>
<!-- Line: box -->
<rect x="2503" y="7782" width="1133" height="921" rx="0" 
style="stroke:#000000;stroke-width:8;
stroke-linejoin:miter; stroke-linecap:butt;
fill:#bdbdbd;
"/>
<!-- Line: box -->
<rect x="5337" y="7782" width="1133" height="921" rx="0" 
style="stroke:#000000;stroke-width:8;
stroke-linejoin:miter; stroke-linecap:butt;
fill:#ffffff;
"/>
<!-- Line: box -->
<rect x="2503" y="10617" width="1133" height="921" rx="0" 
style="stroke:#000000;stroke-width:8;
stroke-linejoin:miter; stroke-linecap:butt;
fill:#ffffff;
"/>
<!-- Line: box -->
<rect x="2503" y="13451" width="1133" height="921" rx="0" 
style="stroke:#000000;stroke-width:8;
stroke-linejoin:miter; stroke-linecap:butt;
fill:#bdbdbd;
"/>
<!-- Text -->
<text xml:space="preserve" x="14414" y="13736" stroke="#000000" fill="#000000" font-family="Times" font-style="normal" font-weight="bold" font-size="126" text-anchor="middle">Islet</text>
<!-- Text -->
<text xml:space="preserve" x="14414" y="14148" stroke="#000000" fill="#000000" font-family="Times" font-style="italic" font-weight="normal" font-size="76" text-anchor="middle">Alpha Toadstool</text>
<!-- Text -->
<text xml:space="preserve" x="14414" y="11123" stroke="#000000" fill="#000000" font-family="Times" font-style="normal" font-weight="bold" font-size="126" text-anchor="middle">Sand Bar</text>
<!-- Text -->
<text xml:space="preserve" x="1658" y="8288" stroke="#000000" fill="#000000" font-family="Times" font-style="normal" font-weight="bold" font-size="126" text-anchor="middle">Ice Cavern</text>
<!-- Text -->
<text xml:space="preserve" x="3076" y="2397" stroke="#000000" fill="#000000" font-family="Times" font-style="normal" font-weight="bold" font-size="126" text-anchor="middle">Ossuary</text>
<!-- Text -->
<text xml:space="preserve" x="3076" y="2756" stroke="#000000" fill="#000000" font-family="Times" font-style="italic" font-weight="normal" font-size="76" text-anchor="middle">Pluto Toadstool, Human</text>
<!-- Text -->
<text xml:space="preserve" x="3076" y="2861" stroke="#000000" fill="#000000" font-family="Times" font-style="italic" font-weight="normal" font-size="76" text-anchor="middle">Bones</text>
<!-- Text -->
<text xml:space="preserve" x="3076" y="5232" stroke="#000000" fill="#000000" font-family="Times" font-style="normal" font-weight="bold" font-size="126" text-anchor="middle">Barrow</text>
<!-- Text -->
<text xml:space="preserve" x="3076" y="5644" stroke="#000000" fill="#000000" font-family="Times" font-style="italic" font-weight="normal" font-size="76" text-anchor="middle">Barrow Wight</text>
<!-- Text -->
<text xml:space="preserve" x="3076" y="6649" stroke="#000000" fill="#000000" font-family="Times" font-style="normal" font-weight="bold" font-size="126" text-anchor="middle">Cemetery</text>
<!-- Text -->
<text xml:space="preserve" x="3076" y="7061" stroke="#000000" fill="#000000" font-family="Times" font-style="italic" font-weight="normal" font-size="76" text-anchor="middle">Crypt</text>
<!-- Text -->
<text xml:space="preserve" x="14414" y="2397" stroke="#000000" fill="#000000" font-family="Times" font-style="normal" font-weight="bold" font-size="126" text-anchor="middle">Herb Garden</text>
<!-- Text -->
<text xml:space="preserve" x="14414" y="2756" stroke="#000000" fill="#000000" font-family="Times" font-style="italic" font-weight="normal" font-size="76" text-anchor="middle">Refuse, Libra</text>
<!-- Text -->
<text xml:space="preserve" x="14414" y="2861" stroke="#000000" fill="#000000" font-family="Times" font-style="italic" font-weight="normal" font-size="76" text-anchor="middle">Toadstool</text>
<!-- Text -->
<text xml:space="preserve" x="12997" y="2397" stroke="#000000" fill="#000000" font-family="Times" font-style="normal" font-weight="bold" font-size="126" text-anchor="middle">Cottage</text>
<!-- Text -->
<text xml:space="preserve" x="12997" y="2756" stroke="#000000" fill="#000000" font-family="Times" font-style="italic" font-weight="normal" font-size="76" text-anchor="middle">Cauldron, Map, Book,</text>
<!-- Text -->
<text xml:space="preserve" x="12997" y="2861" stroke="#000000" fill="#000000" font-family="Times" font-style="italic" font-weight="normal" font-size="76" text-anchor="middle">Birdcage, Magpie</text>
<!-- Text -->
<text xml:space="preserve" x="11580" y="2619" stroke="#000000" fill="#000000" font-family="Times" font-style="normal" font-weight="bold" font-size="126" text-anchor="middle">Bluff</text>
<!-- Text -->
<text xml:space="preserve" x="15832" y="5232" stroke="#000000" fill="#000000" font-family="Times" font-style="normal" font-weight="bold" font-size="126" text-anchor="middle">Crater</text>
<!-- Text -->
<text xml:space="preserve" x="15832" y="5644" stroke="#000000" fill="#000000" font-family="Times" font-style="italic" font-weight="normal" font-size="76" text-anchor="middle">Metal Lump</text>
<!-- Text -->
<text xml:space="preserve" x="14414" y="5454" stroke="#000000" fill="#000000" font-family="Times" font-style="normal" font-weight="bold" font-size="126" text-anchor="middle">Crater's Edge</text>
<!-- Text -->
<text xml:space="preserve" x="14414" y="8067" stroke="#000000" fill="#000000" font-family="Times" font-style="normal" font-weight="bold" font-size="126" text-anchor="middle">Moor</text>
<!-- Text -->
<text xml:space="preserve" x="14414" y="8478" stroke="#000000" fill="#000000" font-family="Times" font-style="italic" font-weight="normal" font-size="76" text-anchor="middle">Mars Toadstool</text>
<!-- Text -->
<text xml:space="preserve" x="11580" y="10901" stroke="#000000" fill="#000000" font-family="Times" font-style="normal" font-weight="bold" font-size="126" text-anchor="middle">The River</text>
<!-- Text -->
<text xml:space="preserve" x="11580" y="11313" stroke="#000000" fill="#000000" font-family="Times" font-style="italic" font-weight="normal" font-size="76" text-anchor="middle">Dory</text>
<!-- Text -->
<text xml:space="preserve" x="11580" y="8288" stroke="#000000" fill="#000000" font-family="Times" font-style="normal" font-weight="bold" font-size="126" text-anchor="middle">The Bend</text>
<!-- Text -->
<text xml:space="preserve" x="11580" y="5232" stroke="#000000" fill="#000000" font-family="Times" font-style="normal" font-weight="bold" font-size="126" text-anchor="middle">Under Cliff</text>
<!-- Text -->
<text xml:space="preserve" x="11580" y="5644" stroke="#000000" fill="#000000" font-family="Times" font-style="italic" font-weight="normal" font-size="76" text-anchor="middle">Beehive</text>
<!-- Text -->
<text xml:space="preserve" x="5910" y="2397" stroke="#000000" fill="#000000" font-family="Times" font-style="normal" font-weight="bold" font-size="126" text-anchor="middle">Promontory</text>
<!-- Text -->
<text xml:space="preserve" x="5910" y="2809" stroke="#000000" fill="#000000" font-family="Times" font-style="italic" font-weight="normal" font-size="76" text-anchor="middle">Bubble Boy, Dish</text>
<!-- Text -->
<text xml:space="preserve" x="5910" y="11036" stroke="#000000" fill="#000000" font-family="Times" font-style="normal" font-weight="bold" font-size="126" text-anchor="middle">Forest</text>
<!-- Text -->
<text xml:space="preserve" x="5910" y="11210" stroke="#000000" fill="#000000" font-family="Times" font-style="normal" font-weight="bold" font-size="126" text-anchor="middle">Clearing</text>
<!-- Text -->
<text xml:space="preserve" x="11580" y="3815" stroke="#000000" fill="#000000" font-family="Times" font-style="normal" font-weight="bold" font-size="126" text-anchor="middle">Vertex</text>
<!-- Text -->
<text xml:space="preserve" x="11580" y="4174" stroke="#000000" fill="#000000" font-family="Times" font-style="italic" font-weight="normal" font-size="76" text-anchor="middle">Sundial, Toadstool</text>
<!-- Text -->
<text xml:space="preserve" x="11580" y="4279" stroke="#000000" fill="#000000" font-family="Times" font-style="italic" font-weight="normal" font-size="76" text-anchor="middle">Door</text>
<!-- Text -->
<text xml:space="preserve" x="8745" y="6871" stroke="#000000" fill="#000000" font-family="Times" font-style="normal" font-weight="bold" font-size="126" text-anchor="middle">Halfway Up</text>
<!-- Text -->
<text xml:space="preserve" x="8745" y="8201" stroke="#000000" fill="#000000" font-family="Times" font-style="normal" font-weight="bold" font-size="126" text-anchor="middle">Bottom of</text>
<!-- Text -->
<text xml:space="preserve" x="8745" y="8375" stroke="#000000" fill="#000000" font-family="Times" font-style="normal" font-weight="bold" font-size="126" text-anchor="middle">Stairs</text>
<!-- Text -->
<text xml:space="preserve" x="8745" y="15375" stroke="#000000" fill="#000000" font-family="Times" font-style="normal" font-weight="bold" font-size="126" text-anchor="middle">South Arbor</text>
<!-- Text -->
<text xml:space="preserve" x="10162" y="15153" stroke="#000000" fill="#000000" font-family="Times" font-style="normal" font-weight="bold" font-size="126" text-anchor="middle">Top of Arbor</text>
<!-- Text -->
<text xml:space="preserve" x="10162" y="15565" stroke="#000000" fill="#000000" font-family="Times" font-style="italic" font-weight="normal" font-size="76" text-anchor="middle">Silver Axe</text>
<!-- Text -->
<text xml:space="preserve" x="8745" y="12540" stroke="#000000" fill="#000000" font-family="Times" font-style="normal" font-weight="bold" font-size="126" text-anchor="middle">North Arbor</text>
<!-- Text -->
<text xml:space="preserve" x="5910" y="13958" stroke="#000000" fill="#000000" font-family="Times" font-style="normal" font-weight="bold" font-size="126" text-anchor="middle">Arborvitaes</text>
<!-- Text -->
<text xml:space="preserve" x="8745" y="13736" stroke="#000000" fill="#000000" font-family="Times" font-style="normal" font-weight="bold" font-size="126" text-anchor="middle">Arboretum</text>
<!-- Text -->
<text xml:space="preserve" x="8745" y="14148" stroke="#000000" fill="#000000" font-family="Times" font-style="italic" font-weight="normal" font-size="76" text-anchor="middle">Sparkling Sculpture</text>
<!-- Text -->
<text xml:space="preserve" x="11580" y="13958" stroke="#000000" fill="#000000" font-family="Times" font-style="normal" font-weight="bold" font-size="126" text-anchor="middle">Arborvitaes</text>
<!-- Text -->
<text xml:space="preserve" x="8745" y="11123" stroke="#000000" fill="#000000" font-family="Times" font-style="normal" font-weight="bold" font-size="126" text-anchor="middle">Trellises</text>
<!-- Text -->
<text xml:space="preserve" x="8745" y="2397" stroke="#000000" fill="#000000" font-family="Times" font-style="normal" font-weight="bold" font-size="126" text-anchor="middle">Mesa</text>
<!-- Text -->
<text xml:space="preserve" x="8745" y="2809" stroke="#000000" fill="#000000" font-family="Times" font-style="italic" font-weight="normal" font-size="76" text-anchor="middle">Neptune Toadstool</text>
<!-- Text -->
<text xml:space="preserve" x="8745" y="5232" stroke="#000000" fill="#000000" font-family="Times" font-style="normal" font-weight="bold" font-size="126" text-anchor="middle">Chasm's Brink</text>
<!-- Text -->
<text xml:space="preserve" x="8745" y="5644" stroke="#000000" fill="#000000" font-family="Times" font-style="italic" font-weight="normal" font-size="76" text-anchor="middle">Oak Tree</text>
<!-- Text -->
<text xml:space="preserve" x="5910" y="5232" stroke="#000000" fill="#000000" font-family="Times" font-style="normal" font-weight="bold" font-size="126" text-anchor="middle">North Bog</text>
<!-- Text -->
<text xml:space="preserve" x="5910" y="5644" stroke="#000000" fill="#000000" font-family="Times" font-style="italic" font-weight="normal" font-size="76" text-anchor="middle">Venus Fly Trap</text>
<!-- Text -->
<text xml:space="preserve" x="3076" y="8067" stroke="#000000" fill="#000000" font-family="Times" font-style="normal" font-weight="bold" font-size="126" text-anchor="middle">Waterfall</text>
<!-- Text -->
<text xml:space="preserve" x="3076" y="8478" stroke="#000000" fill="#000000" font-family="Times" font-style="italic" font-weight="normal" font-size="76" text-anchor="middle">Mercury Toadstool</text>
<!-- Text -->
<text xml:space="preserve" x="5910" y="8067" stroke="#000000" fill="#000000" font-family="Times" font-style="normal" font-weight="bold" font-size="126" text-anchor="middle">South Bog</text>
<!-- Text -->
<text xml:space="preserve" x="5910" y="8478" stroke="#000000" fill="#000000" font-family="Times" font-style="italic" font-weight="normal" font-size="76" text-anchor="middle">Splintered Log</text>
<!-- Text -->
<text xml:space="preserve" x="3076" y="11123" stroke="#000000" fill="#000000" font-family="Times" font-style="normal" font-weight="bold" font-size="126" text-anchor="middle">Summit</text>
<!-- Text -->
<text xml:space="preserve" x="3076" y="13736" stroke="#000000" fill="#000000" font-family="Times" font-style="normal" font-weight="bold" font-size="126" text-anchor="middle">Meadow (1)</text>
<!-- Text -->
<text xml:space="preserve" x="3076" y="14148" stroke="#000000" fill="#000000" font-family="Times" font-style="italic" font-weight="normal" font-size="76" text-anchor="middle">Omega Toadstool</text>
</g>
</svg>
