<?xml version="1.0" standalone="no"?>
<!DOCTYPE svg PUBLIC "-//W3C//DTD SVG 1.1//EN"
"http://www.w3.org/Graphics/SVG/1.1/DTD/svg11.dtd">
<!-- Creator: fig2dev Version 3.2 Patchlevel 5 -->
<!-- CreationDate: Thu Sep 13 11:24:06 2018 -->
<!-- Magnification: 1.050 -->
<svg xmlns="http://www.w3.org/2000/svg" width="16.4in" height="10.4in" viewBox="974 1927 19683 12529">
<g style="stroke-width:.025in; stroke:black; fill:none">
<!-- Line: box -->
<rect x="19440" y="6436" width="1133" height="920" rx="0" 
style="stroke:#7e7e7e;stroke-width:8;
stroke-linejoin:miter; stroke-linecap:butt;
fill:#7e7e7e;
"/>
<!-- Line: box -->
<rect x="19440" y="9271" width="1133" height="920" rx="0" 
style="stroke:#7e7e7e;stroke-width:8;
stroke-linejoin:miter; stroke-linecap:butt;
fill:#7e7e7e;
"/>
<!-- Line: box -->
<rect x="16605" y="5019" width="1133" height="920" rx="0" 
style="stroke:#7e7e7e;stroke-width:8;
stroke-linejoin:miter; stroke-linecap:butt;
fill:#7e7e7e;
"/>
<!-- Line: box -->
<rect x="16605" y="7854" width="1133" height="920" rx="0" 
style="stroke:#7e7e7e;stroke-width:8;
stroke-linejoin:miter; stroke-linecap:butt;
fill:#7e7e7e;
"/>
<!-- Line: box -->
<rect x="16605" y="10688" width="1133" height="920" rx="0" 
style="stroke:#7e7e7e;stroke-width:8;
stroke-linejoin:miter; stroke-linecap:butt;
fill:#7e7e7e;
"/>
<!-- Line: box -->
<rect x="16605" y="2184" width="1133" height="920" rx="0" 
style="stroke:#7e7e7e;stroke-width:8;
stroke-linejoin:miter; stroke-linecap:butt;
fill:#7e7e7e;
"/>
<!-- Line: box -->
<rect x="16605" y="13523" width="1133" height="920" rx="0" 
style="stroke:#7e7e7e;stroke-width:8;
stroke-linejoin:miter; stroke-linecap:butt;
fill:#7e7e7e;
"/>
<!-- Line: box -->
<rect x="13771" y="13523" width="1133" height="920" rx="0" 
style="stroke:#7e7e7e;stroke-width:8;
stroke-linejoin:miter; stroke-linecap:butt;
fill:#7e7e7e;
"/>
<!-- Line: box -->
<rect x="13771" y="2184" width="1133" height="920" rx="0" 
style="stroke:#7e7e7e;stroke-width:8;
stroke-linejoin:miter; stroke-linecap:butt;
fill:#7e7e7e;
"/>
<!-- Line: box -->
<rect x="13771" y="7854" width="1133" height="920" rx="0" 
style="stroke:#7e7e7e;stroke-width:8;
stroke-linejoin:miter; stroke-linecap:butt;
fill:#7e7e7e;
"/>
<!-- Line: box -->
<rect x="10936" y="5019" width="1133" height="920" rx="0" 
style="stroke:#7e7e7e;stroke-width:8;
stroke-linejoin:miter; stroke-linecap:butt;
fill:#7e7e7e;
"/>
<!-- Line: box -->
<rect x="10936" y="10688" width="1133" height="920" rx="0" 
style="stroke:#7e7e7e;stroke-width:8;
stroke-linejoin:miter; stroke-linecap:butt;
fill:#7e7e7e;
"/>
<!-- Line: box -->
<rect x="10936" y="7854" width="1133" height="920" rx="0" 
style="stroke:#7e7e7e;stroke-width:8;
stroke-linejoin:miter; stroke-linecap:butt;
fill:#7e7e7e;
"/>
<!-- Line: box -->
<rect x="8101" y="9271" width="1133" height="920" rx="0" 
style="stroke:#7e7e7e;stroke-width:8;
stroke-linejoin:miter; stroke-linecap:butt;
fill:#7e7e7e;
"/>
<!-- Line: box -->
<rect x="8101" y="3602" width="1133" height="920" rx="0" 
style="stroke:#7e7e7e;stroke-width:8;
stroke-linejoin:miter; stroke-linecap:butt;
fill:#7e7e7e;
"/>
<!-- Line: box -->
<rect x="8101" y="6436" width="1133" height="920" rx="0" 
style="stroke:#7e7e7e;stroke-width:8;
stroke-linejoin:miter; stroke-linecap:butt;
fill:#7e7e7e;
"/>
<!-- Line: box -->
<rect x="6684" y="5019" width="1133" height="920" rx="0" 
style="stroke:#7e7e7e;stroke-width:8;
stroke-linejoin:miter; stroke-linecap:butt;
fill:#7e7e7e;
"/>
<!-- Line: box -->
<rect x="5267" y="3602" width="1133" height="920" rx="0" 
style="stroke:#7e7e7e;stroke-width:8;
stroke-linejoin:miter; stroke-linecap:butt;
fill:#7e7e7e;
"/>
<!-- Line: box -->
<rect x="5267" y="5019" width="1133" height="920" rx="0" 
style="stroke:#7e7e7e;stroke-width:8;
stroke-linejoin:miter; stroke-linecap:butt;
fill:#7e7e7e;
"/>
<!-- Line: box -->
<rect x="5267" y="6436" width="1133" height="920" rx="0" 
style="stroke:#7e7e7e;stroke-width:8;
stroke-linejoin:miter; stroke-linecap:butt;
fill:#7e7e7e;
"/>
<!-- Line: box -->
<rect x="5267" y="9271" width="1133" height="920" rx="0" 
style="stroke:#7e7e7e;stroke-width:8;
stroke-linejoin:miter; stroke-linecap:butt;
fill:#7e7e7e;
"/>
<!-- Line: box -->
<rect x="2432" y="9271" width="1133" height="920" rx="0" 
style="stroke:#7e7e7e;stroke-width:8;
stroke-linejoin:miter; stroke-linecap:butt;
fill:#7e7e7e;
"/>
<!-- Line: box -->
<rect x="1015" y="13523" width="1133" height="920" rx="0" 
style="stroke:#7e7e7e;stroke-width:8;
stroke-linejoin:miter; stroke-linecap:butt;
fill:#7e7e7e;
"/>
<!-- Line: box -->
<rect x="3849" y="10688" width="1133" height="920" rx="0" 
style="stroke:#7e7e7e;stroke-width:8;
stroke-linejoin:miter; stroke-linecap:butt;
fill:#7e7e7e;
"/>
<!-- Line: box -->
<rect x="3849" y="9271" width="1133" height="920" rx="0" 
style="stroke:#7e7e7e;stroke-width:8;
stroke-linejoin:miter; stroke-linecap:butt;
fill:#7e7e7e;
"/>
<!-- Line: box -->
<rect x="3849" y="5019" width="1133" height="920" rx="0" 
style="stroke:#7e7e7e;stroke-width:8;
stroke-linejoin:miter; stroke-linecap:butt;
fill:#7e7e7e;
"/>
<!-- Line: box -->
<rect x="1015" y="2184" width="1133" height="920" rx="0" 
style="stroke:#7e7e7e;stroke-width:8;
stroke-linejoin:miter; stroke-linecap:butt;
fill:#7e7e7e;
"/>
<!-- Line -->
<polyline points="1086,2113
986,1940
" style="stroke:#000000;stroke-width:8;
stroke-linejoin:miter; stroke-linecap:butt;
"/>
<!-- Line -->
<polyline points="2220,3035
2221,3036
2224,3040
2230,3046
2239,3057
2251,3070
2268,3089
2289,3112
2313,3140
2342,3171
2372,3206
2406,3244
2441,3283
2478,3325
2516,3367
2553,3409
2591,3451
2627,3492
2663,3533
2698,3572
2731,3609
2763,3646
2793,3679
2823,3713
2851,3744
2878,3775
2904,3804
2930,3833
2954,3860
2978,3887
3001,3913
3024,3940
3047,3965
3070,3991
3097,4020
3123,4050
3149,4079
3175,4109
3202,4139
3229,4170
3256,4200
3283,4232
3312,4262
3339,4293
3366,4325
3395,4355
3422,4387
3449,4417
3476,4447
3502,4477
3528,4506
3553,4534
3577,4561
3601,4587
3623,4613
3645,4637
3665,4660
3685,4682
3702,4702
3720,4722
3736,4740
3752,4756
3765,4773
3921,4948
" style="stroke:#000000;stroke-width:8;
stroke-linejoin:bevel; stroke-linecap:butt;
"/>
<!-- Line -->
<polyline points="4488,5869
4488,5871
4488,5877
4488,5886
4488,5901
4488,5921
4488,5947
4488,5979
4488,6016
4488,6057
4488,6102
4488,6151
4488,6200
4488,6249
4488,6300
4488,6348
4488,6396
4488,6443
4488,6487
4488,6530
4488,6572
4488,6612
4488,6649
4488,6687
4488,6724
4488,6760
4488,6795
4488,6831
4488,6867
4488,6902
4488,6935
4488,6967
4488,7001
4488,7035
4488,7069
4488,7104
4488,7141
4488,7177
4488,7214
4488,7253
4488,7292
4488,7331
4488,7372
4488,7412
4488,7453
4488,7493
4488,7534
4488,7575
4488,7616
4488,7657
4488,7697
4488,7738
4488,7777
4488,7816
4488,7855
4488,7891
4488,7928
4488,7965
4488,8000
4488,8034
4488,8068
4488,8101
4488,8134
4488,8166
4488,8205
4488,8243
4488,8281
4488,8320
4488,8358
4488,8395
4488,8433
4488,8471
4488,8508
4488,8545
4488,8582
4488,8618
4488,8654
4488,8688
4488,8723
4488,8755
4488,8787
4488,8817
4488,8846
4488,8873
4488,8899
4488,8923
4488,8946
4488,8967
4488,8987
4488,9006
4488,9024
4488,9200
" style="stroke:#000000;stroke-width:8;
stroke-linejoin:bevel; stroke-linecap:butt;
"/>
<!-- Line -->
<polyline points="4488,10121
4488,10617
" style="stroke:#000000;stroke-width:8;
stroke-linejoin:miter; stroke-linecap:butt;
"/>
<!-- Line -->
<polyline points="1653,13451
1653,13449
1653,13444
1653,13435
1653,13420
1653,13400
1653,13374
1653,13342
1653,13304
1653,13264
1653,13218
1653,13170
1653,13121
1653,13071
1653,13021
1653,12973
1653,12924
1653,12878
1653,12834
1653,12791
1653,12749
1653,12709
1653,12671
1653,12634
1653,12597
1653,12561
1653,12525
1653,12490
1653,12454
1653,12418
1653,12386
1653,12353
1653,12320
1653,12286
1653,12251
1653,12216
1653,12180
1653,12142
1653,12104
1653,12066
1653,12026
1653,11986
1653,11945
1653,11903
1653,11861
1653,11819
1653,11776
1653,11733
1653,11690
1653,11647
1653,11604
1653,11561
1653,11518
1653,11476
1653,11434
1653,11393
1653,11352
1653,11311
1653,11271
1653,11232
1653,11193
1653,11154
1653,11116
1653,11078
1653,11042
1653,11005
1653,10969
1653,10932
1653,10895
1653,10857
1653,10819
1653,10781
1653,10741
1653,10702
1653,10661
1653,10620
1653,10579
1653,10538
1653,10496
1653,10454
1653,10411
1653,10369
1653,10327
1653,10284
1653,10242
1653,10200
1653,10159
1653,10118
1653,10077
1653,10036
1653,9997
1653,9958
1653,9919
1653,9881
1653,9843
1653,9806
1653,9770
1653,9733
1653,9696
1653,9660
1653,9625
1653,9588
1653,9551
1653,9514
1653,9478
1653,9440
1653,9402
1653,9363
1653,9323
1653,9285
1653,9244
1653,9203
1653,9162
1653,9121
1653,9079
1653,9037
1653,8994
1653,8952
1653,8910
1653,8867
1653,8825
1653,8783
1653,8742
1653,8701
1653,8660
1653,8619
1653,8580
1653,8540
1653,8501
1653,8464
1653,8426
1653,8389
1653,8352
1653,8316
1653,8279
1653,8243
1653,8207
1653,8171
1653,8134
1653,8097
1653,8060
1653,8023
1653,7985
1653,7946
1653,7906
1653,7867
1653,7826
1653,7785
1653,7744
1653,7703
1653,7661
1653,7619
1653,7576
1653,7534
1653,7492
1653,7449
1653,7407
1653,7365
1653,7324
1653,7283
1653,7243
1653,7202
1653,7163
1653,7123
1653,7084
1653,7046
1653,7008
1653,6972
1653,6935
1653,6898
1653,6861
1653,6826
1653,6790
1653,6753
1653,6717
1653,6680
1653,6643
1653,6605
1653,6567
1653,6529
1653,6489
1653,6450
1653,6409
1653,6368
1653,6327
1653,6286
1653,6244
1653,6202
1653,6159
1653,6117
1653,6075
1653,6032
1653,5990
1653,5948
1653,5907
1653,5866
1653,5825
1653,5784
1653,5745
1653,5706
1653,5667
1653,5629
1653,5591
1653,5554
1653,5518
1653,5481
1653,5444
1653,5408
1653,5371
1653,5332
1653,5293
1653,5254
1653,5215
1653,5175
1653,5134
1653,5093
1653,5053
1653,5011
1653,4969
1653,4925
1653,4882
1653,4839
1653,4796
1653,4753
1653,4710
1653,4667
1653,4625
1653,4583
1653,4541
1653,4500
1653,4460
1653,4420
1653,4382
1653,4344
1653,4306
1653,4270
1653,4235
1653,4200
1653,4166
1653,4133
1653,4100
1653,4068
1653,4029
1653,3991
1653,3953
1653,3914
1653,3877
1653,3839
1653,3801
1653,3763
1653,3727
1653,3689
1653,3652
1653,3616
1653,3581
1653,3546
1653,3511
1653,3479
1653,3447
1653,3417
1653,3388
1653,3361
1653,3335
1653,3311
1653,3288
1653,3267
1653,3247
1653,3228
1653,3210
1653,3035
" style="stroke:#000000;stroke-width:8;
stroke-linejoin:bevel; stroke-linecap:butt;
"/>
<!-- Line -->
<polyline points="3921,11539
3920,11540
3917,11544
3910,11550
3902,11561
3889,11574
3872,11593
3851,11616
3827,11644
3799,11675
3769,11710
3735,11748
3699,11787
3662,11829
3625,11871
3588,11913
3550,11955
3513,11996
3478,12037
3443,12076
3409,12113
3378,12150
3348,12183
3318,12217
3290,12248
3262,12279
3236,12308
3211,12337
3187,12364
3163,12391
3140,12417
3117,12444
3093,12469
3070,12495
3044,12524
3018,12554
2992,12583
2965,12613
2939,12643
2912,12674
2885,12704
2857,12735
2829,12766
2802,12797
2774,12829
2746,12859
2719,12891
2691,12921
2665,12951
2639,12981
2613,13009
2587,13038
2563,13065
2540,13091
2518,13117
2496,13141
2476,13164
2456,13186
2438,13206
2420,13226
2405,13244
2389,13260
2375,13277
2220,13451
" style="stroke:#000000;stroke-width:8;
stroke-linejoin:bevel; stroke-linecap:butt;
"/>
<!-- Line -->
<polyline points="3921,9660
3637,9660
" style="stroke:#000000;stroke-width:8;
stroke-linejoin:miter; stroke-linecap:butt;
"/>
<!-- Line -->
<polyline points="5055,9660
5338,9660
" style="stroke:#000000;stroke-width:8;
stroke-linejoin:miter; stroke-linecap:butt;
"/>
<!-- Line -->
<polyline points="5905,9200
5905,9197
5905,9192
5905,9183
5905,9169
5905,9149
5905,9124
5905,9092
5905,9056
5905,9016
5905,8972
5905,8925
5905,8878
5905,8830
5905,8783
5905,8737
5905,8690
5905,8647
5905,8605
5905,8565
5905,8528
5905,8492
5905,8457
5905,8425
5905,8392
5905,8362
5905,8331
5905,8302
5905,8272
5905,8243
5905,8209
5905,8176
5905,8141
5905,8107
5905,8072
5905,8036
5905,8001
5905,7965
5905,7929
5905,7892
5905,7857
5905,7822
5905,7787
5905,7753
5905,7719
5905,7688
5905,7657
5905,7628
5905,7600
5905,7573
5905,7548
5905,7525
5905,7503
5905,7482
5905,7464
5905,7287
" style="stroke:#000000;stroke-width:8;
stroke-linejoin:bevel; stroke-linecap:butt;
"/>
<!-- Line -->
<polyline points="5338,5408
5055,5408
" style="stroke:#000000;stroke-width:8;
stroke-linejoin:miter; stroke-linecap:butt;
"/>
<!-- Line -->
<polyline points="5905,6365
5905,5869
" style="stroke:#000000;stroke-width:8;
stroke-linejoin:miter; stroke-linecap:butt;
"/>
<!-- Line -->
<polyline points="5905,4948
5905,4452
" style="stroke:#000000;stroke-width:8;
stroke-linejoin:miter; stroke-linecap:butt;
"/>
<!-- Line -->
<polyline points="6472,5408
6755,5408
" style="stroke:#000000;stroke-width:8;
stroke-linejoin:miter; stroke-linecap:butt;
"/>
<!-- Line -->
<polyline points="6472,6826
6474,6826
6479,6826
6490,6826
6504,6826
6525,6826
6553,6826
6585,6826
6622,6826
6663,6826
6706,6826
6751,6826
6797,6826
6843,6826
6887,6826
6930,6826
6971,6826
7011,6826
7047,6826
7083,6826
7117,6826
7149,6826
7180,6826
7209,6826
7238,6826
7267,6826
7294,6826
7322,6826
7355,6826
7387,6826
7420,6826
7454,6826
7487,6826
7522,6826
7556,6826
7591,6826
7626,6826
7659,6826
7694,6826
7728,6826
7760,6826
7792,6826
7822,6826
7851,6826
7880,6826
7906,6826
7930,6826
7953,6826
7975,6826
7995,6826
8013,6826
8172,6826
" style="stroke:#000000;stroke-width:8;
stroke-linejoin:bevel; stroke-linecap:butt;
"/>
<!-- Line -->
<polyline points="8740,6365
8740,6363
8740,6358
8740,6348
8740,6334
8740,6314
8740,6289
8740,6258
8740,6221
8740,6181
8740,6137
8740,6091
8740,6044
8740,5995
8740,5948
8740,5902
8740,5856
8740,5813
8740,5771
8740,5731
8740,5693
8740,5657
8740,5623
8740,5590
8740,5558
8740,5527
8740,5497
8740,5467
8740,5438
8740,5408
8740,5375
8740,5341
8740,5307
8740,5272
8740,5237
8740,5202
8740,5166
8740,5130
8740,5095
8740,5058
8740,5022
8740,4987
8740,4953
8740,4918
8740,4885
8740,4853
8740,4823
8740,4793
8740,4765
8740,4739
8740,4713
8740,4690
8740,4668
8740,4647
8740,4629
8740,4452
" style="stroke:#000000;stroke-width:8;
stroke-linejoin:bevel; stroke-linecap:butt;
"/>
<!-- Line -->
<polyline points="8172,9660
8170,9660
8164,9660
8154,9660
8139,9660
8118,9660
8091,9660
8058,9660
8022,9660
7981,9660
7938,9660
7892,9660
7847,9660
7801,9660
7757,9660
7714,9660
7673,9660
7634,9660
7596,9660
7562,9660
7528,9660
7496,9660
7465,9660
7435,9660
7406,9660
7378,9660
7350,9660
7322,9660
7290,9660
7257,9660
7224,9660
7191,9660
7156,9660
7123,9660
7088,9660
7054,9660
7019,9660
6984,9660
6951,9660
6917,9660
6883,9660
6852,9660
6822,9660
6792,9660
6764,9660
6738,9660
6713,9660
6690,9660
6668,9660
6649,9660
6630,9660
6472,9660
" style="stroke:#000000;stroke-width:8;
stroke-linejoin:bevel; stroke-linecap:butt;
"/>
<!-- Line -->
<polyline points="8740,7287
8740,7289
8740,7294
8740,7303
8740,7317
8740,7337
8740,7362
8740,7394
8740,7430
8740,7470
8740,7514
8740,7561
8740,7608
8740,7656
8740,7703
8740,7750
8740,7796
8740,7839
8740,7881
8740,7921
8740,7959
8740,7994
8740,8029
8740,8061
8740,8094
8740,8124
8740,8155
8740,8184
8740,8214
8740,8243
8740,8277
8740,8310
8740,8345
8740,8380
8740,8414
8740,8450
8740,8486
8740,8521
8740,8557
8740,8594
8740,8629
8740,8664
8740,8699
8740,8733
8740,8767
8740,8798
8740,8829
8740,8858
8740,8887
8740,8913
8740,8938
8740,8961
8740,8983
8740,9004
8740,9022
8740,9200
" style="stroke:#000000;stroke-width:8;
stroke-linejoin:bevel; stroke-linecap:butt;
"/>
<!-- Line -->
<polyline points="9307,6826
9309,6826
9314,6826
9324,6827
9339,6827
9360,6828
9387,6830
9420,6832
9457,6834
9498,6837
9541,6840
9586,6844
9632,6849
9677,6853
9721,6858
9764,6865
9805,6871
9845,6877
9882,6885
9918,6892
9951,6901
9984,6910
10014,6920
10044,6931
10073,6943
10101,6956
10129,6970
10157,6985
10183,7000
10209,7017
10236,7034
10262,7051
10288,7070
10316,7090
10343,7111
10370,7133
10398,7156
10426,7180
10453,7204
10481,7228
10509,7253
10536,7278
10562,7304
10588,7330
10615,7355
10640,7380
10664,7404
10687,7428
10709,7451
10731,7475
10751,7497
10771,7518
10789,7538
10807,7556
10823,7574
10838,7591
10852,7608
11007,7782
" style="stroke:#000000;stroke-width:8;
stroke-linejoin:bevel; stroke-linecap:butt;
"/>
<!-- Line -->
<polyline points="9307,9660
9309,9660
9314,9660
9324,9659
9339,9659
9360,9658
9387,9656
9420,9654
9457,9652
9498,9649
9541,9646
9586,9643
9632,9637
9677,9633
9721,9628
9764,9622
9805,9615
9845,9609
9882,9602
9918,9594
9951,9585
9984,9576
10014,9566
10044,9555
10073,9543
10101,9530
10129,9517
10157,9501
10183,9486
10209,9469
10236,9453
10262,9435
10288,9416
10316,9396
10343,9375
10370,9353
10398,9330
10426,9307
10453,9282
10481,9258
10509,9233
10536,9208
10562,9182
10588,9156
10615,9131
10640,9106
10664,9082
10687,9058
10709,9035
10731,9012
10751,8990
10771,8969
10789,8949
10807,8930
10823,8912
10838,8895
10852,8878
11007,8704
" style="stroke:#000000;stroke-width:8;
stroke-linejoin:bevel; stroke-linecap:butt;
"/>
<!-- Line -->
<polyline points="11007,11078
11005,11078
11001,11078
10993,11078
10979,11078
10961,11078
10938,11078
10910,11078
10876,11078
10838,11078
10797,11078
10755,11078
10710,11078
10665,11078
10620,11078
10576,11078
10533,11078
10491,11078
10450,11078
10411,11078
10372,11078
10337,11078
10301,11078
10266,11078
10232,11078
10198,11078
10164,11078
10131,11078
10097,11078
10062,11078
10032,11078
10001,11078
9968,11078
9935,11078
9902,11078
9867,11078
9833,11078
9796,11078
9759,11078
9721,11078
9682,11078
9643,11078
9603,11078
9562,11078
9520,11078
9478,11078
9436,11078
9393,11078
9350,11078
9307,11078
9265,11078
9222,11078
9180,11078
9138,11078
9096,11078
9055,11078
9014,11078
8973,11078
8933,11078
8894,11078
8855,11078
8816,11078
8777,11078
8740,11078
8704,11078
8667,11078
8630,11078
8594,11078
8557,11078
8519,11078
8481,11078
8443,11078
8403,11078
8364,11078
8323,11078
8282,11078
8241,11078
8200,11078
8158,11078
8116,11078
8073,11078
8031,11078
7989,11078
7946,11078
7904,11078
7862,11078
7821,11078
7780,11078
7739,11078
7698,11078
7659,11078
7619,11078
7581,11078
7543,11078
7505,11078
7468,11078
7432,11078
7395,11078
7358,11078
7322,11078
7285,11078
7246,11078
7207,11078
7168,11078
7129,11078
7089,11078
7048,11078
7007,11078
6966,11078
6924,11078
6882,11078
6840,11078
6797,11078
6755,11078
6712,11078
6669,11078
6626,11078
6584,11078
6542,11078
6500,11078
6459,11078
6419,11078
6380,11078
6341,11078
6303,11078
6266,11078
6229,11078
6195,11078
6160,11078
6127,11078
6094,11078
6061,11078
6030,11078
6000,11078
5960,11078
5921,11078
5882,11078
5843,11078
5805,11078
5767,11078
5730,11078
5692,11078
5654,11078
5618,11078
5582,11078
5547,11078
5512,11078
5480,11078
5447,11078
5417,11078
5388,11078
5360,11078
5335,11078
5311,11078
5288,11078
5267,11078
5247,11078
5229,11078
5212,11078
5055,11078
" style="stroke:#000000;stroke-width:8;
stroke-linejoin:bevel; stroke-linecap:butt;
"/>
<!-- Line -->
<polyline points="11574,8704
11574,8706
11574,8711
11574,8721
11574,8734
11574,8754
11574,8780
11574,8811
11574,8848
11574,8888
11574,8932
11574,8978
11574,9025
11574,9074
11574,9121
11574,9167
11574,9213
11574,9256
11574,9298
11574,9338
11574,9376
11574,9412
11574,9446
11574,9479
11574,9511
11574,9542
11574,9572
11574,9602
11574,9631
11574,9660
11574,9694
11574,9728
11574,9762
11574,9797
11574,9832
11574,9867
11574,9903
11574,9939
11574,9974
11574,10011
11574,10047
11574,10081
11574,10116
11574,10151
11574,10184
11574,10216
11574,10246
11574,10276
11574,10304
11574,10330
11574,10355
11574,10379
11574,10401
11574,10422
11574,10439
11574,10617
" style="stroke:#000000;stroke-width:8;
stroke-linejoin:bevel; stroke-linecap:butt;
"/>
<!-- Line -->
<polyline points="11007,5408
11005,5408
11001,5408
10993,5408
10979,5408
10961,5408
10938,5408
10910,5408
10876,5408
10838,5408
10797,5408
10755,5408
10710,5408
10665,5408
10620,5408
10576,5408
10533,5408
10491,5408
10450,5408
10411,5408
10372,5408
10337,5408
10301,5408
10266,5408
10232,5408
10198,5408
10164,5408
10131,5408
10097,5408
10062,5408
10032,5408
10001,5408
9968,5408
9935,5408
9902,5408
9868,5408
9834,5408
9797,5408
9761,5408
9723,5408
9686,5408
9647,5408
9608,5408
9568,5408
9529,5408
9488,5408
9448,5408
9408,5408
9367,5408
9329,5408
9289,5408
9250,5408
9211,5408
9173,5408
9135,5408
9100,5408
9063,5408
9028,5408
8995,5408
8961,5408
8929,5408
8896,5408
8865,5408
8834,5408
8794,5408
8755,5408
8717,5408
8678,5408
8640,5408
8602,5408
8564,5408
8527,5408
8489,5408
8453,5408
8416,5408
8382,5408
8347,5408
8314,5408
8282,5408
8251,5408
8223,5408
8195,5408
8170,5408
8145,5408
8122,5408
8101,5408
8081,5408
8064,5408
8047,5408
7889,5408
" style="stroke:#000000;stroke-width:8;
stroke-linejoin:bevel; stroke-linecap:butt;
"/>
<!-- Line -->
<polyline points="11574,7782
11574,7780
11574,7775
11574,7765
11574,7752
11574,7732
11574,7707
11574,7675
11574,7638
11574,7598
11574,7554
11574,7508
11574,7461
11574,7413
11574,7365
11574,7319
11574,7273
11574,7230
11574,7188
11574,7148
11574,7110
11574,7075
11574,7040
11574,7007
11574,6975
11574,6944
11574,6914
11574,6885
11574,6855
11574,6826
11574,6792
11574,6759
11574,6724
11574,6689
11574,6655
11574,6619
11574,6583
11574,6548
11574,6512
11574,6475
11574,6439
11574,6405
11574,6370
11574,6335
11574,6302
11574,6270
11574,6240
11574,6211
11574,6182
11574,6156
11574,6131
11574,6108
11574,6086
11574,6065
11574,6047
11574,5869
" style="stroke:#000000;stroke-width:8;
stroke-linejoin:bevel; stroke-linecap:butt;
"/>
<!-- Line -->
<polyline points="12141,8243
12143,8243
12149,8243
12159,8243
12174,8243
12195,8243
12222,8243
12255,8243
12291,8243
12332,8243
12375,8243
12420,8243
12467,8243
12512,8243
12556,8243
12599,8243
12640,8243
12680,8243
12717,8243
12752,8243
12786,8243
12818,8243
12849,8243
12878,8243
12908,8243
12936,8243
12963,8243
12992,8243
13024,8243
13057,8243
13090,8243
13123,8243
13158,8243
13191,8243
13226,8243
13260,8243
13295,8243
13330,8243
13363,8243
13397,8243
13430,8243
13462,8243
13492,8243
13522,8243
13550,8243
13576,8243
13601,8243
13624,8243
13646,8243
13665,8243
13683,8243
13842,8243
" style="stroke:#000000;stroke-width:8;
stroke-linejoin:bevel; stroke-linecap:butt;
"/>
<!-- Line -->
<polyline points="13842,2574
13840,2574
13836,2574
13827,2574
13814,2574
13796,2574
13773,2574
13744,2574
13711,2574
13673,2574
13632,2574
13590,2574
13545,2574
13500,2574
13455,2574
13411,2574
13367,2574
13325,2574
13285,2574
13246,2574
13207,2574
13171,2574
13135,2574
13101,2574
13066,2574
13033,2574
12999,2574
12965,2574
12932,2574
12897,2574
12867,2574
12835,2574
12803,2574
12770,2574
12737,2574
12702,2574
12667,2574
12630,2574
12594,2574
12556,2574
12517,2574
12477,2574
12437,2574
12396,2574
12354,2574
12312,2574
12270,2574
12227,2574
12184,2574
12141,2574
12099,2574
12056,2574
12014,2574
11972,2574
11930,2574
11889,2574
11848,2574
11807,2574
11767,2574
11729,2574
11690,2574
11651,2574
11612,2574
11574,2574
11539,2574
11502,2574
11465,2574
11428,2574
11392,2574
11354,2574
11316,2574
11277,2574
11237,2574
11198,2574
11158,2574
11117,2574
11076,2574
11035,2574
10993,2574
10951,2574
10908,2574
10866,2574
10824,2574
10781,2574
10739,2574
10697,2574
10656,2574
10615,2574
10574,2574
10533,2574
10494,2574
10454,2574
10415,2574
10377,2574
10340,2574
10303,2574
10266,2574
10229,2574
10193,2574
10157,2574
10121,2574
10085,2574
10048,2574
10011,2574
9974,2574
9937,2574
9899,2574
9860,2574
9820,2574
9781,2574
9740,2574
9699,2574
9658,2574
9617,2574
9575,2574
9533,2574
9490,2574
9448,2574
9406,2574
9363,2574
9321,2574
9279,2574
9238,2574
9197,2574
9156,2574
9116,2574
9077,2574
9037,2574
8998,2574
8960,2574
8922,2574
8886,2574
8849,2574
8812,2574
8775,2574
8740,2574
8704,2574
8667,2574
8630,2574
8594,2574
8557,2574
8519,2574
8481,2574
8443,2574
8403,2574
8364,2574
8323,2574
8282,2574
8241,2574
8200,2574
8158,2574
8116,2574
8073,2574
8031,2574
7989,2574
7946,2574
7904,2574
7862,2574
7821,2574
7780,2574
7739,2574
7698,2574
7659,2574
7619,2574
7581,2574
7543,2574
7505,2574
7468,2574
7432,2574
7395,2574
7358,2574
7322,2574
7287,2574
7250,2574
7213,2574
7176,2574
7140,2574
7102,2574
7064,2574
7025,2574
6985,2574
6946,2574
6906,2574
6865,2574
6824,2574
6783,2574
6741,2574
6699,2574
6656,2574
6614,2574
6572,2574
6529,2574
6487,2574
6445,2574
6404,2574
6363,2574
6322,2574
6281,2574
6242,2574
6202,2574
6163,2574
6125,2574
6088,2574
6051,2574
6014,2574
5977,2574
5941,2574
5905,2574
5869,2574
5833,2574
5796,2574
5759,2574
5722,2574
5685,2574
5647,2574
5608,2574
5568,2574
5529,2574
5488,2574
5447,2574
5406,2574
5365,2574
5323,2574
5281,2574
5238,2574
5196,2574
5154,2574
5111,2574
5069,2574
5027,2574
4986,2574
4945,2574
4904,2574
4864,2574
4825,2574
4785,2574
4746,2574
4708,2574
4670,2574
4634,2574
4597,2574
4560,2574
4523,2574
4488,2574
4450,2574
4411,2574
4372,2574
4333,2574
4295,2574
4255,2574
4214,2574
4173,2574
4132,2574
4090,2574
4048,2574
4006,2574
3963,2574
3921,2574
3878,2574
3835,2574
3792,2574
3750,2574
3708,2574
3666,2574
3625,2574
3585,2574
3545,2574
3506,2574
3468,2574
3432,2574
3395,2574
3360,2574
3325,2574
3292,2574
3259,2574
3227,2574
3195,2574
3165,2574
3125,2574
3086,2574
3047,2574
3008,2574
2971,2574
2933,2574
2895,2574
2857,2574
2819,2574
2784,2574
2747,2574
2712,2574
2678,2574
2645,2574
2613,2574
2582,2574
2554,2574
2525,2574
2500,2574
2476,2574
2453,2574
2432,2574
2412,2574
2394,2574
2377,2574
2220,2574
" style="stroke:#000000;stroke-width:8;
stroke-linejoin:bevel; stroke-linecap:butt;
"/>
<!-- Line -->
<polyline points="14409,7782
14409,7780
14409,7775
14409,7765
14409,7751
14409,7731
14409,7704
14409,7673
14409,7635
14409,7594
14409,7549
14409,7501
14409,7451
14409,7402
14409,7352
14409,7303
14409,7255
14409,7209
14409,7165
14409,7122
14409,7080
14409,7040
14409,7002
14409,6964
14409,6928
14409,6892
14409,6856
14409,6820
14409,6785
14409,6749
14409,6717
14409,6684
14409,6650
14409,6617
14409,6582
14409,6546
14409,6511
14409,6473
14409,6435
14409,6396
14409,6356
14409,6317
14409,6276
14409,6234
14409,6192
14409,6150
14409,6107
14409,6064
14409,6020
14409,5977
14409,5934
14409,5891
14409,5848
14409,5806
14409,5764
14409,5723
14409,5682
14409,5641
14409,5602
14409,5563
14409,5524
14409,5485
14409,5446
14409,5408
14409,5371
14409,5332
14409,5293
14409,5254
14409,5215
14409,5175
14409,5134
14409,5093
14409,5053
14409,5011
14409,4969
14409,4925
14409,4882
14409,4839
14409,4796
14409,4753
14409,4710
14409,4667
14409,4625
14409,4583
14409,4541
14409,4500
14409,4460
14409,4420
14409,4382
14409,4344
14409,4306
14409,4270
14409,4235
14409,4200
14409,4166
14409,4133
14409,4100
14409,4068
14409,4029
14409,3991
14409,3953
14409,3914
14409,3877
14409,3839
14409,3801
14409,3763
14409,3727
14409,3689
14409,3652
14409,3616
14409,3581
14409,3546
14409,3511
14409,3479
14409,3447
14409,3417
14409,3388
14409,3361
14409,3335
14409,3311
14409,3288
14409,3267
14409,3247
14409,3228
14409,3210
14409,3035
" style="stroke:#000000;stroke-width:8;
stroke-linejoin:bevel; stroke-linecap:butt;
"/>
<!-- Line -->
<polyline points="13842,13451
13841,13450
13838,13446
13832,13440
13823,13429
13811,13416
13794,13397
13773,13374
13749,13346
13720,13315
13690,13280
13656,13243
13620,13203
13584,13161
13546,13119
13509,13077
13471,13035
13435,12994
13399,12953
13364,12914
13331,12877
13299,12840
13269,12807
13239,12773
13211,12742
13184,12711
13158,12682
13132,12654
13108,12626
13084,12599
13061,12573
13038,12546
13015,12521
12992,12495
12965,12466
12939,12436
12913,12407
12887,12377
12860,12347
12833,12317
12806,12286
12779,12255
12750,12224
12723,12193
12696,12161
12667,12131
12640,12099
12613,12069
12586,12039
12560,12009
12534,11981
12509,11952
12485,11925
12461,11899
12439,11874
12417,11849
12397,11826
12377,11804
12360,11784
12342,11764
12326,11746
12310,11730
12297,11713
12141,11539
" style="stroke:#000000;stroke-width:8;
stroke-linejoin:bevel; stroke-linecap:butt;
"/>
<!-- Line -->
<polyline points="13842,13912
13840,13912
13836,13912
13827,13912
13814,13912
13796,13912
13773,13912
13744,13912
13711,13912
13673,13912
13632,13912
13590,13912
13545,13912
13500,13912
13455,13912
13411,13912
13367,13912
13325,13912
13285,13912
13246,13912
13207,13912
13171,13912
13135,13912
13101,13912
13066,13912
13033,13912
12999,13912
12965,13912
12932,13912
12897,13912
12867,13912
12835,13912
12803,13912
12770,13912
12737,13912
12702,13912
12667,13912
12630,13912
12594,13912
12556,13912
12517,13912
12477,13912
12437,13912
12396,13912
12354,13912
12312,13912
12270,13912
12227,13912
12184,13912
12141,13912
12099,13912
12056,13912
12014,13912
11972,13912
11930,13912
11889,13912
11848,13912
11807,13912
11767,13912
11729,13912
11690,13912
11651,13912
11612,13912
11574,13912
11539,13912
11502,13912
11465,13912
11428,13912
11392,13912
11354,13912
11316,13912
11277,13912
11237,13912
11198,13912
11158,13912
11117,13912
11076,13912
11035,13912
10993,13912
10951,13912
10908,13912
10866,13912
10824,13912
10781,13912
10739,13912
10697,13912
10656,13912
10615,13912
10574,13912
10533,13912
10494,13912
10454,13912
10415,13912
10377,13912
10340,13912
10303,13912
10266,13912
10229,13912
10193,13912
10157,13912
10121,13912
10085,13912
10048,13912
10011,13912
9974,13912
9937,13912
9899,13912
9860,13912
9820,13912
9781,13912
9740,13912
9699,13912
9658,13912
9617,13912
9575,13912
9533,13912
9490,13912
9448,13912
9406,13912
9363,13912
9321,13912
9279,13912
9238,13912
9197,13912
9156,13912
9116,13912
9077,13912
9037,13912
8998,13912
8960,13912
8922,13912
8886,13912
8849,13912
8812,13912
8775,13912
8740,13912
8704,13912
8667,13912
8630,13912
8594,13912
8557,13912
8519,13912
8481,13912
8443,13912
8403,13912
8364,13912
8323,13912
8282,13912
8241,13912
8200,13912
8158,13912
8116,13912
8073,13912
8031,13912
7989,13912
7946,13912
7904,13912
7862,13912
7821,13912
7780,13912
7739,13912
7698,13912
7659,13912
7619,13912
7581,13912
7543,13912
7505,13912
7468,13912
7432,13912
7395,13912
7358,13912
7322,13912
7287,13912
7250,13912
7213,13912
7176,13912
7140,13912
7102,13912
7064,13912
7025,13912
6985,13912
6946,13912
6906,13912
6865,13912
6824,13912
6783,13912
6741,13912
6699,13912
6656,13912
6614,13912
6572,13912
6529,13912
6487,13912
6445,13912
6404,13912
6363,13912
6322,13912
6281,13912
6242,13912
6202,13912
6163,13912
6125,13912
6088,13912
6051,13912
6014,13912
5977,13912
5941,13912
5905,13912
5869,13912
5833,13912
5796,13912
5759,13912
5722,13912
5685,13912
5647,13912
5608,13912
5568,13912
5529,13912
5488,13912
5447,13912
5406,13912
5365,13912
5323,13912
5281,13912
5238,13912
5196,13912
5154,13912
5111,13912
5069,13912
5027,13912
4986,13912
4945,13912
4904,13912
4864,13912
4825,13912
4785,13912
4746,13912
4708,13912
4670,13912
4634,13912
4597,13912
4560,13912
4523,13912
4488,13912
4450,13912
4411,13912
4372,13912
4333,13912
4295,13912
4255,13912
4214,13912
4173,13912
4132,13912
4090,13912
4048,13912
4006,13912
3963,13912
3921,13912
3878,13912
3835,13912
3792,13912
3750,13912
3708,13912
3666,13912
3625,13912
3585,13912
3545,13912
3506,13912
3468,13912
3432,13912
3395,13912
3360,13912
3325,13912
3292,13912
3259,13912
3227,13912
3195,13912
3165,13912
3125,13912
3086,13912
3047,13912
3008,13912
2971,13912
2933,13912
2895,13912
2857,13912
2819,13912
2784,13912
2747,13912
2712,13912
2678,13912
2645,13912
2613,13912
2582,13912
2554,13912
2525,13912
2500,13912
2476,13912
2453,13912
2432,13912
2412,13912
2394,13912
2377,13912
2220,13912
" style="stroke:#000000;stroke-width:8;
stroke-linejoin:bevel; stroke-linecap:butt;
"/>
<!-- Line -->
<polyline points="14409,8704
14409,8706
14409,8711
14409,8721
14409,8735
14409,8755
14409,8782
14409,8813
14409,8851
14409,8892
14409,8937
14409,8985
14409,9035
14409,9084
14409,9134
14409,9183
14409,9231
14409,9277
14409,9321
14409,9364
14409,9406
14409,9446
14409,9484
14409,9522
14409,9559
14409,9594
14409,9630
14409,9666
14409,9701
14409,9737
14409,9770
14409,9802
14409,9836
14409,9869
14409,9904
14409,9940
14409,9975
14409,10013
14409,10051
14409,10090
14409,10130
14409,10170
14409,10211
14409,10253
14409,10295
14409,10337
14409,10380
14409,10423
14409,10466
14409,10509
14409,10552
14409,10595
14409,10638
14409,10680
14409,10722
14409,10763
14409,10804
14409,10845
14409,10885
14409,10923
14409,10962
14409,11001
14409,11040
14409,11078
14409,11116
14409,11154
14409,11193
14409,11232
14409,11271
14409,11311
14409,11352
14409,11393
14409,11434
14409,11476
14409,11518
14409,11561
14409,11604
14409,11647
14409,11690
14409,11733
14409,11776
14409,11819
14409,11861
14409,11903
14409,11945
14409,11986
14409,12026
14409,12066
14409,12104
14409,12142
14409,12180
14409,12216
14409,12251
14409,12286
14409,12320
14409,12353
14409,12386
14409,12418
14409,12457
14409,12495
14409,12533
14409,12572
14409,12609
14409,12647
14409,12685
14409,12723
14409,12760
14409,12797
14409,12834
14409,12870
14409,12906
14409,12940
14409,12975
14409,13007
14409,13039
14409,13069
14409,13098
14409,13125
14409,13151
14409,13175
14409,13198
14409,13219
14409,13239
14409,13258
14409,13276
14409,13451
" style="stroke:#000000;stroke-width:8;
stroke-linejoin:bevel; stroke-linecap:butt;
"/>
<!-- Line -->
<polyline points="16677,13912
16675,13912
16669,13912
16659,13912
16644,13912
16623,13912
16596,13912
16563,13912
16527,13912
16486,13912
16443,13912
16397,13912
16351,13912
16306,13912
16262,13912
16219,13912
16178,13912
16138,13912
16101,13912
16066,13912
16032,13912
16000,13912
15969,13912
15940,13912
15910,13912
15882,13912
15855,13912
15826,13912
15794,13912
15761,13912
15728,13912
15695,13912
15660,13912
15627,13912
15592,13912
15558,13912
15523,13912
15488,13912
15455,13912
15421,13912
15387,13912
15356,13912
15325,13912
15296,13912
15268,13912
15241,13912
15217,13912
15194,13912
15172,13912
15153,13912
15134,13912
14976,13912
" style="stroke:#000000;stroke-width:8;
stroke-linejoin:bevel; stroke-linecap:butt;
"/>
<!-- Line -->
<polyline points="14976,8704
14977,8705
14980,8709
14985,8716
14995,8726
15006,8741
15022,8760
15042,8784
15065,8811
15091,8844
15121,8879
15152,8918
15186,8959
15219,9002
15254,9046
15289,9090
15322,9134
15355,9177
15386,9219
15417,9261
15445,9301
15472,9340
15498,9377
15521,9414
15543,9448
15564,9482
15583,9516
15601,9548
15617,9580
15632,9611
15647,9643
15660,9674
15673,9706
15685,9737
15696,9770
15707,9802
15716,9836
15725,9869
15735,9904
15743,9940
15751,9975
15759,10013
15765,10051
15773,10090
15778,10130
15784,10170
15790,10211
15795,10253
15799,10295
15803,10337
15806,10380
15809,10423
15813,10466
15816,10509
15818,10552
15819,10595
15821,10638
15822,10680
15823,10722
15824,10763
15825,10804
15825,10845
15826,10885
15826,10923
15826,10962
15826,11001
15826,11040
15826,11078
15826,11116
15826,11154
15826,11193
15826,11232
15826,11271
15827,11311
15827,11352
15828,11393
15829,11434
15830,11476
15832,11518
15834,11561
15835,11604
15837,11647
15840,11690
15843,11733
15846,11776
15849,11819
15854,11861
15858,11903
15863,11945
15868,11986
15875,12026
15880,12066
15887,12104
15893,12142
15902,12180
15909,12216
15918,12251
15927,12286
15937,12320
15946,12353
15956,12386
15968,12418
15982,12454
15995,12490
16011,12525
16027,12561
16044,12597
16061,12632
16080,12667
16100,12702
16120,12738
16141,12772
16162,12807
16184,12841
16206,12875
16228,12908
16251,12940
16275,12972
16297,13003
16319,13033
16341,13061
16362,13088
16383,13114
16403,13139
16423,13163
16441,13185
16459,13206
16476,13225
16492,13244
16508,13260
16521,13277
16677,13451
" style="stroke:#000000;stroke-width:8;
stroke-linejoin:bevel; stroke-linecap:butt;
"/>
<!-- Line -->
<polyline points="16677,2574
16675,2574
16669,2574
16659,2574
16644,2574
16623,2574
16596,2574
16563,2574
16527,2574
16486,2574
16443,2574
16397,2574
16351,2574
16306,2574
16262,2574
16219,2574
16178,2574
16138,2574
16101,2574
16066,2574
16032,2574
16000,2574
15969,2574
15940,2574
15910,2574
15882,2574
15855,2574
15826,2574
15794,2574
15761,2574
15728,2574
15695,2574
15660,2574
15627,2574
15592,2574
15558,2574
15523,2574
15488,2574
15455,2574
15421,2574
15387,2574
15356,2574
15325,2574
15296,2574
15268,2574
15241,2574
15217,2574
15194,2574
15172,2574
15153,2574
15134,2574
14976,2574
" style="stroke:#000000;stroke-width:8;
stroke-linejoin:bevel; stroke-linecap:butt;
"/>
<!-- Line -->
<polyline points="14976,7782
14977,7781
14980,7777
14985,7771
14995,7760
15006,7745
15022,7727
15042,7702
15065,7675
15091,7643
15121,7607
15152,7568
15186,7527
15219,7484
15254,7440
15289,7396
15322,7352
15355,7309
15386,7267
15417,7225
15445,7185
15472,7146
15498,7109
15521,7072
15543,7038
15564,7004
15583,6971
15601,6938
15617,6907
15632,6875
15647,6844
15660,6812
15673,6781
15685,6749
15696,6717
15707,6684
15716,6650
15725,6617
15735,6582
15743,6546
15751,6511
15759,6473
15765,6435
15773,6396
15778,6356
15784,6317
15790,6276
15795,6234
15799,6192
15803,6150
15806,6107
15809,6064
15813,6020
15816,5977
15818,5934
15819,5891
15821,5848
15822,5806
15823,5764
15824,5723
15825,5682
15825,5641
15826,5602
15826,5563
15826,5524
15826,5485
15826,5446
15826,5408
15826,5371
15826,5332
15826,5293
15826,5254
15826,5215
15827,5175
15827,5134
15828,5093
15829,5053
15830,5011
15832,4969
15834,4925
15835,4882
15837,4839
15840,4796
15843,4753
15846,4710
15849,4667
15854,4625
15858,4583
15863,4541
15868,4500
15875,4460
15880,4420
15887,4382
15893,4344
15902,4306
15909,4270
15918,4235
15927,4200
15937,4166
15946,4133
15956,4100
15968,4068
15982,4032
15995,3996
16011,3961
16027,3925
16044,3889
16061,3855
16080,3819
16100,3784
16120,3749
16141,3714
16162,3679
16184,3645
16206,3611
16228,3579
16251,3546
16275,3514
16297,3483
16319,3454
16341,3425
16362,3398
16383,3372
16403,3348
16423,3323
16441,3301
16459,3280
16476,3261
16492,3243
16508,3226
16521,3209
16677,3035
" style="stroke:#000000;stroke-width:8;
stroke-linejoin:bevel; stroke-linecap:butt;
"/>
<!-- Line -->
<polyline points="17244,13451
17244,13449
17244,13444
17244,13435
17244,13421
17244,13401
17244,13376
17244,13344
17244,13308
17244,13268
17244,13224
17244,13177
17244,13130
17244,13082
17244,13035
17244,12988
17244,12942
17244,12899
17244,12857
17244,12817
17244,12780
17244,12744
17244,12709
17244,12677
17244,12644
17244,12614
17244,12583
17244,12554
17244,12524
17244,12495
17244,12461
17244,12428
17244,12393
17244,12359
17244,12324
17244,12288
17244,12253
17244,12217
17244,12181
17244,12144
17244,12109
17244,12074
17244,12039
17244,12005
17244,11971
17244,11940
17244,11909
17244,11880
17244,11851
17244,11825
17244,11800
17244,11777
17244,11755
17244,11734
17244,11716
17244,11539
" style="stroke:#000000;stroke-width:8;
stroke-linejoin:bevel; stroke-linecap:butt;
"/>
<!-- Line -->
<polyline points="17244,10617
17244,10615
17244,10609
17244,10600
17244,10586
17244,10566
17244,10541
17244,10510
17244,10473
17244,10433
17244,10389
17244,10343
17244,10296
17244,10247
17244,10200
17244,10154
17244,10108
17244,10065
17244,10023
17244,9983
17244,9945
17244,9909
17244,9875
17244,9842
17244,9809
17244,9779
17244,9749
17244,9719
17244,9690
17244,9660
17244,9627
17244,9593
17244,9559
17244,9524
17244,9489
17244,9454
17244,9418
17244,9382
17244,9346
17244,9310
17244,9274
17244,9239
17244,9205
17244,9170
17244,9137
17244,9105
17244,9075
17244,9045
17244,9017
17244,8991
17244,8965
17244,8942
17244,8920
17244,8899
17244,8881
17244,8704
" style="stroke:#000000;stroke-width:8;
stroke-linejoin:bevel; stroke-linecap:butt;
"/>
<!-- Line -->
<polyline points="17244,7782
17244,7780
17244,7775
17244,7765
17244,7752
17244,7732
17244,7707
17244,7675
17244,7638
17244,7598
17244,7554
17244,7508
17244,7461
17244,7413
17244,7365
17244,7319
17244,7273
17244,7230
17244,7188
17244,7148
17244,7110
17244,7075
17244,7040
17244,7007
17244,6975
17244,6944
17244,6914
17244,6885
17244,6855
17244,6826
17244,6792
17244,6759
17244,6724
17244,6689
17244,6655
17244,6619
17244,6583
17244,6548
17244,6512
17244,6475
17244,6439
17244,6405
17244,6370
17244,6335
17244,6302
17244,6270
17244,6240
17244,6211
17244,6182
17244,6156
17244,6131
17244,6108
17244,6086
17244,6065
17244,6047
17244,5869
" style="stroke:#000000;stroke-width:8;
stroke-linejoin:bevel; stroke-linecap:butt;
"/>
<!-- Line -->
<polyline points="17811,13451
17812,13450
17815,13446
17820,13440
17829,13429
17841,13415
17857,13396
17877,13372
17900,13344
17926,13312
17955,13276
17987,13237
18020,13196
18054,13153
18089,13109
18123,13065
18157,13021
18190,12978
18221,12936
18251,12894
18280,12854
18307,12815
18332,12779
18355,12742
18377,12707
18398,12674
18417,12640
18435,12607
18452,12576
18467,12544
18481,12513
18495,12481
18508,12450
18519,12418
18531,12386
18541,12353
18551,12320
18560,12286
18570,12251
18579,12217
18587,12180
18595,12143
18603,12107
18611,12068
18618,12029
18625,11990
18633,11949
18640,11909
18647,11868
18654,11827
18661,11786
18668,11745
18675,11704
18682,11664
18689,11624
18697,11583
18704,11544
18711,11505
18719,11466
18727,11429
18734,11393
18743,11356
18752,11321
18762,11287
18771,11253
18781,11219
18791,11187
18803,11154
18816,11119
18830,11083
18846,11047
18861,11012
18878,10976
18896,10941
18915,10906
18935,10871
18955,10835
18976,10801
18997,10766
19019,10731
19041,10698
19063,10665
19086,10633
19109,10601
19131,10570
19153,10540
19175,10512
19196,10485
19217,10458
19237,10434
19257,10410
19276,10388
19294,10367
19311,10348
19327,10329
19342,10312
19356,10296
19511,10121
" style="stroke:#000000;stroke-width:8;
stroke-linejoin:bevel; stroke-linecap:butt;
"/>
<!-- Line -->
<polyline points="19511,9200
19510,9198
19507,9194
19502,9188
19492,9177
19481,9163
19465,9144
19445,9120
19422,9092
19396,9060
19366,9024
19335,8985
19301,8944
19268,8901
19233,8857
19198,8813
19165,8769
19132,8726
19101,8684
19070,8642
19042,8602
19015,8563
18990,8527
18966,8490
18944,8455
18923,8422
18904,8388
18887,8355
18870,8324
18855,8292
18840,8261
18827,8229
18814,8198
18803,8166
18791,8134
18781,8101
18771,8068
18762,8034
18752,8000
18744,7964
18737,7928
18728,7890
18722,7853
18714,7814
18709,7774
18703,7734
18698,7693
18692,7651
18688,7609
18684,7567
18681,7524
18678,7481
18675,7438
18671,7395
18669,7352
18668,7309
18666,7266
18665,7224
18664,7182
18663,7141
18662,7100
18662,7059
18661,7019
18661,6980
18661,6941
18661,6902
18661,6864
18661,6826
18661,6790
18661,6753
18661,6717
18661,6680
18661,6643
18661,6605
18661,6567
18661,6529
18661,6489
18661,6450
18661,6409
18661,6368
18661,6327
18661,6286
18661,6244
18661,6202
18661,6159
18661,6117
18661,6075
18661,6032
18661,5990
18661,5948
18661,5907
18661,5866
18661,5825
18661,5784
18661,5745
18661,5706
18661,5667
18661,5629
18661,5591
18661,5554
18661,5518
18661,5481
18661,5444
18661,5408
18661,5371
18661,5332
18661,5293
18661,5254
18661,5215
18660,5175
18660,5134
18659,5093
18658,5053
18657,5011
18656,4969
18654,4925
18653,4882
18650,4839
18647,4796
18644,4753
18641,4710
18638,4667
18634,4625
18629,4583
18624,4541
18619,4500
18613,4460
18607,4420
18600,4382
18594,4344
18585,4306
18578,4270
18570,4235
18560,4200
18551,4166
18541,4133
18531,4100
18519,4068
18506,4032
18492,3996
18476,3961
18460,3925
18444,3889
18426,3855
18407,3819
18387,3784
18367,3749
18346,3714
18325,3679
18303,3645
18281,3611
18259,3579
18236,3546
18213,3514
18191,3483
18169,3454
18146,3425
18125,3398
18104,3372
18085,3348
18065,3323
18046,3301
18028,3280
18011,3261
17995,3243
17980,3226
17966,3209
17811,3035
" style="stroke:#000000;stroke-width:8;
stroke-linejoin:bevel; stroke-linecap:butt;
"/>
<!-- Line -->
<polyline points="20078,9200
20078,9197
20078,9192
20078,9183
20078,9169
20078,9149
20078,9124
20078,9092
20078,9056
20078,9016
20078,8972
20078,8925
20078,8878
20078,8830
20078,8783
20078,8737
20078,8690
20078,8647
20078,8605
20078,8565
20078,8528
20078,8492
20078,8457
20078,8425
20078,8392
20078,8362
20078,8331
20078,8302
20078,8272
20078,8243
20078,8209
20078,8176
20078,8141
20078,8107
20078,8072
20078,8036
20078,8001
20078,7965
20078,7929
20078,7892
20078,7857
20078,7822
20078,7787
20078,7753
20078,7719
20078,7688
20078,7657
20078,7628
20078,7600
20078,7573
20078,7548
20078,7525
20078,7503
20078,7482
20078,7464
20078,7287
" style="stroke:#000000;stroke-width:8;
stroke-linejoin:bevel; stroke-linecap:butt;
"/>
<!-- Text -->
<text xml:space="preserve" x="17244" y="7304" stroke="#000000" fill="#000000" font-family="Times" font-style="normal" font-weight="normal" font-size="76" text-anchor="middle">U/D</text>
<!-- Text -->
<text xml:space="preserve" x="20078" y="8722" stroke="#000000" fill="#000000" font-family="Times" font-style="normal" font-weight="normal" font-size="76" text-anchor="middle">U/D</text>
<!-- Line: box -->
<rect x="19511" y="6365" width="1133" height="921" rx="0" 
style="stroke:#000000;stroke-width:8;
stroke-linejoin:miter; stroke-linecap:butt;
fill:#ffffff;
"/>
<!-- Line: box -->
<rect x="19511" y="9200" width="1133" height="921" rx="0" 
style="stroke:#000000;stroke-width:8;
stroke-linejoin:miter; stroke-linecap:butt;
fill:#ffffff;
"/>
<!-- Line: box -->
<rect x="16677" y="4948" width="1133" height="921" rx="0" 
style="stroke:#000000;stroke-width:8;
stroke-linejoin:miter; stroke-linecap:butt;
fill:#ffffff;
"/>
<!-- Line: box -->
<rect x="16677" y="7782" width="1133" height="921" rx="0" 
style="stroke:#000000;stroke-width:8;
stroke-linejoin:miter; stroke-linecap:butt;
fill:#ffffff;
"/>
<!-- Line: box -->
<rect x="16677" y="10617" width="1133" height="921" rx="0" 
style="stroke:#000000;stroke-width:8;
stroke-linejoin:miter; stroke-linecap:butt;
fill:#ffffff;
"/>
<!-- Line: box -->
<rect x="16677" y="2113" width="1133" height="921" rx="0" 
style="stroke:#000000;stroke-width:8;
stroke-linejoin:miter; stroke-linecap:butt;
fill:#ffffff;
"/>
<!-- Line: box -->
<rect x="16677" y="13451" width="1133" height="921" rx="0" 
style="stroke:#000000;stroke-width:8;
stroke-linejoin:miter; stroke-linecap:butt;
fill:#ffffff;
"/>
<!-- Line: box -->
<rect x="13842" y="13451" width="1133" height="921" rx="0" 
style="stroke:#000000;stroke-width:8;
stroke-linejoin:miter; stroke-linecap:butt;
fill:#ffffff;
"/>
<!-- Line: box -->
<rect x="13842" y="2113" width="1133" height="921" rx="0" 
style="stroke:#000000;stroke-width:8;
stroke-linejoin:miter; stroke-linecap:butt;
fill:#ffffff;
"/>
<!-- Line: box -->
<rect x="13842" y="7782" width="1133" height="921" rx="0" 
style="stroke:#000000;stroke-width:8;
stroke-linejoin:miter; stroke-linecap:butt;
fill:#ffffff;
"/>
<!-- Line: box -->
<rect x="11007" y="4948" width="1132" height="921" rx="0" 
style="stroke:#000000;stroke-width:8;
stroke-linejoin:miter; stroke-linecap:butt;
fill:#ffffff;
"/>
<!-- Line: box -->
<rect x="11007" y="10617" width="1132" height="921" rx="0" 
style="stroke:#000000;stroke-width:8;
stroke-linejoin:miter; stroke-linecap:butt;
fill:#ffffff;
"/>
<!-- Line: box -->
<rect x="11007" y="7782" width="1132" height="921" rx="0" 
style="stroke:#000000;stroke-width:8;
stroke-linejoin:miter; stroke-linecap:butt;
fill:#ffffff;
"/>
<!-- Line: box -->
<rect x="8172" y="9200" width="1133" height="921" rx="0" 
style="stroke:#000000;stroke-width:8;
stroke-linejoin:miter; stroke-linecap:butt;
fill:#ffffff;
"/>
<!-- Line: box -->
<rect x="8172" y="3530" width="1133" height="921" rx="0" 
style="stroke:#000000;stroke-width:8;
stroke-linejoin:miter; stroke-linecap:butt;
fill:#ffffff;
"/>
<!-- Line: box -->
<rect x="8172" y="6365" width="1133" height="921" rx="0" 
style="stroke:#000000;stroke-width:8;
stroke-linejoin:miter; stroke-linecap:butt;
fill:#ffffff;
"/>
<!-- Line: box -->
<rect x="6754" y="4948" width="1133" height="921" rx="0" 
style="stroke:#000000;stroke-width:8;
stroke-linejoin:miter; stroke-linecap:butt;
fill:#ffffff;
"/>
<!-- Line: box -->
<rect x="5337" y="3530" width="1133" height="921" rx="0" 
style="stroke:#000000;stroke-width:8;
stroke-linejoin:miter; stroke-linecap:butt;
fill:#ffffff;
"/>
<!-- Line: box -->
<rect x="5337" y="4948" width="1133" height="921" rx="0" 
style="stroke:#000000;stroke-width:8;
stroke-linejoin:miter; stroke-linecap:butt;
fill:#ffffff;
"/>
<!-- Line: box -->
<rect x="5337" y="6365" width="1133" height="921" rx="0" 
style="stroke:#000000;stroke-width:8;
stroke-linejoin:miter; stroke-linecap:butt;
fill:#ffffff;
"/>
<!-- Line: box -->
<rect x="5337" y="9200" width="1133" height="921" rx="0" 
style="stroke:#000000;stroke-width:8;
stroke-linejoin:miter; stroke-linecap:butt;
fill:#ffffff;
"/>
<!-- Line: box -->
<rect x="2503" y="9200" width="1133" height="921" rx="0" 
style="stroke:#000000;stroke-width:8;
stroke-linejoin:miter; stroke-linecap:butt;
fill:#ffffff;
"/>
<!-- Line: box -->
<rect x="1086" y="13451" width="1133" height="921" rx="0" 
style="stroke:#000000;stroke-width:8;
stroke-linejoin:miter; stroke-linecap:butt;
fill:#ffffff;
"/>
<!-- Line: box -->
<rect x="3920" y="10617" width="1133" height="921" rx="0" 
style="stroke:#000000;stroke-width:8;
stroke-linejoin:miter; stroke-linecap:butt;
fill:#ffffff;
"/>
<!-- Line: box -->
<rect x="3920" y="9200" width="1133" height="921" rx="0" 
style="stroke:#000000;stroke-width:8;
stroke-linejoin:miter; stroke-linecap:butt;
fill:#ffffff;
"/>
<!-- Line: box -->
<rect x="3920" y="4948" width="1133" height="921" rx="0" 
style="stroke:#000000;stroke-width:8;
stroke-linejoin:miter; stroke-linecap:butt;
fill:#ffffff;
"/>
<!-- Line: box -->
<rect x="1086" y="2113" width="1133" height="921" rx="0" 
style="stroke:#000000;stroke-width:8;
stroke-linejoin:miter; stroke-linecap:butt;
stroke-dasharray:10 10;fill:#ffffff;
"/>
<!-- Text -->
<text xml:space="preserve" x="20083" y="6649" stroke="#000000" fill="#000000" font-family="Times" font-style="normal" font-weight="bold" font-size="126" text-anchor="middle">Windmill</text>
<!-- Text -->
<text xml:space="preserve" x="20083" y="7061" stroke="#000000" fill="#000000" font-family="Times" font-style="italic" font-weight="normal" font-size="76" text-anchor="middle">Binoculars</text>
<!-- Text -->
<text xml:space="preserve" x="20083" y="9618" stroke="#000000" fill="#000000" font-family="Times" font-style="normal" font-weight="bold" font-size="126" text-anchor="middle">Under The</text>
<!-- Text -->
<text xml:space="preserve" x="20083" y="9793" stroke="#000000" fill="#000000" font-family="Times" font-style="normal" font-weight="bold" font-size="126" text-anchor="middle">Windmill</text>
<!-- Text -->
<text xml:space="preserve" x="17249" y="5454" stroke="#000000" fill="#000000" font-family="Times" font-style="normal" font-weight="bold" font-size="126" text-anchor="middle">Underwater</text>
<!-- Text -->
<text xml:space="preserve" x="17249" y="8288" stroke="#000000" fill="#000000" font-family="Times" font-style="normal" font-weight="bold" font-size="126" text-anchor="middle">Reservoir</text>
<!-- Text -->
<text xml:space="preserve" x="17249" y="11036" stroke="#000000" fill="#000000" font-family="Times" font-style="normal" font-weight="bold" font-size="126" text-anchor="middle">Edge Of</text>
<!-- Text -->
<text xml:space="preserve" x="17249" y="11210" stroke="#000000" fill="#000000" font-family="Times" font-style="normal" font-weight="bold" font-size="126" text-anchor="middle">Reservoir</text>
<!-- Text -->
<text xml:space="preserve" x="17249" y="2532" stroke="#000000" fill="#000000" font-family="Times" font-style="normal" font-weight="bold" font-size="126" text-anchor="middle">North Of</text>
<!-- Text -->
<text xml:space="preserve" x="17249" y="2706" stroke="#000000" fill="#000000" font-family="Times" font-style="normal" font-weight="bold" font-size="126" text-anchor="middle">Reservoir</text>
<!-- Text -->
<text xml:space="preserve" x="17249" y="13870" stroke="#000000" fill="#000000" font-family="Times" font-style="normal" font-weight="bold" font-size="126" text-anchor="middle">South Of</text>
<!-- Text -->
<text xml:space="preserve" x="17249" y="14045" stroke="#000000" fill="#000000" font-family="Times" font-style="normal" font-weight="bold" font-size="126" text-anchor="middle">Reservoir</text>
<!-- Text -->
<text xml:space="preserve" x="14414" y="13870" stroke="#000000" fill="#000000" font-family="Times" font-style="normal" font-weight="bold" font-size="126" text-anchor="middle">Southeast Of</text>
<!-- Text -->
<text xml:space="preserve" x="14414" y="14045" stroke="#000000" fill="#000000" font-family="Times" font-style="normal" font-weight="bold" font-size="126" text-anchor="middle">Ranch</text>
<!-- Text -->
<text xml:space="preserve" x="14414" y="2532" stroke="#000000" fill="#000000" font-family="Times" font-style="normal" font-weight="bold" font-size="126" text-anchor="middle">Northeast Of</text>
<!-- Text -->
<text xml:space="preserve" x="14414" y="2706" stroke="#000000" fill="#000000" font-family="Times" font-style="normal" font-weight="bold" font-size="126" text-anchor="middle">Ranch</text>
<!-- Text -->
<text xml:space="preserve" x="14414" y="8288" stroke="#000000" fill="#000000" font-family="Times" font-style="normal" font-weight="bold" font-size="126" text-anchor="middle">Front Yard</text>
<!-- Text -->
<text xml:space="preserve" x="11580" y="5366" stroke="#000000" fill="#000000" font-family="Times" font-style="normal" font-weight="bold" font-size="126" text-anchor="middle">Northeast</text>
<!-- Text -->
<text xml:space="preserve" x="11580" y="5541" stroke="#000000" fill="#000000" font-family="Times" font-style="normal" font-weight="bold" font-size="126" text-anchor="middle">Yard</text>
<!-- Text -->
<text xml:space="preserve" x="11580" y="11036" stroke="#000000" fill="#000000" font-family="Times" font-style="normal" font-weight="bold" font-size="126" text-anchor="middle">Southeast</text>
<!-- Text -->
<text xml:space="preserve" x="11580" y="11210" stroke="#000000" fill="#000000" font-family="Times" font-style="normal" font-weight="bold" font-size="126" text-anchor="middle">Yard</text>
<!-- Text -->
<text xml:space="preserve" x="11580" y="8288" stroke="#000000" fill="#000000" font-family="Times" font-style="normal" font-weight="bold" font-size="126" text-anchor="middle">Front Deck</text>
<!-- Text -->
<text xml:space="preserve" x="8745" y="9618" stroke="#000000" fill="#000000" font-family="Times" font-style="normal" font-weight="bold" font-size="126" text-anchor="middle">Southeast</text>
<!-- Text -->
<text xml:space="preserve" x="8745" y="9793" stroke="#000000" fill="#000000" font-family="Times" font-style="normal" font-weight="bold" font-size="126" text-anchor="middle">Room</text>
<!-- Text -->
<text xml:space="preserve" x="8745" y="4036" stroke="#000000" fill="#000000" font-family="Times" font-style="normal" font-weight="bold" font-size="126" text-anchor="middle">Closet</text>
<!-- Text -->
<text xml:space="preserve" x="8745" y="6649" stroke="#000000" fill="#000000" font-family="Times" font-style="normal" font-weight="bold" font-size="126" text-anchor="middle">Assembly Room</text>
<!-- Text -->
<text xml:space="preserve" x="8745" y="7061" stroke="#000000" fill="#000000" font-family="Times" font-style="italic" font-weight="normal" font-size="76" text-anchor="middle">Snake, Workbench</text>
<!-- Text -->
<text xml:space="preserve" x="7328" y="5454" stroke="#000000" fill="#000000" font-family="Times" font-style="normal" font-weight="bold" font-size="126" text-anchor="middle">Bedroom</text>
<!-- Text -->
<text xml:space="preserve" x="5910" y="4036" stroke="#000000" fill="#000000" font-family="Times" font-style="normal" font-weight="bold" font-size="126" text-anchor="middle">Bathroom</text>
<!-- Text -->
<text xml:space="preserve" x="5910" y="5454" stroke="#000000" fill="#000000" font-family="Times" font-style="normal" font-weight="bold" font-size="126" text-anchor="middle">Spare Room</text>
<!-- Text -->
<text xml:space="preserve" x="5910" y="6784" stroke="#000000" fill="#000000" font-family="Times" font-style="normal" font-weight="bold" font-size="126" text-anchor="middle">Northwest</text>
<!-- Text -->
<text xml:space="preserve" x="5910" y="6958" stroke="#000000" fill="#000000" font-family="Times" font-style="normal" font-weight="bold" font-size="126" text-anchor="middle">Room</text>
<!-- Text -->
<text xml:space="preserve" x="5910" y="9484" stroke="#000000" fill="#000000" font-family="Times" font-style="normal" font-weight="bold" font-size="126" text-anchor="middle">Kitchen</text>
<!-- Text -->
<text xml:space="preserve" x="5910" y="9896" stroke="#000000" fill="#000000" font-family="Times" font-style="italic" font-weight="normal" font-size="76" text-anchor="middle">Knife</text>
<!-- Text -->
<text xml:space="preserve" x="3076" y="9706" stroke="#000000" fill="#000000" font-family="Times" font-style="normal" font-weight="bold" font-size="126" text-anchor="middle">Icehouse</text>
<!-- Text -->
<text xml:space="preserve" x="1658" y="13870" stroke="#000000" fill="#000000" font-family="Times" font-style="normal" font-weight="bold" font-size="126" text-anchor="middle">Southwest Of</text>
<!-- Text -->
<text xml:space="preserve" x="1658" y="14045" stroke="#000000" fill="#000000" font-family="Times" font-style="normal" font-weight="bold" font-size="126" text-anchor="middle">Ranch</text>
<!-- Text -->
<text xml:space="preserve" x="4493" y="11036" stroke="#000000" fill="#000000" font-family="Times" font-style="normal" font-weight="bold" font-size="126" text-anchor="middle">Southwest</text>
<!-- Text -->
<text xml:space="preserve" x="4493" y="11210" stroke="#000000" fill="#000000" font-family="Times" font-style="normal" font-weight="bold" font-size="126" text-anchor="middle">Yard</text>
<!-- Text -->
<text xml:space="preserve" x="4493" y="9706" stroke="#000000" fill="#000000" font-family="Times" font-style="normal" font-weight="bold" font-size="126" text-anchor="middle">Hallway</text>
<!-- Text -->
<text xml:space="preserve" x="4493" y="5454" stroke="#000000" fill="#000000" font-family="Times" font-style="normal" font-weight="bold" font-size="126" text-anchor="middle">Back Yard</text>
<!-- Text -->
<text xml:space="preserve" x="1658" y="2532" stroke="#000000" fill="#000000" font-family="Times" font-style="normal" font-weight="bold" font-size="126" text-anchor="middle">Northwest Of</text>
<!-- Text -->
<text xml:space="preserve" x="1658" y="2706" stroke="#000000" fill="#000000" font-family="Times" font-style="normal" font-weight="bold" font-size="126" text-anchor="middle">Ranch (3)</text>
</g>
</svg>
