<?xml version="1.0" standalone="no"?>
<!DOCTYPE svg PUBLIC "-//W3C//DTD SVG 1.1//EN"
"http://www.w3.org/Graphics/SVG/1.1/DTD/svg11.dtd">
<!-- Creator: fig2dev Version 3.2 Patchlevel 5 -->
<!-- CreationDate: Thu Sep 13 11:24:06 2018 -->
<!-- Magnification: 1.050 -->
<svg xmlns="http://www.w3.org/2000/svg" width="5.7in" height="4.4in" viewBox="1475 3447 6898 5269">
<g style="stroke-width:.025in; stroke:black; fill:none">
<!-- Line: box -->
<rect x="7156" y="4948" width="1133" height="921" rx="0" 
style="stroke:#7e7e7e;stroke-width:8;
stroke-linejoin:miter; stroke-linecap:butt;
fill:#7e7e7e;
"/>
<!-- Line: box -->
<rect x="5739" y="4948" width="1133" height="921" rx="0" 
style="stroke:#7e7e7e;stroke-width:8;
stroke-linejoin:miter; stroke-linecap:butt;
fill:#7e7e7e;
"/>
<!-- Line: box -->
<rect x="2904" y="6365" width="1133" height="921" rx="0" 
style="stroke:#7e7e7e;stroke-width:8;
stroke-linejoin:miter; stroke-linecap:butt;
fill:#7e7e7e;
"/>
<!-- Line: box -->
<rect x="4322" y="7782" width="1133" height="921" rx="0" 
style="stroke:#7e7e7e;stroke-width:8;
stroke-linejoin:miter; stroke-linecap:butt;
fill:#7e7e7e;
"/>
<!-- Line: box -->
<rect x="4322" y="4948" width="1133" height="921" rx="0" 
style="stroke:#7e7e7e;stroke-width:8;
stroke-linejoin:miter; stroke-linecap:butt;
fill:#7e7e7e;
"/>
<!-- Line: box -->
<rect x="2904" y="4948" width="1133" height="921" rx="0" 
style="stroke:#7e7e7e;stroke-width:8;
stroke-linejoin:miter; stroke-linecap:butt;
fill:#7e7e7e;
"/>
<!-- Line: box -->
<rect x="4322" y="3530" width="1133" height="921" rx="0" 
style="stroke:#7e7e7e;stroke-width:8;
stroke-linejoin:miter; stroke-linecap:butt;
fill:#7e7e7e;
"/>
<!-- Line: box -->
<rect x="2904" y="3530" width="1133" height="921" rx="0" 
style="stroke:#7e7e7e;stroke-width:8;
stroke-linejoin:miter; stroke-linecap:butt;
fill:#7e7e7e;
"/>
<!-- Line: box -->
<rect x="1487" y="3530" width="1133" height="921" rx="0" 
style="stroke:#7e7e7e;stroke-width:8;
stroke-linejoin:miter; stroke-linecap:butt;
fill:#7e7e7e;
"/>
<!-- Line: box -->
<rect x="1487" y="4948" width="1133" height="921" rx="0" 
style="stroke:#7e7e7e;stroke-width:8;
stroke-linejoin:miter; stroke-linecap:butt;
fill:#7e7e7e;
"/>
<!-- Line: box -->
<rect x="1487" y="7782" width="1133" height="921" rx="0" 
style="stroke:#7e7e7e;stroke-width:8;
stroke-linejoin:miter; stroke-linecap:butt;
fill:#7e7e7e;
"/>
<!-- Line -->
<polyline points="2125,7712
2125,7710
2125,7704
2125,7695
2125,7681
2125,7661
2125,7636
2125,7605
2125,7568
2125,7528
2125,7484
2125,7438
2125,7391
2125,7342
2125,7295
2125,7249
2125,7203
2125,7160
2125,7118
2125,7078
2125,7040
2125,7004
2125,6970
2125,6937
2125,6904
2125,6874
2125,6844
2125,6814
2125,6785
2125,6755
2125,6722
2125,6687
2125,6654
2125,6619
2125,6583
2125,6549
2125,6513
2125,6477
2125,6440
2125,6405
2125,6369
2125,6333
2125,6299
2125,6265
2125,6232
2125,6199
2125,6169
2125,6139
2125,6111
2125,6085
2125,6059
2125,6036
2125,6014
2125,5994
2125,5975
2125,5798
" style="stroke:#000000;stroke-width:8;
stroke-linejoin:bevel; stroke-linecap:butt;
"/>
<!-- Line -->
<polyline points="2125,4877
2125,4381
" style="stroke:#000000;stroke-width:8;
stroke-linejoin:miter; stroke-linecap:butt;
"/>
<!-- Line -->
<polyline points="2976,4381
2692,4877
" style="stroke:#000000;stroke-width:8;
stroke-linejoin:miter; stroke-linecap:butt;
"/>
<!-- Line -->
<polyline points="2692,3921
2976,3921
" style="stroke:#000000;stroke-width:8;
stroke-linejoin:miter; stroke-linecap:butt;
"/>
<!-- Line -->
<polyline points="4110,3921
4393,3921
" style="stroke:#000000;stroke-width:8;
stroke-linejoin:miter; stroke-linecap:butt;
"/>
<!-- Line -->
<polyline points="2976,4877
2692,4381
" style="stroke:#000000;stroke-width:8;
stroke-linejoin:miter; stroke-linecap:butt;
"/>
<!-- Line -->
<polyline points="2976,5338
2692,5338
" style="stroke:#000000;stroke-width:8;
stroke-linejoin:miter; stroke-linecap:butt;
"/>
<!-- Line -->
<polyline points="3543,4877
3543,4381
" style="stroke:#000000;stroke-width:8;
stroke-linejoin:miter; stroke-linecap:butt;
"/>
<!-- Line -->
<polyline points="4393,4381
4110,4877
" style="stroke:#000000;stroke-width:8;
stroke-linejoin:miter; stroke-linecap:butt;
"/>
<!-- Line -->
<polyline points="4960,4877
4960,4381
" style="stroke:#000000;stroke-width:8;
stroke-linejoin:miter; stroke-linecap:butt;
"/>
<!-- Line -->
<polyline points="4393,4877
4110,4381
" style="stroke:#000000;stroke-width:8;
stroke-linejoin:miter; stroke-linecap:butt;
"/>
<!-- Line -->
<polyline points="4110,5338
4393,5338
" style="stroke:#000000;stroke-width:8;
stroke-linejoin:miter; stroke-linecap:butt;
"/>
<!-- Line -->
<polyline points="4393,8173
4391,8173
4386,8173
4375,8173
4361,8173
4340,8173
4312,8173
4280,8173
4243,8173
4202,8173
4159,8173
4114,8173
4068,8173
4023,8173
3979,8173
3935,8173
3895,8173
3855,8173
3818,8173
3782,8173
3749,8173
3716,8173
3686,8173
3656,8173
3627,8173
3598,8173
3571,8173
3543,8173
3510,8173
3478,8173
3444,8173
3412,8173
3377,8173
3343,8173
3309,8173
3274,8173
3239,8173
3205,8173
3171,8173
3138,8173
3104,8173
3072,8173
3042,8173
3013,8173
2984,8173
2958,8173
2934,8173
2911,8173
2889,8173
2870,8173
2851,8173
2692,8173
" style="stroke:#000000;stroke-width:8;
stroke-linejoin:bevel; stroke-linecap:butt;
"/>
<!-- Line -->
<polyline points="4960,5798
4960,5800
4960,5805
4960,5815
4960,5828
4960,5848
4960,5874
4960,5905
4960,5942
4960,5982
4960,6026
4960,6072
4960,6119
4960,6167
4960,6215
4960,6262
4960,6307
4960,6351
4960,6392
4960,6432
4960,6470
4960,6507
4960,6541
4960,6574
4960,6605
4960,6637
4960,6667
4960,6697
4960,6726
4960,6755
4960,6789
4960,6823
4960,6857
4960,6892
4960,6927
4960,6962
4960,6998
4960,7034
4960,7069
4960,7105
4960,7142
4960,7176
4960,7211
4960,7246
4960,7278
4960,7311
4960,7341
4960,7371
4960,7399
4960,7425
4960,7450
4960,7474
4960,7496
4960,7517
4960,7534
4960,7712
" style="stroke:#000000;stroke-width:8;
stroke-linejoin:bevel; stroke-linecap:butt;
"/>
<!-- Line -->
<polyline points="3543,6295
3543,5798
" style="stroke:#000000;stroke-width:8;
stroke-linejoin:miter; stroke-linecap:butt;
"/>
<!-- Line -->
<polyline points="2976,6295
2692,5798
" style="stroke:#000000;stroke-width:8;
stroke-linejoin:miter; stroke-linecap:butt;
"/>
<!-- Line -->
<polyline points="2976,7215
2692,7712
" style="stroke:#000000;stroke-width:8;
stroke-linejoin:miter; stroke-linecap:butt;
"/>
<!-- Line -->
<polyline points="4110,6295
4393,5798
" style="stroke:#000000;stroke-width:8;
stroke-linejoin:miter; stroke-linecap:butt;
"/>
<!-- Line -->
<polyline points="4393,7712
4110,7215
" style="stroke:#000000;stroke-width:8;
stroke-linejoin:miter; stroke-linecap:butt;
"/>
<!-- Line -->
<polyline points="5527,5338
5685,5338
" style="stroke:#000000;stroke-width:8;
stroke-linejoin:miter; stroke-linecap:butt;
"/>
<!-- Arrowhead on XXXpoint 5527 5338 - 5826 5338-->
<polygon points="5683 5370
5809 5338
5683 5307
5683 5370

" style="stroke:#000000;stroke-width:8;
fill:#000000;"/>
<!-- Line -->
<polyline points="6944,5338
7228,5338
" style="stroke:#000000;stroke-width:8;
stroke-linejoin:miter; stroke-linecap:butt;
"/>
<!-- Line: box -->
<rect x="7227" y="4877" width="1133" height="920" rx="0" 
style="stroke:#000000;stroke-width:8;
stroke-linejoin:miter; stroke-linecap:butt;
fill:#bdbdbd;
"/>
<!-- Line: box -->
<rect x="5809" y="4877" width="1133" height="920" rx="0" 
style="stroke:#000000;stroke-width:8;
stroke-linejoin:miter; stroke-linecap:butt;
fill:#ffffff;
"/>
<!-- Line: box -->
<rect x="2976" y="6295" width="1133" height="920" rx="0" 
style="stroke:#000000;stroke-width:8;
stroke-linejoin:miter; stroke-linecap:butt;
fill:#ffffff;
"/>
<!-- Line: box -->
<rect x="4392" y="7712" width="1133" height="920" rx="0" 
style="stroke:#000000;stroke-width:8;
stroke-linejoin:miter; stroke-linecap:butt;
fill:#ffffff;
"/>
<!-- Line: box -->
<rect x="4392" y="4877" width="1133" height="920" rx="0" 
style="stroke:#000000;stroke-width:8;
stroke-linejoin:miter; stroke-linecap:butt;
fill:#ffffff;
"/>
<!-- Line: box -->
<rect x="2976" y="4877" width="1133" height="920" rx="0" 
style="stroke:#000000;stroke-width:8;
stroke-linejoin:miter; stroke-linecap:butt;
fill:#ffffff;
"/>
<!-- Line: box -->
<rect x="4392" y="3460" width="1133" height="920" rx="0" 
style="stroke:#000000;stroke-width:8;
stroke-linejoin:miter; stroke-linecap:butt;
fill:#ffffff;
"/>
<!-- Line: box -->
<rect x="2976" y="3460" width="1133" height="920" rx="0" 
style="stroke:#000000;stroke-width:8;
stroke-linejoin:miter; stroke-linecap:butt;
fill:#ffffff;
"/>
<!-- Line: box -->
<rect x="1559" y="3460" width="1133" height="920" rx="0" 
style="stroke:#000000;stroke-width:8;
stroke-linejoin:miter; stroke-linecap:butt;
fill:#ffffff;
"/>
<!-- Line: box -->
<rect x="1559" y="4877" width="1133" height="920" rx="0" 
style="stroke:#000000;stroke-width:8;
stroke-linejoin:miter; stroke-linecap:butt;
fill:#ffffff;
"/>
<!-- Line: box -->
<rect x="1559" y="7712" width="1133" height="920" rx="0" 
style="stroke:#000000;stroke-width:8;
stroke-linejoin:miter; stroke-linecap:butt;
fill:#bdbdbd;
"/>
<!-- Text -->
<text xml:space="preserve" x="7800" y="5382" stroke="#000000" fill="#000000" font-family="Times" font-style="normal" font-weight="bold" font-size="126" text-anchor="middle">Wading (1)</text>
<!-- Text -->
<text xml:space="preserve" x="6383" y="5382" stroke="#000000" fill="#000000" font-family="Times" font-style="normal" font-weight="bold" font-size="126" text-anchor="middle">Long Water</text>
<!-- Text -->
<text xml:space="preserve" x="3548" y="6579" stroke="#000000" fill="#000000" font-family="Times" font-style="normal" font-weight="bold" font-size="126" text-anchor="middle">The Wabe</text>
<!-- Text -->
<text xml:space="preserve" x="3548" y="6990" stroke="#000000" fill="#000000" font-family="Times" font-style="italic" font-weight="normal" font-size="76" text-anchor="middle">Sundial, Gnomon</text>
<!-- Text -->
<text xml:space="preserve" x="4965" y="7996" stroke="#000000" fill="#000000" font-family="Times" font-style="normal" font-weight="bold" font-size="126" text-anchor="middle">Flower Walk</text>
<!-- Text -->
<text xml:space="preserve" x="4965" y="8407" stroke="#000000" fill="#000000" font-family="Times" font-style="italic" font-weight="normal" font-size="76" text-anchor="middle">Soccer Ball</text>
<!-- Text -->
<text xml:space="preserve" x="4965" y="5075" stroke="#000000" fill="#000000" font-family="Times" font-style="normal" font-weight="bold" font-size="126" text-anchor="middle">Lancaster</text>
<!-- Text -->
<text xml:space="preserve" x="4965" y="5249" stroke="#000000" fill="#000000" font-family="Times" font-style="normal" font-weight="bold" font-size="126" text-anchor="middle">Walk</text>
<!-- Text -->
<text xml:space="preserve" x="4965" y="5572" stroke="#000000" fill="#000000" font-family="Times" font-style="italic" font-weight="normal" font-size="76" text-anchor="middle">Printed Notice</text>
<!-- Text -->
<text xml:space="preserve" x="3548" y="5162" stroke="#000000" fill="#000000" font-family="Times" font-style="normal" font-weight="bold" font-size="126" text-anchor="middle">Round Pond</text>
<!-- Text -->
<text xml:space="preserve" x="3548" y="5572" stroke="#000000" fill="#000000" font-family="Times" font-style="italic" font-weight="normal" font-size="76" text-anchor="middle">Paper Bird</text>
<!-- Text -->
<text xml:space="preserve" x="4965" y="3657" stroke="#000000" fill="#000000" font-family="Times" font-style="normal" font-weight="bold" font-size="126" text-anchor="middle">Lancaster</text>
<!-- Text -->
<text xml:space="preserve" x="4965" y="3832" stroke="#000000" fill="#000000" font-family="Times" font-style="normal" font-weight="bold" font-size="126" text-anchor="middle">Gate</text>
<!-- Text -->
<text xml:space="preserve" x="4965" y="4155" stroke="#000000" fill="#000000" font-family="Times" font-style="italic" font-weight="normal" font-size="76" text-anchor="middle">Old Woman, Umbrella</text>
<!-- Text -->
<text xml:space="preserve" x="3548" y="3657" stroke="#000000" fill="#000000" font-family="Times" font-style="normal" font-weight="bold" font-size="126" text-anchor="middle">Inverness</text>
<!-- Text -->
<text xml:space="preserve" x="3548" y="3832" stroke="#000000" fill="#000000" font-family="Times" font-style="normal" font-weight="bold" font-size="126" text-anchor="middle">Terrace</text>
<!-- Text -->
<text xml:space="preserve" x="3548" y="4155" stroke="#000000" fill="#000000" font-family="Times" font-style="italic" font-weight="normal" font-size="76" text-anchor="middle">Bubble Boy</text>
<!-- Text -->
<text xml:space="preserve" x="2131" y="3657" stroke="#000000" fill="#000000" font-family="Times" font-style="normal" font-weight="bold" font-size="126" text-anchor="middle">Black Lion</text>
<!-- Text -->
<text xml:space="preserve" x="2131" y="3832" stroke="#000000" fill="#000000" font-family="Times" font-style="normal" font-weight="bold" font-size="126" text-anchor="middle">Gate</text>
<!-- Text -->
<text xml:space="preserve" x="2131" y="4155" stroke="#000000" fill="#000000" font-family="Times" font-style="italic" font-weight="normal" font-size="76" text-anchor="middle">Perambulator</text>
<!-- Text -->
<text xml:space="preserve" x="2131" y="5162" stroke="#000000" fill="#000000" font-family="Times" font-style="normal" font-weight="bold" font-size="126" text-anchor="middle">Broad Walk</text>
<!-- Text -->
<text xml:space="preserve" x="2131" y="5572" stroke="#000000" fill="#000000" font-family="Times" font-style="italic" font-weight="normal" font-size="76" text-anchor="middle">Bird Woman</text>
<!-- Text -->
<text xml:space="preserve" x="2131" y="8217" stroke="#000000" fill="#000000" font-family="Times" font-style="normal" font-weight="bold" font-size="126" text-anchor="middle">Palace Gate</text>
</g>
</svg>
