<?xml version="1.0" standalone="no"?>
<!DOCTYPE svg PUBLIC "-//W3C//DTD SVG 1.1//EN"
"http://www.w3.org/Graphics/SVG/1.1/DTD/svg11.dtd">
<!-- Creator: fig2dev Version 3.2 Patchlevel 5 -->
<!-- CreationDate: Wed Jan  9 15:35:53 2019 -->
<!-- Magnification: 1.050 -->
<svg xmlns="http://www.w3.org/2000/svg" width="8.1in" height="7.9in" viewBox="1002 1321 9733 9521">
<g style="stroke-width:.025in; stroke:black; fill:none">
<!-- Line: box -->
<rect x="6684" y="4239" width="1133" height="921" rx="0" 
style="stroke:#aa3333;stroke-width:8;
stroke-linejoin:miter; stroke-linecap:butt;
fill:#aa3333;
"/>
<!-- Line: box -->
<rect x="8101" y="8491" width="1133" height="921" rx="0" 
style="stroke:#7e7e7e;stroke-width:8;
stroke-linejoin:miter; stroke-linecap:butt;
fill:#7e7e7e;
"/>
<!-- Line: box -->
<rect x="5267" y="9908" width="1133" height="921" rx="0" 
style="stroke:#7e7e7e;stroke-width:8;
stroke-linejoin:miter; stroke-linecap:butt;
fill:#7e7e7e;
"/>
<!-- Line: box -->
<rect x="2432" y="8491" width="1133" height="921" rx="0" 
style="stroke:#7e7e7e;stroke-width:8;
stroke-linejoin:miter; stroke-linecap:butt;
fill:#7e7e7e;
"/>
<!-- Line: box -->
<rect x="1015" y="5656" width="1133" height="921" rx="0" 
style="stroke:#7e7e7e;stroke-width:8;
stroke-linejoin:miter; stroke-linecap:butt;
fill:#7e7e7e;
"/>
<!-- Line: box -->
<rect x="2432" y="2822" width="1133" height="921" rx="0" 
style="stroke:#7e7e7e;stroke-width:8;
stroke-linejoin:miter; stroke-linecap:butt;
fill:#7e7e7e;
"/>
<!-- Line: box -->
<rect x="5267" y="1404" width="1133" height="921" rx="0" 
style="stroke:#7e7e7e;stroke-width:8;
stroke-linejoin:miter; stroke-linecap:butt;
fill:#7e7e7e;
"/>
<!-- Line: box -->
<rect x="8101" y="2822" width="1133" height="921" rx="0" 
style="stroke:#7e7e7e;stroke-width:8;
stroke-linejoin:miter; stroke-linecap:butt;
fill:#7e7e7e;
"/>
<!-- Line: box -->
<rect x="9519" y="5656" width="1133" height="921" rx="0" 
style="stroke:#7e7e7e;stroke-width:8;
stroke-linejoin:miter; stroke-linecap:butt;
fill:#7e7e7e;
"/>
<!-- Line: box -->
<rect x="6684" y="7074" width="1133" height="921" rx="0" 
style="stroke:#aa3333;stroke-width:8;
stroke-linejoin:miter; stroke-linecap:butt;
fill:#aa3333;
"/>
<!-- Line: box -->
<rect x="6684" y="5656" width="1133" height="921" rx="0" 
style="stroke:#7e7e7e;stroke-width:8;
stroke-linejoin:miter; stroke-linecap:butt;
fill:#7e7e7e;
"/>
<!-- Line: box -->
<rect x="5267" y="5656" width="1133" height="921" rx="0" 
style="stroke:#7e7e7e;stroke-width:8;
stroke-linejoin:miter; stroke-linecap:butt;
fill:#7e7e7e;
"/>
<!-- Line -->
<polyline points="6472,6047
6755,6047
" style="stroke:#000000;stroke-width:8;
stroke-linejoin:miter; stroke-linecap:butt;
"/>
<!-- Line -->
<polyline points="7322,6507
7322,7003
" style="stroke:#aa3333;stroke-width:16;
stroke-linejoin:miter; stroke-linecap:butt;
stroke-dasharray:10 10;"/>
<!-- Line -->
<polyline points="6755,7003
6472,6507
" style="stroke:#aa3333;stroke-width:16;
stroke-linejoin:miter; stroke-linecap:butt;
stroke-dasharray:10 10;"/>
<!-- Line -->
<polyline points="7889,6047
7891,6047
7897,6047
7907,6047
7922,6047
7943,6047
7970,6047
8003,6047
8039,6047
8080,6047
8123,6047
8169,6047
8215,6047
8260,6047
8304,6047
8347,6047
8388,6047
8428,6047
8465,6047
8500,6047
8534,6047
8566,6047
8597,6047
8626,6047
8656,6047
8684,6047
8711,6047
8740,6047
8772,6047
8805,6047
8838,6047
8871,6047
8906,6047
8939,6047
8974,6047
9008,6047
9043,6047
9078,6047
9111,6047
9145,6047
9179,6047
9210,6047
9240,6047
9270,6047
9298,6047
9324,6047
9349,6047
9372,6047
9394,6047
9413,6047
9432,6047
9590,6047
" style="stroke:#aa3333;stroke-width:16;
stroke-linejoin:bevel; stroke-linecap:butt;
stroke-dasharray:10 10;"/>
<!-- Line -->
<polyline points="10157,5586
10157,5584
10157,5579
10156,5569
10156,5555
10155,5535
10154,5510
10153,5479
10151,5442
10149,5402
10146,5358
10143,5312
10140,5265
10137,5216
10133,5169
10129,5123
10123,5077
10118,5034
10113,4992
10107,4952
10100,4914
10094,4878
10087,4844
10078,4811
10070,4779
10060,4748
10050,4718
10039,4688
10028,4659
10015,4629
10002,4600
9988,4571
9972,4541
9956,4511
9940,4481
9922,4451
9903,4420
9883,4389
9863,4359
9842,4327
9821,4296
9799,4264
9777,4234
9755,4203
9732,4173
9709,4143
9687,4114
9665,4086
9643,4058
9622,4032
9601,4007
9581,3983
9561,3961
9542,3939
9524,3918
9507,3899
9491,3880
9476,3863
9462,3846
9307,3672
" style="stroke:#000000;stroke-width:8;
stroke-linejoin:bevel; stroke-linecap:butt;
"/>
<!-- Line -->
<polyline points="8740,3672
8740,3674
8740,3679
8741,3689
8741,3702
8742,3722
8743,3748
8744,3779
8746,3816
8748,3856
8750,3900
8753,3946
8756,3993
8760,4041
8764,4089
8768,4136
8773,4181
8779,4225
8784,4266
8790,4306
8796,4344
8803,4381
8810,4415
8818,4448
8827,4479
8836,4511
8847,4541
8857,4571
8869,4600
8881,4629
8895,4659
8909,4688
8924,4718
8940,4747
8957,4777
8975,4808
8994,4838
9014,4869
9034,4900
9055,4932
9076,4962
9098,4994
9120,5025
9142,5056
9165,5085
9188,5116
9210,5144
9232,5172
9254,5200
9275,5226
9296,5251
9316,5275
9336,5298
9355,5320
9373,5340
9390,5360
9405,5378
9421,5395
9435,5412
9590,5586
" style="stroke:#000000;stroke-width:8;
stroke-linejoin:bevel; stroke-linecap:butt;
"/>
<!-- Line -->
<polyline points="8172,3212
8170,3212
8164,3212
8154,3211
8139,3211
8118,3210
8091,3208
8058,3206
8022,3204
7981,3201
7938,3197
7892,3194
7847,3189
7801,3185
7757,3180
7714,3173
7673,3167
7634,3161
7596,3153
7562,3145
7528,3137
7496,3127
7465,3118
7435,3106
7406,3095
7378,3082
7350,3067
7322,3053
7296,3038
7270,3021
7244,3004
7217,2986
7191,2967
7164,2948
7137,2927
7109,2904
7081,2881
7054,2858
7026,2834
6998,2809
6971,2784
6943,2759
6917,2733
6891,2708
6865,2683
6839,2658
6815,2633
6792,2608
6770,2585
6748,2562
6728,2540
6708,2519
6690,2499
6672,2480
6657,2462
6641,2446
6627,2429
6472,2255
" style="stroke:#000000;stroke-width:8;
stroke-linejoin:bevel; stroke-linecap:butt;
"/>
<!-- Line -->
<polyline points="6472,1795
6474,1795
6479,1795
6490,1796
6504,1796
6525,1797
6553,1799
6585,1801
6622,1803
6663,1806
6706,1809
6751,1813
6797,1818
6843,1822
6887,1827
6930,1834
6971,1840
7011,1846
7047,1854
7083,1861
7117,1870
7149,1879
7180,1889
7209,1900
7238,1912
7267,1925
7294,1939
7322,1954
7349,1969
7374,1986
7400,2003
7427,2020
7454,2039
7481,2059
7508,2080
7535,2102
7563,2125
7591,2149
7618,2173
7646,2197
7673,2222
7700,2247
7728,2274
7754,2299
7779,2324
7804,2349
7828,2373
7851,2397
7875,2420
7896,2444
7916,2466
7935,2487
7953,2507
7971,2525
7987,2543
8003,2560
8016,2577
8172,2751
" style="stroke:#000000;stroke-width:8;
stroke-linejoin:bevel; stroke-linecap:butt;
"/>
<!-- Line -->
<polyline points="5338,1795
5336,1795
5331,1795
5320,1796
5306,1796
5285,1797
5257,1799
5225,1801
5188,1803
5147,1806
5104,1809
5059,1813
5013,1818
4967,1822
4923,1827
4880,1834
4839,1840
4800,1846
4763,1854
4727,1861
4693,1870
4661,1879
4630,1889
4601,1900
4572,1912
4543,1925
4516,1939
4488,1954
4461,1969
4435,1986
4409,2003
4383,2020
4356,2039
4329,2059
4302,2080
4275,2102
4246,2125
4219,2149
4192,2173
4163,2197
4136,2222
4109,2247
4082,2274
4056,2299
4030,2324
4005,2349
3981,2373
3958,2397
3935,2420
3913,2444
3893,2466
3874,2487
3856,2507
3838,2525
3822,2543
3806,2560
3793,2577
3637,2751
" style="stroke:#000000;stroke-width:8;
stroke-linejoin:bevel; stroke-linecap:butt;
"/>
<!-- Line -->
<polyline points="3637,3212
3639,3212
3645,3212
3655,3211
3670,3211
3691,3210
3718,3208
3751,3206
3787,3204
3828,3201
3871,3197
3917,3194
3963,3189
4008,3185
4052,3180
4095,3173
4136,3167
4176,3161
4213,3153
4248,3145
4282,3137
4314,3127
4345,3118
4374,3106
4404,3095
4432,3082
4459,3067
4488,3053
4514,3038
4540,3021
4566,3004
4593,2986
4619,2967
4646,2948
4674,2927
4701,2904
4729,2881
4756,2858
4784,2834
4812,2809
4839,2784
4867,2759
4893,2733
4919,2708
4945,2683
4971,2658
4995,2633
5018,2608
5040,2585
5062,2562
5082,2540
5102,2519
5120,2499
5138,2480
5153,2462
5169,2446
5183,2429
5338,2255
" style="stroke:#000000;stroke-width:8;
stroke-linejoin:bevel; stroke-linecap:butt;
"/>
<!-- Line -->
<polyline points="3070,3672
3070,3674
3070,3679
3069,3689
3069,3702
3068,3722
3067,3748
3066,3779
3064,3816
3062,3856
3060,3900
3057,3946
3054,3993
3050,4041
3046,4089
3042,4136
3037,4181
3032,4225
3026,4266
3020,4306
3014,4344
3007,4381
3000,4415
2992,4448
2983,4479
2974,4511
2963,4541
2953,4571
2941,4600
2929,4629
2915,4659
2901,4688
2886,4718
2870,4747
2853,4777
2835,4808
2816,4838
2796,4869
2776,4900
2755,4932
2734,4962
2712,4994
2690,5025
2668,5056
2645,5085
2622,5116
2600,5144
2578,5172
2556,5200
2535,5226
2514,5251
2494,5275
2474,5298
2455,5320
2437,5340
2420,5360
2405,5378
2389,5395
2375,5412
2220,5586
" style="stroke:#000000;stroke-width:8;
stroke-linejoin:bevel; stroke-linecap:butt;
"/>
<!-- Line -->
<polyline points="1653,5586
1653,5584
1653,5579
1654,5569
1654,5555
1655,5535
1656,5510
1657,5479
1659,5442
1661,5402
1664,5358
1667,5312
1670,5265
1673,5216
1677,5169
1681,5123
1687,5077
1692,5034
1697,4992
1703,4952
1710,4914
1716,4878
1723,4844
1732,4811
1740,4779
1750,4748
1760,4718
1771,4688
1782,4659
1795,4629
1808,4600
1822,4571
1838,4541
1854,4511
1870,4481
1888,4451
1907,4420
1927,4389
1947,4359
1968,4327
1989,4296
2011,4264
2033,4234
2055,4203
2078,4173
2101,4143
2123,4114
2145,4086
2167,4058
2188,4032
2209,4007
2229,3983
2249,3961
2268,3939
2286,3918
2303,3899
2319,3880
2334,3863
2348,3846
2503,3672
" style="stroke:#000000;stroke-width:8;
stroke-linejoin:bevel; stroke-linecap:butt;
"/>
<!-- Line -->
<polyline points="1653,6507
1653,6509
1653,6514
1654,6523
1654,6537
1655,6557
1656,6582
1657,6614
1659,6650
1661,6690
1664,6734
1667,6781
1670,6828
1673,6876
1677,6923
1681,6971
1687,7016
1692,7060
1697,7101
1703,7141
1710,7179
1716,7215
1723,7250
1732,7282
1740,7314
1750,7345
1760,7376
1771,7405
1782,7435
1795,7464
1808,7493
1822,7523
1838,7552
1854,7582
1870,7612
1888,7643
1907,7673
1927,7703
1947,7735
1968,7766
1989,7797
2011,7828
2033,7860
2055,7890
2078,7920
2101,7950
2123,7979
2145,8007
2167,8034
2188,8060
2209,8086
2229,8110
2249,8133
2268,8155
2286,8175
2303,8195
2319,8213
2334,8229
2348,8246
2503,8420
" style="stroke:#000000;stroke-width:8;
stroke-linejoin:bevel; stroke-linecap:butt;
"/>
<!-- Line -->
<polyline points="3070,8420
3070,8418
3070,8413
3069,8404
3069,8390
3068,8370
3067,8345
3066,8313
3064,8277
3062,8237
3060,8193
3057,8146
3054,8099
3050,8051
3046,8004
3042,7958
3037,7911
3032,7868
3026,7826
3020,7786
3014,7749
3007,7713
3000,7678
2992,7646
2983,7613
2974,7583
2963,7552
2953,7523
2941,7493
2929,7464
2915,7435
2901,7405
2886,7376
2870,7345
2853,7316
2835,7286
2816,7255
2796,7224
2776,7193
2755,7162
2734,7130
2712,7099
2690,7068
2668,7038
2645,7007
2622,6978
2600,6949
2578,6920
2556,6893
2535,6867
2514,6841
2494,6817
2474,6795
2455,6773
2437,6752
2420,6733
2405,6714
2389,6698
2375,6681
2220,6507
" style="stroke:#000000;stroke-width:8;
stroke-linejoin:bevel; stroke-linecap:butt;
"/>
<!-- Line -->
<polyline points="3637,8881
3639,8881
3645,8881
3655,8882
3670,8882
3691,8883
3718,8886
3751,8888
3787,8890
3828,8893
3871,8896
3917,8899
3963,8904
4008,8909
4052,8914
4095,8920
4136,8927
4176,8933
4213,8940
4248,8948
4282,8957
4314,8965
4345,8976
4374,8986
4404,8999
4432,9012
4459,9025
4488,9041
4514,9056
4540,9072
4566,9089
4593,9107
4619,9126
4646,9146
4674,9167
4701,9189
4729,9212
4756,9235
4784,9259
4812,9283
4839,9309
4867,9334
4893,9360
4919,9385
4945,9411
4971,9436
4995,9460
5018,9484
5040,9507
5062,9530
5082,9552
5102,9573
5120,9593
5138,9612
5153,9630
5169,9647
5183,9664
5338,9838
" style="stroke:#aa3333;stroke-width:16;
stroke-linejoin:bevel; stroke-linecap:butt;
stroke-dasharray:10 10;"/>
<!-- Line -->
<polyline points="5338,10299
5336,10299
5331,10299
5320,10298
5306,10298
5285,10297
5257,10295
5225,10292
5188,10290
5147,10287
5104,10284
5059,10281
5013,10276
4967,10271
4923,10266
4880,10260
4839,10254
4800,10247
4763,10240
4727,10232
4693,10223
4661,10214
4630,10204
4601,10193
4572,10181
4543,10169
4516,10154
4488,10139
4461,10124
4435,10108
4409,10091
4383,10073
4356,10054
4329,10034
4302,10013
4275,9991
4246,9968
4219,9945
4192,9921
4163,9896
4136,9870
4109,9845
4082,9820
4056,9795
4030,9770
4005,9744
3981,9719
3958,9695
3935,9672
3913,9649
3893,9627
3874,9606
3856,9586
3838,9567
3822,9549
3806,9532
3793,9516
3637,9341
" style="stroke:#aa3333;stroke-width:16;
stroke-linejoin:bevel; stroke-linecap:butt;
stroke-dasharray:10 10;"/>
<!-- Line -->
<polyline points="6472,10299
6474,10299
6479,10299
6490,10298
6504,10298
6525,10297
6553,10295
6585,10292
6622,10290
6663,10287
6706,10284
6751,10281
6797,10276
6843,10271
6887,10266
6930,10260
6971,10254
7011,10247
7047,10240
7083,10232
7117,10223
7149,10214
7180,10204
7209,10193
7238,10181
7267,10169
7294,10154
7322,10139
7349,10124
7374,10108
7400,10091
7427,10073
7454,10054
7481,10034
7508,10013
7535,9991
7563,9968
7591,9945
7618,9921
7646,9896
7673,9870
7700,9845
7728,9820
7754,9795
7779,9770
7804,9744
7828,9719
7851,9695
7875,9672
7896,9649
7916,9627
7935,9606
7953,9586
7971,9567
7987,9549
8003,9532
8016,9516
8172,9341
" style="stroke:#000000;stroke-width:8;
stroke-linejoin:bevel; stroke-linecap:butt;
"/>
<!-- Line -->
<polyline points="8172,8881
8170,8881
8164,8881
8154,8882
8139,8882
8118,8883
8091,8886
8058,8888
8022,8890
7981,8893
7938,8896
7892,8899
7847,8904
7801,8909
7757,8914
7714,8920
7673,8927
7634,8933
7596,8940
7562,8948
7528,8957
7496,8965
7465,8976
7435,8986
7406,8999
7378,9012
7350,9025
7322,9041
7296,9056
7270,9072
7244,9089
7217,9107
7191,9126
7164,9146
7137,9167
7109,9189
7081,9212
7054,9235
7026,9259
6998,9283
6971,9309
6943,9334
6917,9360
6891,9385
6865,9411
6839,9436
6815,9460
6792,9484
6770,9507
6748,9530
6728,9552
6708,9573
6690,9593
6672,9612
6657,9630
6641,9647
6627,9664
6472,9838
" style="stroke:#000000;stroke-width:8;
stroke-linejoin:bevel; stroke-linecap:butt;
"/>
<!-- Line -->
<polyline points="7322,5586
7322,5089
" style="stroke:#aa3333;stroke-width:16;
stroke-linejoin:miter; stroke-linecap:butt;
stroke-dasharray:10 10;"/>
<!-- Line -->
<polyline points="5338,6047
5055,6047
" style="stroke:#000000;stroke-width:8;
stroke-linejoin:miter; stroke-linecap:butt;
"/>
<!-- Line -->
<polyline points="6755,4169
6533,3780
" style="stroke:#aa3333;stroke-width:16;
stroke-linejoin:miter; stroke-linecap:butt;
stroke-dasharray:10 10;"/>
<!-- Arrowhead on XXXpoint 6755 4169 - 6456 3644-->
<polygon points="6554 3752
6465 3658
6499 3783
6554 3752

" style="stroke:#aa3333;stroke-width:8;
fill:#aa3333;"/>
<!-- Text -->
<text xml:space="preserve" x="7322" y="6755" stroke="#aa3333" fill="#aa3333" font-family="Times" font-style="normal" font-weight="normal" font-size="101" text-anchor="middle">U/D</text>
<!-- Text -->
<text xml:space="preserve" x="8314" y="6047" stroke="#aa3333" fill="#aa3333" font-family="Times" font-style="normal" font-weight="normal" font-size="101" text-anchor="middle">U/D</text>
<!-- Line: box -->
<rect x="5337" y="2751" width="1133" height="920" rx="0" 
style="stroke:#000000;stroke-width:8;
stroke-linejoin:miter; stroke-linecap:butt;
stroke-dasharray:10 10;fill:#ffffff;
"/>
<!-- Line: box -->
<rect x="3920" y="5586" width="1133" height="920" rx="0" 
style="stroke:#000000;stroke-width:8;
stroke-linejoin:miter; stroke-linecap:butt;
stroke-dasharray:10 10;fill:#ffffff;
"/>
<!-- Line: box -->
<rect x="6754" y="4169" width="1133" height="920" rx="0" 
style="stroke:#aa3333;stroke-width:8;
stroke-linejoin:miter; stroke-linecap:butt;
fill:#ffffff;
"/>
<!-- Line: box -->
<rect x="8172" y="8420" width="1133" height="920" rx="0" 
style="stroke:#000000;stroke-width:8;
stroke-linejoin:miter; stroke-linecap:butt;
fill:#ffffcc;
"/>
<!-- Line: box -->
<rect x="5337" y="9838" width="1133" height="920" rx="0" 
style="stroke:#000000;stroke-width:8;
stroke-linejoin:miter; stroke-linecap:butt;
fill:#ffffcc;
"/>
<!-- Line: box -->
<rect x="2503" y="8420" width="1133" height="920" rx="0" 
style="stroke:#000000;stroke-width:8;
stroke-linejoin:miter; stroke-linecap:butt;
fill:#ffffcc;
"/>
<!-- Line: box -->
<rect x="1086" y="5586" width="1133" height="920" rx="0" 
style="stroke:#000000;stroke-width:8;
stroke-linejoin:miter; stroke-linecap:butt;
fill:#ffffcc;
"/>
<!-- Line: box -->
<rect x="2503" y="2751" width="1133" height="920" rx="0" 
style="stroke:#000000;stroke-width:8;
stroke-linejoin:miter; stroke-linecap:butt;
fill:#ffffcc;
"/>
<!-- Line: box -->
<rect x="5337" y="1334" width="1133" height="920" rx="0" 
style="stroke:#000000;stroke-width:8;
stroke-linejoin:miter; stroke-linecap:butt;
fill:#ffffcc;
"/>
<!-- Line: box -->
<rect x="8172" y="2751" width="1133" height="920" rx="0" 
style="stroke:#000000;stroke-width:8;
stroke-linejoin:miter; stroke-linecap:butt;
fill:#ffffcc;
"/>
<!-- Line: box -->
<rect x="9590" y="5586" width="1132" height="920" rx="0" 
style="stroke:#000000;stroke-width:8;
stroke-linejoin:miter; stroke-linecap:butt;
fill:#ffffcc;
"/>
<!-- Line: box -->
<rect x="6754" y="7003" width="1133" height="920" rx="0" 
style="stroke:#aa3333;stroke-width:8;
stroke-linejoin:miter; stroke-linecap:butt;
fill:#ffffff;
"/>
<!-- Line: box -->
<rect x="6754" y="5586" width="1133" height="920" rx="0" 
style="stroke:#000000;stroke-width:8;
stroke-linejoin:miter; stroke-linecap:butt;
fill:#ccffff;
"/>
<!-- Line: box -->
<rect x="5337" y="5586" width="1133" height="920" rx="0" 
style="stroke:#000000;stroke-width:8;
stroke-linejoin:miter; stroke-linecap:butt;
fill:#ccffff;
"/>
<!-- Text -->
<text xml:space="preserve" x="5910" y="3256" stroke="#000000" fill="#000000" font-family="Times" font-style="italic" font-weight="normal" font-size="126" text-anchor="middle">Grey Chamber</text>
<!-- Text -->
<text xml:space="preserve" x="4493" y="6091" stroke="#000000" fill="#000000" font-family="Times" font-style="italic" font-weight="normal" font-size="126" text-anchor="middle">Dead End</text>
<!-- Text -->
<text xml:space="preserve" x="7328" y="4586" stroke="#aa3333" fill="#aa3333" font-family="Times" font-style="normal" font-weight="bold" font-size="126" text-anchor="middle">Cistern,</text>
<!-- Text -->
<text xml:space="preserve" x="7328" y="4761" stroke="#aa3333" fill="#aa3333" font-family="Times" font-style="normal" font-weight="bold" font-size="126" text-anchor="middle">Rising</text>
<!-- Text -->
<text xml:space="preserve" x="8745" y="8628" stroke="#000000" fill="#000000" font-family="Times" font-style="normal" font-weight="bold" font-size="101" text-anchor="middle">Cistern Catwalk,</text>
<!-- Text -->
<text xml:space="preserve" x="8745" y="8767" stroke="#000000" fill="#000000" font-family="Times" font-style="normal" font-weight="bold" font-size="101" text-anchor="middle">Southeast</text>
<!-- Text -->
<text xml:space="preserve" x="8745" y="9116" stroke="#000000" fill="#000000" font-family="Times" font-style="italic" font-weight="normal" font-size="76" text-anchor="middle">brass grate</text>
<!-- Text -->
<text xml:space="preserve" x="5910" y="10169" stroke="#000000" fill="#000000" font-family="Times" font-style="normal" font-weight="bold" font-size="126" text-anchor="middle">Cistern</text>
<!-- Text -->
<text xml:space="preserve" x="5910" y="10343" stroke="#000000" fill="#000000" font-family="Times" font-style="normal" font-weight="bold" font-size="126" text-anchor="middle">Catwalk,</text>
<!-- Text -->
<text xml:space="preserve" x="5910" y="10517" stroke="#000000" fill="#000000" font-family="Times" font-style="normal" font-weight="bold" font-size="126" text-anchor="middle">South</text>
<!-- Text -->
<text xml:space="preserve" x="3076" y="8751" stroke="#000000" fill="#000000" font-family="Times" font-style="normal" font-weight="bold" font-size="126" text-anchor="middle">Cistern</text>
<!-- Text -->
<text xml:space="preserve" x="3076" y="8925" stroke="#000000" fill="#000000" font-family="Times" font-style="normal" font-weight="bold" font-size="126" text-anchor="middle">Catwalk,</text>
<!-- Text -->
<text xml:space="preserve" x="3076" y="9100" stroke="#000000" fill="#000000" font-family="Times" font-style="normal" font-weight="bold" font-size="126" text-anchor="middle">Southwest</text>
<!-- Text -->
<text xml:space="preserve" x="1658" y="5783" stroke="#000000" fill="#000000" font-family="Times" font-style="normal" font-weight="bold" font-size="126" text-anchor="middle">Cistern</text>
<!-- Text -->
<text xml:space="preserve" x="1658" y="5958" stroke="#000000" fill="#000000" font-family="Times" font-style="normal" font-weight="bold" font-size="126" text-anchor="middle">Catwalk, West</text>
<!-- Text -->
<text xml:space="preserve" x="1658" y="6281" stroke="#000000" fill="#000000" font-family="Times" font-style="italic" font-weight="normal" font-size="76" text-anchor="middle">medium hole</text>
<!-- Text -->
<text xml:space="preserve" x="3076" y="2958" stroke="#000000" fill="#000000" font-family="Times" font-style="normal" font-weight="bold" font-size="101" text-anchor="middle">Cistern Catwalk,</text>
<!-- Text -->
<text xml:space="preserve" x="3076" y="3098" stroke="#000000" fill="#000000" font-family="Times" font-style="normal" font-weight="bold" font-size="101" text-anchor="middle">Northwest</text>
<!-- Text -->
<text xml:space="preserve" x="3076" y="3446" stroke="#000000" fill="#000000" font-family="Times" font-style="italic" font-weight="normal" font-size="76" text-anchor="middle">large hole</text>
<!-- Text -->
<text xml:space="preserve" x="5910" y="1537" stroke="#000000" fill="#000000" font-family="Times" font-style="normal" font-weight="bold" font-size="114" text-anchor="middle">Cistern</text>
<!-- Text -->
<text xml:space="preserve" x="5910" y="1693" stroke="#000000" fill="#000000" font-family="Times" font-style="normal" font-weight="bold" font-size="114" text-anchor="middle">Catwalk, North</text>
<!-- Text -->
<text xml:space="preserve" x="5910" y="2029" stroke="#000000" fill="#000000" font-family="Times" font-style="italic" font-weight="normal" font-size="76" text-anchor="middle">small hole</text>
<!-- Text -->
<text xml:space="preserve" x="8745" y="2958" stroke="#000000" fill="#000000" font-family="Times" font-style="normal" font-weight="bold" font-size="101" text-anchor="middle">Cistern Catwalk,</text>
<!-- Text -->
<text xml:space="preserve" x="8745" y="3098" stroke="#000000" fill="#000000" font-family="Times" font-style="normal" font-weight="bold" font-size="101" text-anchor="middle">Northeast</text>
<!-- Text -->
<text xml:space="preserve" x="8745" y="3394" stroke="#000000" fill="#000000" font-family="Times" font-style="italic" font-weight="normal" font-size="76" text-anchor="middle">small gum blob, big</text>
<!-- Text -->
<text xml:space="preserve" x="8745" y="3499" stroke="#000000" fill="#000000" font-family="Times" font-style="italic" font-weight="normal" font-size="76" text-anchor="middle">gum blob, glass slab</text>
<!-- Text -->
<text xml:space="preserve" x="10162" y="5783" stroke="#000000" fill="#000000" font-family="Times" font-style="normal" font-weight="bold" font-size="126" text-anchor="middle">Cistern</text>
<!-- Text -->
<text xml:space="preserve" x="10162" y="5958" stroke="#000000" fill="#000000" font-family="Times" font-style="normal" font-weight="bold" font-size="126" text-anchor="middle">Catwalk, East</text>
<!-- Text -->
<text xml:space="preserve" x="10162" y="6281" stroke="#000000" fill="#000000" font-family="Times" font-style="italic" font-weight="normal" font-size="76" text-anchor="middle">red mask, brass pipe</text>
<!-- Text -->
<text xml:space="preserve" x="7328" y="7201" stroke="#aa3333" fill="#aa3333" font-family="Times" font-style="normal" font-weight="bold" font-size="126" text-anchor="middle">Cistern,</text>
<!-- Text -->
<text xml:space="preserve" x="7328" y="7375" stroke="#aa3333" fill="#aa3333" font-family="Times" font-style="normal" font-weight="bold" font-size="126" text-anchor="middle">Bottom</text>
<!-- Text -->
<text xml:space="preserve" x="7328" y="7646" stroke="#000000" fill="#000000" font-family="Times" font-style="italic" font-weight="normal" font-size="76" text-anchor="middle">iron wheel, brass</text>
<!-- Text -->
<text xml:space="preserve" x="7328" y="7751" stroke="#000000" fill="#000000" font-family="Times" font-style="italic" font-weight="normal" font-size="76" text-anchor="middle">grate</text>
<!-- Text -->
<text xml:space="preserve" x="7328" y="5870" stroke="#000000" fill="#000000" font-family="Times" font-style="normal" font-weight="bold" font-size="126" text-anchor="middle">Cistern, East</text>
<!-- Text -->
<text xml:space="preserve" x="7328" y="6281" stroke="#000000" fill="#000000" font-family="Times" font-style="italic" font-weight="normal" font-size="76" text-anchor="middle">iron lever</text>
<!-- Text -->
<text xml:space="preserve" x="5910" y="5783" stroke="#000000" fill="#000000" font-family="Times" font-style="normal" font-weight="bold" font-size="126" text-anchor="middle">Cistern, West</text>
<!-- Text -->
<text xml:space="preserve" x="5910" y="5958" stroke="#000000" fill="#000000" font-family="Times" font-style="normal" font-weight="bold" font-size="126" text-anchor="middle">(5)</text>
<!-- Text -->
<text xml:space="preserve" x="5910" y="6281" stroke="#000000" fill="#000000" font-family="Times" font-style="italic" font-weight="normal" font-size="76" text-anchor="middle">brass grate</text>
</g>
</svg>
