<?xml version="1.0" standalone="no"?>
<!DOCTYPE svg PUBLIC "-//W3C//DTD SVG 1.1//EN"
"http://www.w3.org/Graphics/SVG/1.1/DTD/svg11.dtd">
<!-- Creator: fig2dev Version 3.2 Patchlevel 5 -->
<!-- CreationDate: Tue Jan  8 16:54:53 2019 -->
<!-- Magnification: 1.050 -->
<svg xmlns="http://www.w3.org/2000/svg" width="10.5in" height="9.2in" viewBox="1002 1699 12569 11041">
<g style="stroke-width:.025in; stroke:black; fill:none">
<!-- Line: box -->
<rect x="6684" y="10286" width="1133" height="921" rx="0" 
style="stroke:#7e7e7e;stroke-width:8;
stroke-linejoin:miter; stroke-linecap:butt;
fill:#7e7e7e;
"/>
<!-- Line: box -->
<rect x="10936" y="11703" width="1133" height="921" rx="0" 
style="stroke:#7e7e7e;stroke-width:8;
stroke-linejoin:miter; stroke-linecap:butt;
fill:#7e7e7e;
"/>
<!-- Line: box -->
<rect x="10936" y="7451" width="1133" height="921" rx="0" 
style="stroke:#7e7e7e;stroke-width:8;
stroke-linejoin:miter; stroke-linecap:butt;
fill:#7e7e7e;
"/>
<!-- Line: box -->
<rect x="10936" y="6034" width="1133" height="921" rx="0" 
style="stroke:#7e7e7e;stroke-width:8;
stroke-linejoin:miter; stroke-linecap:butt;
fill:#7e7e7e;
"/>
<!-- Line: box -->
<rect x="5267" y="3200" width="1133" height="921" rx="0" 
style="stroke:#aa3333;stroke-width:8;
stroke-linejoin:miter; stroke-linecap:butt;
fill:#aa3333;
"/>
<!-- Line: box -->
<rect x="5267" y="1782" width="1133" height="921" rx="0" 
style="stroke:#7e7e7e;stroke-width:8;
stroke-linejoin:miter; stroke-linecap:butt;
fill:#7e7e7e;
"/>
<!-- Line: box -->
<rect x="6684" y="3200" width="1133" height="921" rx="0" 
style="stroke:#7e7e7e;stroke-width:8;
stroke-linejoin:miter; stroke-linecap:butt;
fill:#7e7e7e;
"/>
<!-- Line: box -->
<rect x="8101" y="3200" width="1133" height="921" rx="0" 
style="stroke:#7e7e7e;stroke-width:8;
stroke-linejoin:miter; stroke-linecap:butt;
fill:#7e7e7e;
"/>
<!-- Line: box -->
<rect x="1015" y="4617" width="1133" height="921" rx="0" 
style="stroke:#aa3333;stroke-width:8;
stroke-linejoin:miter; stroke-linecap:butt;
fill:#aa3333;
"/>
<!-- Line: box -->
<rect x="2432" y="3200" width="1133" height="921" rx="0" 
style="stroke:#7e7e7e;stroke-width:8;
stroke-linejoin:miter; stroke-linecap:butt;
fill:#7e7e7e;
"/>
<!-- Line: box -->
<rect x="2432" y="4617" width="1133" height="921" rx="0" 
style="stroke:#7e7e7e;stroke-width:8;
stroke-linejoin:miter; stroke-linecap:butt;
fill:#7e7e7e;
"/>
<!-- Line: box -->
<rect x="6684" y="4617" width="1133" height="921" rx="0" 
style="stroke:#7e7e7e;stroke-width:8;
stroke-linejoin:miter; stroke-linecap:butt;
fill:#7e7e7e;
"/>
<!-- Line: box -->
<rect x="9519" y="11703" width="1133" height="921" rx="0" 
style="stroke:#7e7e7e;stroke-width:8;
stroke-linejoin:miter; stroke-linecap:butt;
fill:#7e7e7e;
"/>
<!-- Line: box -->
<rect x="9519" y="7451" width="1133" height="921" rx="0" 
style="stroke:#7e7e7e;stroke-width:8;
stroke-linejoin:miter; stroke-linecap:butt;
fill:#7e7e7e;
"/>
<!-- Line: box -->
<rect x="6684" y="7451" width="1133" height="921" rx="0" 
style="stroke:#7e7e7e;stroke-width:8;
stroke-linejoin:miter; stroke-linecap:butt;
fill:#7e7e7e;
"/>
<!-- Line: box -->
<rect x="8101" y="8869" width="1133" height="921" rx="0" 
style="stroke:#7e7e7e;stroke-width:8;
stroke-linejoin:miter; stroke-linecap:butt;
fill:#7e7e7e;
"/>
<!-- Line: box -->
<rect x="6684" y="8869" width="1133" height="921" rx="0" 
style="stroke:#7e7e7e;stroke-width:8;
stroke-linejoin:miter; stroke-linecap:butt;
fill:#7e7e7e;
"/>
<!-- Line: box -->
<rect x="3849" y="10286" width="1133" height="921" rx="0" 
style="stroke:#7e7e7e;stroke-width:8;
stroke-linejoin:miter; stroke-linecap:butt;
fill:#7e7e7e;
"/>
<!-- Line: box -->
<rect x="2432" y="10286" width="1133" height="921" rx="0" 
style="stroke:#7e7e7e;stroke-width:8;
stroke-linejoin:miter; stroke-linecap:butt;
fill:#7e7e7e;
"/>
<!-- Line -->
<polyline points="7322,11137
7322,11311
" style="stroke:#000000;stroke-width:8;
stroke-linejoin:miter; stroke-linecap:butt;
"/>
<!-- Line -->
<polyline points="11574,12554
11574,12728
" style="stroke:#000000;stroke-width:8;
stroke-linejoin:miter; stroke-linecap:butt;
"/>
<!-- Line -->
<polyline points="11574,11633
11574,11459
" style="stroke:#000000;stroke-width:8;
stroke-linejoin:miter; stroke-linecap:butt;
"/>
<!-- Line -->
<polyline points="9307,3589
9405,3589
" style="stroke:#000000;stroke-width:8;
stroke-linejoin:miter; stroke-linecap:butt;
"/>
<!-- Line -->
<polyline points="8740,9719
8740,9893
" style="stroke:#000000;stroke-width:8;
stroke-linejoin:miter; stroke-linecap:butt;
"/>
<!-- Line -->
<polyline points="3637,10677
3921,10677
" style="stroke:#000000;stroke-width:8;
stroke-linejoin:miter; stroke-linecap:butt;
"/>
<!-- Line -->
<polyline points="5055,10677
5058,10677
5064,10676
5076,10676
5093,10674
5118,10672
5148,10669
5184,10666
5224,10662
5267,10657
5312,10650
5357,10644
5401,10636
5443,10627
5484,10618
5522,10608
5556,10597
5589,10585
5618,10572
5646,10558
5670,10542
5692,10525
5712,10507
5731,10487
5748,10465
5763,10440
5776,10418
5787,10394
5799,10369
5809,10342
5820,10314
5829,10284
5839,10254
5847,10221
5857,10187
5865,10153
5874,10117
5881,10080
5889,10044
5898,10006
5905,9968
5912,9930
5921,9892
5929,9856
5937,9819
5945,9783
5953,9749
5963,9715
5971,9682
5981,9652
5990,9622
6001,9594
6011,9567
6023,9542
6034,9518
6047,9496
6062,9471
6079,9449
6097,9428
6116,9408
6136,9391
6158,9374
6180,9359
6203,9344
6227,9332
6253,9320
6278,9310
6304,9300
6330,9292
6356,9286
6383,9279
6408,9274
6433,9270
6457,9267
6480,9265
6502,9262
6524,9261
6544,9260
6563,9259
6581,9259
6598,9259
6755,9259
" style="stroke:#000000;stroke-width:8;
stroke-linejoin:bevel; stroke-linecap:butt;
"/>
<!-- Line -->
<polyline points="7889,9259
8172,9259
" style="stroke:#000000;stroke-width:8;
stroke-linejoin:miter; stroke-linecap:butt;
"/>
<!-- Line -->
<polyline points="8172,8798
7889,8302
" style="stroke:#000000;stroke-width:8;
stroke-linejoin:miter; stroke-linecap:butt;
"/>
<!-- Line -->
<polyline points="7322,8302
7322,8798
" style="stroke:#000000;stroke-width:8;
stroke-linejoin:miter; stroke-linecap:butt;
"/>
<!-- Line -->
<polyline points="7889,7842
7891,7842
7897,7842
7907,7842
7922,7842
7943,7842
7970,7842
8003,7842
8039,7842
8080,7842
8123,7842
8169,7842
8215,7842
8260,7842
8304,7842
8347,7842
8388,7842
8428,7842
8465,7842
8500,7842
8534,7842
8566,7842
8597,7842
8626,7842
8656,7842
8684,7842
8711,7842
8740,7842
8772,7842
8805,7842
8838,7842
8871,7842
8906,7842
8939,7842
8974,7842
9008,7842
9043,7842
9078,7842
9111,7842
9145,7842
9179,7842
9210,7842
9240,7842
9270,7842
9298,7842
9324,7842
9349,7842
9372,7842
9394,7842
9413,7842
9432,7842
9590,7842
" style="stroke:#aa3333;stroke-width:16;
stroke-linejoin:bevel; stroke-linecap:butt;
stroke-dasharray:10 10;"/>
<!-- Line -->
<polyline points="10157,8302
10157,8304
10157,8309
10157,8319
10157,8333
10157,8353
10157,8380
10157,8411
10157,8449
10157,8490
10157,8536
10157,8583
10157,8633
10157,8683
10157,8732
10157,8782
10157,8829
10157,8875
10157,8920
10157,8963
10157,9004
10157,9044
10157,9083
10157,9121
10157,9156
10157,9193
10157,9229
10157,9265
10157,9300
10157,9336
10157,9369
10157,9401
10157,9434
10157,9468
10157,9503
10157,9538
10157,9574
10157,9611
10157,9648
10157,9687
10157,9725
10157,9764
10157,9805
10157,9845
10157,9886
10157,9927
10157,9968
10157,10009
10157,10050
10157,10091
10157,10131
10157,10172
10157,10211
10157,10249
10157,10288
10157,10325
10157,10362
10157,10398
10157,10433
10157,10468
10157,10501
10157,10535
10157,10567
10157,10600
10157,10639
10157,10677
10157,10714
10157,10753
10157,10791
10157,10829
10157,10867
10157,10904
10157,10941
10157,10979
10157,11016
10157,11051
10157,11087
10157,11122
10157,11156
10157,11189
10157,11220
10157,11251
10157,11279
10157,11307
10157,11333
10157,11357
10157,11380
10157,11401
10157,11421
10157,11440
10157,11458
10157,11633
" style="stroke:#000000;stroke-width:8;
stroke-linejoin:bevel; stroke-linecap:butt;
"/>
<!-- Line -->
<polyline points="9590,7381
9589,7380
9586,7376
9580,7370
9571,7359
9559,7345
9542,7327
9521,7303
9497,7276
9468,7245
9438,7209
9404,7172
9369,7131
9332,7090
9294,7048
9257,7006
9219,6964
9183,6922
9147,6882
9112,6844
9079,6806
9047,6770
9017,6735
8987,6703
8959,6670
8932,6640
8906,6611
8880,6582
8856,6555
8832,6528
8809,6501
8786,6475
8763,6450
8740,6424
8713,6394
8687,6365
8661,6335
8635,6306
8608,6276
8581,6245
8554,6215
8527,6184
8498,6153
8471,6121
8444,6091
8415,6059
8388,6028
8361,5997
8334,5968
8308,5938
8282,5909
8257,5881
8233,5854
8209,5827
8187,5802
8165,5778
8145,5755
8125,5733
8108,5713
8090,5693
8074,5675
8058,5658
8045,5641
7889,5467
" style="stroke:#000000;stroke-width:8;
stroke-linejoin:bevel; stroke-linecap:butt;
"/>
<!-- Line -->
<polyline points="6755,5006
6753,5006
6749,5006
6741,5006
6727,5006
6709,5006
6686,5006
6658,5006
6624,5006
6586,5006
6545,5006
6503,5006
6458,5006
6413,5006
6368,5006
6324,5006
6281,5006
6239,5006
6198,5006
6159,5006
6120,5006
6085,5006
6049,5006
6014,5006
5980,5006
5946,5006
5912,5006
5879,5006
5845,5006
5811,5006
5780,5006
5749,5006
5716,5006
5683,5006
5650,5006
5616,5006
5582,5006
5545,5006
5509,5006
5471,5006
5434,5006
5395,5006
5356,5006
5316,5006
5277,5006
5236,5006
5196,5006
5156,5006
5116,5006
5077,5006
5037,5006
4998,5006
4959,5006
4921,5006
4883,5006
4848,5006
4811,5006
4776,5006
4743,5006
4709,5006
4677,5006
4644,5006
4613,5006
4582,5006
4542,5006
4503,5006
4465,5006
4426,5006
4388,5006
4350,5006
4312,5006
4275,5006
4237,5006
4201,5006
4164,5006
4130,5006
4095,5006
4062,5006
4030,5006
4000,5006
3971,5006
3943,5006
3918,5006
3893,5006
3870,5006
3849,5006
3829,5006
3812,5006
3795,5006
3637,5006
" style="stroke:#000000;stroke-width:8;
stroke-linejoin:bevel; stroke-linecap:butt;
"/>
<!-- Line -->
<polyline points="3070,4546
3070,4050
" style="stroke:#000000;stroke-width:8;
stroke-linejoin:miter; stroke-linecap:butt;
"/>
<!-- Line -->
<polyline points="2503,4050
2220,4546
" style="stroke:#aa3333;stroke-width:16;
stroke-linejoin:miter; stroke-linecap:butt;
stroke-dasharray:10 10;"/>
<!-- Line -->
<polyline points="7889,4546
8172,4050
" style="stroke:#000000;stroke-width:8;
stroke-linejoin:miter; stroke-linecap:butt;
"/>
<!-- Line -->
<polyline points="7322,4546
7322,4050
" style="stroke:#000000;stroke-width:8;
stroke-linejoin:miter; stroke-linecap:butt;
"/>
<!-- Line -->
<polyline points="6755,3129
6472,2633
" style="stroke:#aa3333;stroke-width:16;
stroke-linejoin:miter; stroke-linecap:butt;
stroke-dasharray:10 10;"/>
<!-- Line -->
<polyline points="5905,2633
5905,3003
" style="stroke:#aa3333;stroke-width:16;
stroke-linejoin:miter; stroke-linecap:butt;
stroke-dasharray:10 10;"/>
<!-- Arrowhead on XXXpoint 5905 2633 - 5905 3161-->
<polygon points="5874 3018
5905 3144
5937 3018
5874 3018

" style="stroke:#aa3333;stroke-width:8;
fill:#aa3333;"/>
<!-- Line -->
<polyline points="5905,4050
5905,4052
5905,4057
5905,4067
5905,4081
5905,4101
5905,4128
5905,4159
5905,4197
5905,4238
5905,4283
5905,4331
5905,4381
5905,4430
5905,4480
5905,4529
5905,4577
5905,4623
5905,4667
5905,4710
5905,4752
5905,4792
5905,4830
5905,4868
5905,4904
5905,4940
5905,4976
5905,5012
5905,5047
5905,5083
5905,5116
5905,5148
5905,5182
5905,5215
5905,5250
5906,5285
5906,5321
5907,5358
5908,5395
5909,5434
5910,5472
5912,5511
5913,5552
5916,5592
5919,5633
5922,5674
5925,5715
5928,5756
5932,5797
5937,5838
5942,5878
5947,5919
5953,5958
5959,5996
5966,6035
5972,6072
5981,6109
5988,6145
5996,6180
6006,6215
6015,6249
6025,6282
6035,6314
6047,6347
6060,6383
6074,6418
6090,6454
6106,6490
6122,6525
6140,6561
6159,6596
6179,6632
6199,6666
6220,6702
6241,6737
6263,6770
6285,6804
6307,6837
6330,6870
6353,6901
6375,6932
6397,6961
6419,6991
6440,7018
6461,7043
6481,7068
6501,7091
6520,7114
6538,7135
6555,7154
6672,7287
" style="stroke:#aa3333;stroke-width:16;
stroke-linejoin:bevel; stroke-linecap:butt;
stroke-dasharray:10 10;"/>
<!-- Arrowhead on XXXpoint 6555 7154 - 6775 7404-->
<polygon points="6657 7317
6764 7392
6704 7276
6657 7317

" style="stroke:#aa3333;stroke-width:8;
fill:#aa3333;"/>
<!-- Line -->
<polyline points="10724,7381
11007,6885
" style="stroke:#000000;stroke-width:8;
stroke-linejoin:miter; stroke-linecap:butt;
"/>
<!-- Line -->
<polyline points="10724,7842
11007,7842
" style="stroke:#000000;stroke-width:8;
stroke-linejoin:miter; stroke-linecap:butt;
"/>
<!-- Line -->
<polyline points="10724,12094
11007,12094
" style="stroke:#000000;stroke-width:8;
stroke-linejoin:miter; stroke-linecap:butt;
"/>
<!-- Line -->
<polyline points="7322,9719
7322,10216
" style="stroke:#aa3333;stroke-width:16;
stroke-linejoin:miter; stroke-linecap:butt;
stroke-dasharray:10 10;"/>
<!-- Line -->
<polyline points="3070,5467
3070,5964
" style="stroke:#000000;stroke-width:8;
stroke-linejoin:miter; stroke-linecap:butt;
"/>
<!-- Line -->
<polyline points="9590,12094
9307,12094
" style="stroke:#000000;stroke-width:8;
stroke-linejoin:miter; stroke-linecap:butt;
"/>
<!-- Line -->
<polyline points="12141,12094
12425,12094
" style="stroke:#aa3333;stroke-width:16;
stroke-linejoin:miter; stroke-linecap:butt;
stroke-dasharray:10 10;"/>
<!-- Line -->
<polyline points="7322,3129
7322,2633
" style="stroke:#aa3333;stroke-width:16;
stroke-linejoin:miter; stroke-linecap:butt;
stroke-dasharray:10 10;"/>
<!-- Line -->
<polyline points="6472,2172
6755,2172
" style="stroke:#aa3333;stroke-width:16;
stroke-linejoin:miter; stroke-linecap:butt;
stroke-dasharray:10 10;"/>
<!-- Text -->
<text xml:space="preserve" x="5480" y="10677" stroke="#000000" fill="#000000" font-family="Times" font-style="normal" font-weight="normal" font-size="101" text-anchor="middle">U/D</text>
<!-- Text -->
<text xml:space="preserve" x="3070" y="5715" stroke="#000000" fill="#000000" font-family="Times" font-style="normal" font-weight="normal" font-size="101" text-anchor="middle">U/D</text>
<!-- Text -->
<text xml:space="preserve" x="9448" y="12094" stroke="#000000" fill="#000000" font-family="Times" font-style="normal" font-weight="normal" font-size="101" text-anchor="middle">U/D</text>
<!-- Text -->
<text xml:space="preserve" x="12283" y="12094" stroke="#aa3333" fill="#aa3333" font-family="Times" font-style="normal" font-weight="normal" font-size="101" text-anchor="middle">U/D</text>
<!-- Line: box -->
<rect x="6754" y="1712" width="1133" height="920" rx="0" 
style="stroke:#000000;stroke-width:8;
stroke-linejoin:miter; stroke-linecap:butt;
stroke-dasharray:10 10;fill:#ffffff;
"/>
<!-- Line: box -->
<rect x="12425" y="11633" width="1133" height="920" rx="0" 
style="stroke:#000000;stroke-width:8;
stroke-linejoin:miter; stroke-linecap:butt;
stroke-dasharray:10 10;fill:#ffffff;
"/>
<!-- Line: box -->
<rect x="8172" y="11633" width="1133" height="920" rx="0" 
style="stroke:#000000;stroke-width:8;
stroke-linejoin:miter; stroke-linecap:butt;
stroke-dasharray:10 10;fill:#ffffff;
"/>
<!-- Line: box -->
<rect x="2503" y="5964" width="1133" height="920" rx="0" 
style="stroke:#000000;stroke-width:8;
stroke-linejoin:miter; stroke-linecap:butt;
stroke-dasharray:10 10;fill:#ffffff;
"/>
<!-- Line: box -->
<rect x="6754" y="10216" width="1133" height="920" rx="0" 
style="stroke:#000000;stroke-width:8;
stroke-linejoin:miter; stroke-linecap:butt;
fill:#ffffff;
"/>
<!-- Line: box -->
<rect x="11007" y="11633" width="1132" height="920" rx="0" 
style="stroke:#000000;stroke-width:8;
stroke-linejoin:miter; stroke-linecap:butt;
fill:#ffffff;
"/>
<!-- Line: box -->
<rect x="11007" y="7381" width="1132" height="920" rx="0" 
style="stroke:#000000;stroke-width:8;
stroke-linejoin:miter; stroke-linecap:butt;
fill:#ffffff;
"/>
<!-- Line: box -->
<rect x="11007" y="5964" width="1132" height="920" rx="0" 
style="stroke:#000000;stroke-width:8;
stroke-linejoin:miter; stroke-linecap:butt;
fill:#ffffff;
"/>
<!-- Line: box -->
<rect x="5337" y="3129" width="1133" height="920" rx="0" 
style="stroke:#aa3333;stroke-width:8;
stroke-linejoin:miter; stroke-linecap:butt;
fill:#ffffff;
"/>
<!-- Line: box -->
<rect x="5337" y="1712" width="1133" height="920" rx="0" 
style="stroke:#000000;stroke-width:8;
stroke-linejoin:miter; stroke-linecap:butt;
fill:#000000;
"/>
<!-- Line: box -->
<rect x="6754" y="3129" width="1133" height="920" rx="0" 
style="stroke:#000000;stroke-width:8;
stroke-linejoin:miter; stroke-linecap:butt;
fill:#ffffff;
"/>
<!-- Line: box -->
<rect x="8172" y="3129" width="1133" height="920" rx="0" 
style="stroke:#000000;stroke-width:8;
stroke-linejoin:miter; stroke-linecap:butt;
fill:#ffffff;
"/>
<!-- Line: box -->
<rect x="1086" y="4546" width="1133" height="920" rx="0" 
style="stroke:#aa3333;stroke-width:8;
stroke-linejoin:miter; stroke-linecap:butt;
fill:#ffffff;
"/>
<!-- Line: box -->
<rect x="2503" y="3129" width="1133" height="920" rx="0" 
style="stroke:#000000;stroke-width:8;
stroke-linejoin:miter; stroke-linecap:butt;
fill:#ffffff;
"/>
<!-- Line: box -->
<rect x="2503" y="4546" width="1133" height="920" rx="0" 
style="stroke:#000000;stroke-width:8;
stroke-linejoin:miter; stroke-linecap:butt;
fill:#ccffff;
"/>
<!-- Line: box -->
<rect x="6754" y="4546" width="1133" height="920" rx="0" 
style="stroke:#000000;stroke-width:8;
stroke-linejoin:miter; stroke-linecap:butt;
fill:#ccffff;
"/>
<!-- Line: box -->
<rect x="9590" y="11633" width="1132" height="920" rx="0" 
style="stroke:#000000;stroke-width:8;
stroke-linejoin:miter; stroke-linecap:butt;
fill:#ccffff;
"/>
<!-- Line: box -->
<rect x="9590" y="7381" width="1132" height="920" rx="0" 
style="stroke:#000000;stroke-width:8;
stroke-linejoin:miter; stroke-linecap:butt;
fill:#ccffff;
"/>
<!-- Line: box -->
<rect x="6754" y="7381" width="1133" height="920" rx="0" 
style="stroke:#000000;stroke-width:8;
stroke-linejoin:miter; stroke-linecap:butt;
fill:#ccffcc;
"/>
<!-- Line: box -->
<rect x="8172" y="8798" width="1133" height="920" rx="0" 
style="stroke:#000000;stroke-width:8;
stroke-linejoin:miter; stroke-linecap:butt;
fill:#ccffcc;
"/>
<!-- Line: box -->
<rect x="6754" y="8798" width="1133" height="920" rx="0" 
style="stroke:#000000;stroke-width:8;
stroke-linejoin:miter; stroke-linecap:butt;
fill:#ccffcc;
"/>
<!-- Line: box -->
<rect x="3920" y="10216" width="1133" height="920" rx="0" 
style="stroke:#000000;stroke-width:8;
stroke-linejoin:miter; stroke-linecap:butt;
fill:#ffcccc;
"/>
<!-- Line: box -->
<rect x="2503" y="10216" width="1133" height="920" rx="0" 
style="stroke:#000000;stroke-width:8;
stroke-linejoin:miter; stroke-linecap:butt;
fill:#ffcccc;
"/>
<!-- Text -->
<text xml:space="preserve" x="7328" y="2130" stroke="#000000" fill="#000000" font-family="Times" font-style="italic" font-weight="normal" font-size="126" text-anchor="middle">Vaulting</text>
<!-- Text -->
<text xml:space="preserve" x="7328" y="2304" stroke="#000000" fill="#000000" font-family="Times" font-style="italic" font-weight="normal" font-size="126" text-anchor="middle">Cavern</text>
<!-- Text -->
<text xml:space="preserve" x="12997" y="12138" stroke="#000000" fill="#000000" font-family="Times" font-style="italic" font-weight="normal" font-size="126" text-anchor="middle">Landing</text>
<!-- Text -->
<text xml:space="preserve" x="8745" y="12138" stroke="#000000" fill="#000000" font-family="Times" font-style="italic" font-weight="normal" font-size="126" text-anchor="middle">Dome, East</text>
<!-- Text -->
<text xml:space="preserve" x="3076" y="6469" stroke="#000000" fill="#000000" font-family="Times" font-style="italic" font-weight="normal" font-size="126" text-anchor="middle">North Alcove</text>
<!-- Text -->
<text xml:space="preserve" x="7328" y="10721" stroke="#000000" fill="#000000" font-family="Times" font-style="normal" font-weight="bold" font-size="126" text-anchor="middle">Iron Corridor</text>
<!-- Text -->
<text xml:space="preserve" x="11580" y="11918" stroke="#000000" fill="#000000" font-family="Times" font-style="normal" font-weight="bold" font-size="126" text-anchor="middle">Dim Shed (3)</text>
<!-- Text -->
<text xml:space="preserve" x="11580" y="12328" stroke="#000000" fill="#000000" font-family="Times" font-style="italic" font-weight="normal" font-size="76" text-anchor="middle">glove</text>
<!-- Text -->
<text xml:space="preserve" x="11580" y="7666" stroke="#000000" fill="#000000" font-family="Times" font-style="normal" font-weight="bold" font-size="126" text-anchor="middle">Mosaic Room</text>
<!-- Text -->
<text xml:space="preserve" x="11580" y="8076" stroke="#000000" fill="#000000" font-family="Times" font-style="italic" font-weight="normal" font-size="76" text-anchor="middle">cage, apple, mosaic</text>
<!-- Text -->
<text xml:space="preserve" x="11580" y="6248" stroke="#000000" fill="#000000" font-family="Times" font-style="normal" font-weight="bold" font-size="126" text-anchor="middle">Atelier</text>
<!-- Text -->
<text xml:space="preserve" x="11580" y="6555" stroke="#000000" fill="#000000" font-family="Times" font-style="italic" font-weight="normal" font-size="76" text-anchor="middle">mountain painting,</text>
<!-- Text -->
<text xml:space="preserve" x="11580" y="6659" stroke="#000000" fill="#000000" font-family="Times" font-style="italic" font-weight="normal" font-size="76" text-anchor="middle">easel, palette,</text>
<!-- Text -->
<text xml:space="preserve" x="11580" y="6764" stroke="#000000" fill="#000000" font-family="Times" font-style="italic" font-weight="normal" font-size="76" text-anchor="middle">telescope</text>
<!-- Text -->
<text xml:space="preserve" x="5910" y="3327" stroke="#aa3333" fill="#aa3333" font-family="Times" font-style="normal" font-weight="bold" font-size="126" text-anchor="middle">Subterrane</text>
<!-- Text -->
<text xml:space="preserve" x="5910" y="3501" stroke="#aa3333" fill="#aa3333" font-family="Times" font-style="normal" font-weight="bold" font-size="126" text-anchor="middle">World</text>
<!-- Text -->
<text xml:space="preserve" x="5910" y="3824" stroke="#000000" fill="#000000" font-family="Times" font-style="italic" font-weight="normal" font-size="76" text-anchor="middle">obsidian dagger</text>
<!-- Text -->
<text xml:space="preserve" x="5910" y="2217" stroke="#ffff00" fill="#ffff00" font-family="Times" font-style="normal" font-weight="bold" font-size="126" text-anchor="middle">Darkness</text>
<!-- Text -->
<text xml:space="preserve" x="7328" y="3547" stroke="#000000" fill="#000000" font-family="Times" font-style="normal" font-weight="bold" font-size="126" text-anchor="middle">Natural</text>
<!-- Text -->
<text xml:space="preserve" x="7328" y="3721" stroke="#000000" fill="#000000" font-family="Times" font-style="normal" font-weight="bold" font-size="126" text-anchor="middle">Chamber (4)</text>
<!-- Text -->
<text xml:space="preserve" x="8745" y="3414" stroke="#000000" fill="#000000" font-family="Times" font-style="normal" font-weight="bold" font-size="126" text-anchor="middle">Harp Chamber</text>
<!-- Text -->
<text xml:space="preserve" x="8745" y="3824" stroke="#000000" fill="#000000" font-family="Times" font-style="italic" font-weight="normal" font-size="76" text-anchor="middle">straw torch</text>
<!-- Text -->
<text xml:space="preserve" x="1658" y="5051" stroke="#aa3333" fill="#aa3333" font-family="Times" font-style="normal" font-weight="bold" font-size="126" text-anchor="middle">Dank Jungle</text>
<!-- Text -->
<text xml:space="preserve" x="3076" y="3414" stroke="#000000" fill="#000000" font-family="Times" font-style="normal" font-weight="bold" font-size="126" text-anchor="middle">Arboretum</text>
<!-- Text -->
<text xml:space="preserve" x="3076" y="3824" stroke="#000000" fill="#000000" font-family="Times" font-style="italic" font-weight="normal" font-size="76" text-anchor="middle">iron key</text>
<!-- Text -->
<text xml:space="preserve" x="3076" y="4964" stroke="#000000" fill="#000000" font-family="Times" font-style="normal" font-weight="bold" font-size="126" text-anchor="middle">Curving Hall,</text>
<!-- Text -->
<text xml:space="preserve" x="3076" y="5139" stroke="#000000" fill="#000000" font-family="Times" font-style="normal" font-weight="bold" font-size="126" text-anchor="middle">West End (1)</text>
<!-- Text -->
<text xml:space="preserve" x="7328" y="4964" stroke="#000000" fill="#000000" font-family="Times" font-style="normal" font-weight="bold" font-size="126" text-anchor="middle">Curving Hall</text>
<!-- Text -->
<text xml:space="preserve" x="7328" y="5139" stroke="#000000" fill="#000000" font-family="Times" font-style="normal" font-weight="bold" font-size="126" text-anchor="middle">at Pedestal</text>
<!-- Text -->
<text xml:space="preserve" x="10162" y="12051" stroke="#000000" fill="#000000" font-family="Times" font-style="normal" font-weight="bold" font-size="126" text-anchor="middle">Curving Hall,</text>
<!-- Text -->
<text xml:space="preserve" x="10162" y="12225" stroke="#000000" fill="#000000" font-family="Times" font-style="normal" font-weight="bold" font-size="126" text-anchor="middle">South End (2)</text>
<!-- Text -->
<text xml:space="preserve" x="10162" y="7886" stroke="#000000" fill="#000000" font-family="Times" font-style="normal" font-weight="bold" font-size="126" text-anchor="middle">Curving Hall</text>
<!-- Text -->
<text xml:space="preserve" x="7328" y="7666" stroke="#000000" fill="#000000" font-family="Times" font-style="normal" font-weight="bold" font-size="126" text-anchor="middle">Sitting Room</text>
<!-- Text -->
<text xml:space="preserve" x="7328" y="8024" stroke="#000000" fill="#000000" font-family="Times" font-style="italic" font-weight="normal" font-size="76" text-anchor="middle">desert painting,</text>
<!-- Text -->
<text xml:space="preserve" x="7328" y="8129" stroke="#000000" fill="#000000" font-family="Times" font-style="italic" font-weight="normal" font-size="76" text-anchor="middle">fireplace, red spheres</text>
<!-- Text -->
<text xml:space="preserve" x="8745" y="8996" stroke="#000000" fill="#000000" font-family="Times" font-style="normal" font-weight="bold" font-size="126" text-anchor="middle">Curtained</text>
<!-- Text -->
<text xml:space="preserve" x="8745" y="9170" stroke="#000000" fill="#000000" font-family="Times" font-style="normal" font-weight="bold" font-size="126" text-anchor="middle">Room</text>
<!-- Text -->
<text xml:space="preserve" x="8745" y="9493" stroke="#000000" fill="#000000" font-family="Times" font-style="italic" font-weight="normal" font-size="76" text-anchor="middle">mirror</text>
<!-- Text -->
<text xml:space="preserve" x="7328" y="9083" stroke="#000000" fill="#000000" font-family="Times" font-style="normal" font-weight="bold" font-size="126" text-anchor="middle">Crowded Study</text>
<!-- Text -->
<text xml:space="preserve" x="7328" y="9493" stroke="#000000" fill="#000000" font-family="Times" font-style="italic" font-weight="normal" font-size="76" text-anchor="middle">book, cabinet, trunk</text>
<!-- Text -->
<text xml:space="preserve" x="4493" y="10634" stroke="#000000" fill="#000000" font-family="Times" font-style="normal" font-weight="bold" font-size="126" text-anchor="middle">Narrow</text>
<!-- Text -->
<text xml:space="preserve" x="4493" y="10808" stroke="#000000" fill="#000000" font-family="Times" font-style="normal" font-weight="bold" font-size="126" text-anchor="middle">Hallway</text>
<!-- Text -->
<text xml:space="preserve" x="3076" y="10721" stroke="#000000" fill="#000000" font-family="Times" font-style="normal" font-weight="bold" font-size="126" text-anchor="middle">Cell</text>
</g>
</svg>
