<?xml version="1.0" standalone="no"?>
<!DOCTYPE svg PUBLIC "-//W3C//DTD SVG 1.1//EN"
"http://www.w3.org/Graphics/SVG/1.1/DTD/svg11.dtd">
<!-- Creator: fig2dev Version 3.2 Patchlevel 5 -->
<!-- CreationDate: Tue Jan  8 16:37:02 2019 -->
<!-- Magnification: 1.050 -->
<svg xmlns="http://www.w3.org/2000/svg" width="2.6in" height="3.2in" viewBox="2892 4156 3138 3851">
<g style="stroke-width:.025in; stroke:black; fill:none">
<!-- Line: box -->
<rect x="2904" y="4239" width="1133" height="921" rx="0" 
style="stroke:#7e7e7e;stroke-width:8;
stroke-linejoin:miter; stroke-linecap:butt;
fill:#7e7e7e;
"/>
<!-- Line: box -->
<rect x="4322" y="7074" width="1133" height="921" rx="0" 
style="stroke:#7e7e7e;stroke-width:8;
stroke-linejoin:miter; stroke-linecap:butt;
fill:#7e7e7e;
"/>
<!-- Line -->
<polyline points="4960,7003
4960,7001
4960,6996
4959,6986
4959,6973
4958,6953
4957,6928
4956,6896
4954,6859
4952,6819
4950,6775
4946,6729
4943,6682
4940,6634
4936,6586
4932,6540
4927,6494
4921,6451
4916,6409
4910,6369
4903,6331
4897,6296
4890,6261
4881,6228
4873,6196
4864,6165
4853,6135
4843,6106
4831,6076
4818,6047
4805,6017
4791,5988
4775,5959
4760,5928
4743,5899
4725,5868
4706,5838
4686,5806
4666,5776
4645,5744
4624,5713
4602,5681
4580,5651
4558,5620
4535,5590
4512,5561
4490,5531
4468,5503
4446,5476
4425,5449
4404,5424
4384,5400
4364,5378
4345,5356
4327,5335
4310,5316
4295,5297
4279,5280
4265,5264
4110,5089
" style="stroke:#000000;stroke-width:8;
stroke-linejoin:bevel; stroke-linecap:butt;
"/>
<!-- Line -->
<polyline points="3543,5089
3543,5091
3543,5097
3544,5106
3544,5120
3545,5140
3546,5165
3547,5196
3549,5233
3551,5273
3553,5317
3556,5363
3560,5411
3563,5459
3567,5506
3571,5553
3576,5598
3582,5643
3587,5683
3593,5723
3600,5761
3606,5798
3613,5833
3622,5865
3630,5897
3639,5928
3650,5959
3660,5988
3672,6017
3685,6047
3698,6076
3712,6106
3728,6135
3743,6164
3760,6195
3778,6225
3797,6256
3817,6286
3837,6318
3858,6349
3879,6380
3901,6411
3923,6443
3945,6473
3968,6502
3991,6533
4013,6561
4035,6590
4057,6617
4078,6643
4099,6668
4119,6692
4139,6716
4158,6738
4176,6758
4193,6777
4208,6795
4224,6812
4238,6829
4393,7003
" style="stroke:#000000;stroke-width:8;
stroke-linejoin:bevel; stroke-linecap:butt;
"/>
<!-- Line -->
<polyline points="4110,4629
4112,4629
4116,4629
4124,4629
4138,4629
4156,4629
4179,4629
4207,4629
4241,4629
4279,4629
4320,4629
4362,4629
4407,4629
4452,4629
4497,4629
4541,4629
4584,4629
4626,4629
4667,4629
4706,4629
4745,4629
4781,4629
4816,4629
4851,4629
4886,4629
4919,4629
4953,4629
4986,4629
5020,4629
5055,4629
5087,4629
5121,4629
5154,4629
5189,4630
5225,4630
5260,4632
5296,4633
5333,4635
5371,4637
5407,4640
5445,4643
5483,4648
5520,4653
5558,4659
5593,4666
5630,4674
5665,4682
5698,4692
5731,4703
5762,4714
5792,4728
5820,4742
5847,4758
5871,4773
5895,4791
5916,4810
5934,4830
5951,4851
5966,4873
5980,4896
5990,4921
6000,4949
6006,4975
6011,5003
6015,5033
6016,5063
6017,5097
6016,5130
6013,5166
6009,5204
6004,5243
5997,5282
5989,5323
5981,5365
5970,5408
5959,5451
5947,5497
5933,5541
5920,5586
5905,5631
5890,5675
5875,5720
5859,5763
5843,5806
5826,5848
5811,5889
5795,5929
5779,5968
5763,6006
5749,6041
5734,6075
5719,6109
5706,6139
5693,6169
5680,6197
5527,6542
" style="stroke:#000000;stroke-width:8;
stroke-linejoin:bevel; stroke-linecap:butt;
"/>
<!-- Line: box -->
<rect x="2976" y="4169" width="1133" height="920" rx="0" 
style="stroke:#000000;stroke-width:8;
stroke-linejoin:miter; stroke-linecap:butt;
fill:#ffffff;
"/>
<!-- Line: box -->
<rect x="4393" y="7003" width="1133" height="920" rx="0" 
style="stroke:#000000;stroke-width:8;
stroke-linejoin:miter; stroke-linecap:butt;
fill:#ffffff;
"/>
<!-- Text -->
<text xml:space="preserve" x="3548" y="4674" stroke="#000000" fill="#000000" font-family="Times" font-style="normal" font-weight="bold" font-size="126" text-anchor="middle">TTb</text>
<!-- Text -->
<text xml:space="preserve" x="4965" y="7508" stroke="#000000" fill="#000000" font-family="Times" font-style="normal" font-weight="bold" font-size="126" text-anchor="middle">TTa</text>
</g>
</svg>
